G04 start of page 13 for group -4079 idx -4079 *
G04 Title: (unknown), topsilk *
G04 Creator: pcb 20110918 *
G04 CreationDate: Mon 12 May 2014 07:20:50 GMT UTC *
G04 For: ksarkies *
G04 Format: Gerber/RS-274X *
G04 PCB-Dimensions: 157480 255906 *
G04 PCB-Coordinate-Origin: lower left *
%MOIN*%
%FSLAX25Y25*%
%LNTOPSILK*%
%ADD113C,0.0100*%
%ADD112C,0.0200*%
%ADD111C,0.0060*%
%ADD110C,0.0001*%
G54D110*G36*
X2686Y148583D02*Y151160D01*
X2718Y151243D01*
X2794Y151290D01*
X3033Y151339D01*
X3255Y151383D01*
X5387Y151774D01*
X5475Y151821D01*
X5533Y151904D01*
X5577Y152007D01*
X5848Y152797D01*
X6206Y153547D01*
Y153553D01*
X6244Y153640D01*
X6258Y153737D01*
X6227Y153835D01*
X5008Y155608D01*
X4883Y155799D01*
X4747Y156000D01*
X4722Y156086D01*
X4758Y156168D01*
X5088Y156499D01*
X5588Y157003D01*
X5751Y157161D01*
X6249Y157660D01*
X6406Y157822D01*
X6580Y157990D01*
X6665Y158029D01*
X6754Y158007D01*
X6955Y157871D01*
X7145Y157742D01*
X8881Y156553D01*
X8973Y156521D01*
X9070Y156536D01*
X9169Y156581D01*
X10775Y157264D01*
X10866Y157301D01*
X10944Y157364D01*
X10991Y157454D01*
X11372Y159493D01*
X11415Y159717D01*
X11458Y159960D01*
X11505Y160035D01*
X11588Y160064D01*
X14165D01*
X14254Y160035D01*
X14301Y159960D01*
X14344Y159717D01*
X14387Y159493D01*
X14756Y157514D01*
X14804Y157426D01*
X14887Y157372D01*
X14947Y157344D01*
X14958D01*
X16731Y156629D01*
X16743Y156624D01*
X16786Y156607D01*
X16887Y156590D01*
X16981Y156618D01*
X18613Y157747D01*
X18804Y157871D01*
X19005Y158012D01*
X19091Y158031D01*
X19173Y157990D01*
X19352Y157822D01*
X19509Y157660D01*
X20827Y156342D01*
X20995Y156168D01*
X21036Y156086D01*
X21018Y156000D01*
X20876Y155799D01*
X20752Y155608D01*
X19655Y154014D01*
X19626Y153915D01*
X19645Y153818D01*
X19829Y153487D01*
X19938Y153293D01*
X20116Y152946D01*
X20122Y152861D01*
X20062Y152799D01*
X19705Y152653D01*
X19498Y152565D01*
X16140Y151182D01*
X15934Y151094D01*
X15701Y150997D01*
X15606Y150993D01*
X15533Y151046D01*
X15402Y151269D01*
X15294Y151410D01*
X14848Y151946D01*
X14284Y152361D01*
X13625Y152628D01*
X12895Y152722D01*
X12320Y152664D01*
X11786Y152499D01*
X11301Y152236D01*
X10879Y151887D01*
X10530Y151467D01*
X10266Y150983D01*
X10101Y150449D01*
X10043Y149875D01*
X10101Y149300D01*
X10266Y148765D01*
X10530Y148282D01*
X10879Y147860D01*
X11301Y147512D01*
X11786Y147250D01*
X12320Y147085D01*
X12895Y147026D01*
X13625Y147119D01*
X14284Y147386D01*
X14848Y147800D01*
X15294Y148339D01*
X15402Y148475D01*
X15533Y148697D01*
X15606Y148751D01*
X15701Y148746D01*
X15934Y148649D01*
X16140Y148561D01*
X19498Y147178D01*
X19705Y147092D01*
X20062Y146944D01*
X20122Y146883D01*
X20116Y146799D01*
X19938Y146457D01*
X19829Y146256D01*
X19645Y145925D01*
X19626Y145826D01*
X19655Y145729D01*
X20752Y144135D01*
X20876Y143950D01*
X21018Y143744D01*
X21036Y143657D01*
X20995Y143575D01*
X20827Y143401D01*
X20665Y143244D01*
X20166Y142746D01*
X20008Y142583D01*
X19509Y142083D01*
X19352Y141921D01*
X19173Y141753D01*
X19091Y141714D01*
X19005Y141736D01*
X18804Y141872D01*
X18613Y142003D01*
X16981Y143125D01*
X16887Y143153D01*
X16786Y143136D01*
X16726Y143114D01*
X14952Y142404D01*
X14887Y142371D01*
X14804Y142317D01*
X14756Y142231D01*
X14387Y140250D01*
X14344Y140028D01*
X14301Y139789D01*
X14251Y139710D01*
X14165Y139681D01*
X11588D01*
X11505Y139710D01*
X11458Y139789D01*
X11409Y140028D01*
X11372Y140250D01*
X10991Y142290D01*
X10944Y142379D01*
X10861Y142442D01*
X10775Y142479D01*
X9169Y143168D01*
X9070Y143207D01*
X8973Y143224D01*
X8881Y143196D01*
X7140Y142003D01*
X6955Y141872D01*
X6754Y141736D01*
X6665Y141714D01*
X6580Y141753D01*
X6406Y141921D01*
X6249Y142083D01*
X4758Y143575D01*
X4722Y143657D01*
X4741Y143744D01*
X4877Y143950D01*
X5008Y144135D01*
X6227Y145908D01*
X6256Y146006D01*
X6238Y146104D01*
X6206Y146190D01*
X6201Y146201D01*
X5847Y146947D01*
X5572Y147737D01*
X5533Y147840D01*
X5475Y147924D01*
X5387Y147969D01*
X3255Y148367D01*
X3033Y148404D01*
X2794Y148453D01*
X2718Y148500D01*
X2686Y148583D01*
G37*
G54D111*X13400Y165206D02*X17400D01*
X15400D02*X13400Y167206D01*
X15400Y165206D02*X17400Y167206D01*
Y168906D02*Y168406D01*
X13400Y171906D02*X15400D01*
X17400Y172406D01*
X15400Y173406D01*
X17400Y174406D01*
X15400Y174906D01*
X13400D02*X15400D01*
X17400Y176606D02*Y176106D01*
X13400Y181606D02*X13900Y182106D01*
X13400Y181606D02*Y180106D01*
X13900Y179606D02*X13400Y180106D01*
X13900Y179606D02*X14900D01*
X15400Y180106D01*
Y181606D02*Y180106D01*
Y181606D02*X15900Y182106D01*
X16900D01*
X17400Y181606D02*X16900Y182106D01*
X17400Y181606D02*Y180106D01*
X16900Y179606D02*X17400Y180106D01*
X15400Y184806D02*X15900Y185306D01*
X15400Y184806D02*Y183806D01*
X15900Y183306D02*X15400Y183806D01*
X15900Y183306D02*X16900D01*
X17400Y183806D01*
X15400Y185306D02*X16900D01*
X17400Y185806D01*
Y184806D02*Y183806D01*
Y184806D02*X16900Y185306D01*
X15900Y187506D02*X17400D01*
X15900D02*X15400Y188006D01*
Y189006D02*Y188006D01*
Y187006D02*X15900Y187506D01*
X13400Y190206D02*X17400D01*
X15900D02*X17400Y191706D01*
X15900Y190206D02*X14900Y191206D01*
X14400Y192906D02*X14500D01*
X15900D02*X17400D01*
Y195906D02*Y194406D01*
X16900Y193906D02*X17400Y194406D01*
X15900Y193906D02*X16900D01*
X15900D02*X15400Y194406D01*
Y195406D02*Y194406D01*
Y195406D02*X15900Y195906D01*
X16400D02*Y193906D01*
X15900Y195906D02*X16400D01*
X17400Y199106D02*Y197606D01*
Y199106D02*X16900Y199606D01*
X16400Y199106D02*X16900Y199606D01*
X16400Y199106D02*Y197606D01*
X15900Y197106D02*X16400Y197606D01*
X15900Y197106D02*X15400Y197606D01*
Y199106D02*Y197606D01*
Y199106D02*X15900Y199606D01*
X16900Y197106D02*X17400Y197606D01*
X19700Y161406D02*X23700Y162406D01*
X19700Y163406D01*
X23700Y166606D02*Y165106D01*
X23200Y164606D02*X23700Y165106D01*
X22200Y164606D02*X23200D01*
X22200D02*X21700Y165106D01*
Y166106D02*Y165106D01*
Y166106D02*X22200Y166606D01*
X22700D02*Y164606D01*
X22200Y166606D02*X22700D01*
X22200Y168306D02*X23700D01*
X22200D02*X21700Y168806D01*
Y169806D02*Y168806D01*
Y167806D02*X22200Y168306D01*
X23700Y173006D02*Y171506D01*
Y173006D02*X23200Y173506D01*
X22700Y173006D02*X23200Y173506D01*
X22700Y173006D02*Y171506D01*
X22200Y171006D02*X22700Y171506D01*
X22200Y171006D02*X21700Y171506D01*
Y173006D02*Y171506D01*
Y173006D02*X22200Y173506D01*
X23200Y171006D02*X23700Y171506D01*
X20700Y174706D02*X20800D01*
X22200D02*X23700D01*
X22200Y175706D02*X23200D01*
X22200D02*X21700Y176206D01*
Y177206D02*Y176206D01*
Y177206D02*X22200Y177706D01*
X23200D01*
X23700Y177206D02*X23200Y177706D01*
X23700Y177206D02*Y176206D01*
X23200Y175706D02*X23700Y176206D01*
X22200Y179406D02*X23700D01*
X22200D02*X21700Y179906D01*
Y180406D02*Y179906D01*
Y180406D02*X22200Y180906D01*
X23700D01*
X21700Y178906D02*X22200Y179406D01*
X23200Y183906D02*X23700Y184406D01*
X20200Y183906D02*X23200D01*
X20200D02*X19700Y184406D01*
Y185406D02*Y184406D01*
Y185406D02*X20200Y185906D01*
X23200D01*
X23700Y185406D02*X23200Y185906D01*
X23700Y185406D02*Y184406D01*
X22700Y183906D02*X20700Y185906D01*
X23700Y187606D02*Y187106D01*
X23200Y188806D02*X23700Y189306D01*
X20200Y188806D02*X23200D01*
X20200D02*X19700Y189306D01*
Y190306D02*Y189306D01*
Y190306D02*X20200Y190806D01*
X23200D01*
X23700Y190306D02*X23200Y190806D01*
X23700Y190306D02*Y189306D01*
X22700Y188806D02*X20700Y190806D01*
X2700Y172506D02*Y170506D01*
Y172506D02*X3200Y173006D01*
X4200D01*
X4700Y172506D02*X4200Y173006D01*
X4700Y172506D02*Y171006D01*
X2700D02*X6700D01*
X4700Y171806D02*X6700Y173006D01*
Y176206D02*Y174706D01*
X6200Y174206D02*X6700Y174706D01*
X5200Y174206D02*X6200D01*
X5200D02*X4700Y174706D01*
Y175706D02*Y174706D01*
Y175706D02*X5200Y176206D01*
X5700D02*Y174206D01*
X5200Y176206D02*X5700D01*
X5200Y177906D02*X6700D01*
X5200D02*X4700Y178406D01*
Y178906D02*Y178406D01*
Y178906D02*X5200Y179406D01*
X6700D01*
X5200D02*X4700Y179906D01*
Y180406D02*Y179906D01*
Y180406D02*X5200Y180906D01*
X6700D01*
X4700Y177406D02*X5200Y177906D01*
Y182106D02*X6200D01*
X5200D02*X4700Y182606D01*
Y183606D02*Y182606D01*
Y183606D02*X5200Y184106D01*
X6200D01*
X6700Y183606D02*X6200Y184106D01*
X6700Y183606D02*Y182606D01*
X6200Y182106D02*X6700Y182606D01*
X2700Y185806D02*X6200D01*
X6700Y186306D01*
X4200D02*Y185306D01*
X6700Y189306D02*Y187806D01*
X6200Y187306D02*X6700Y187806D01*
X5200Y187306D02*X6200D01*
X5200D02*X4700Y187806D01*
Y188806D02*Y187806D01*
Y188806D02*X5200Y189306D01*
X5700D02*Y187306D01*
X5200Y189306D02*X5700D01*
X2700Y192806D02*X6700D01*
X2700Y194306D02*Y192306D01*
Y194306D02*X3200Y194806D01*
X4200D01*
X4700Y194306D02*X4200Y194806D01*
X4700Y194306D02*Y192806D01*
X5200Y196006D02*X6200D01*
X5200D02*X4700Y196506D01*
Y197506D02*Y196506D01*
Y197506D02*X5200Y198006D01*
X6200D01*
X6700Y197506D02*X6200Y198006D01*
X6700Y197506D02*Y196506D01*
X6200Y196006D02*X6700Y196506D01*
X4700Y199206D02*X6200D01*
X6700Y199706D01*
Y200206D02*Y199706D01*
Y200206D02*X6200Y200706D01*
X4700D02*X6200D01*
X6700Y201206D01*
Y201706D02*Y201206D01*
Y201706D02*X6200Y202206D01*
X4700D02*X6200D01*
X6700Y205406D02*Y203906D01*
X6200Y203406D02*X6700Y203906D01*
X5200Y203406D02*X6200D01*
X5200D02*X4700Y203906D01*
Y204906D02*Y203906D01*
Y204906D02*X5200Y205406D01*
X5700D02*Y203406D01*
X5200Y205406D02*X5700D01*
X5200Y207106D02*X6700D01*
X5200D02*X4700Y207606D01*
Y208606D02*Y207606D01*
Y206606D02*X5200Y207106D01*
X2700Y213606D02*X3200Y214106D01*
X2700Y213606D02*Y212106D01*
X3200Y211606D02*X2700Y212106D01*
X3200Y211606D02*X4200D01*
X4700Y212106D01*
Y213606D02*Y212106D01*
Y213606D02*X5200Y214106D01*
X6200D01*
X6700Y213606D02*X6200Y214106D01*
X6700Y213606D02*Y212106D01*
X6200Y211606D02*X6700Y212106D01*
X4700Y215306D02*X6200D01*
X6700Y215806D01*
Y216306D02*Y215806D01*
Y216306D02*X6200Y216806D01*
X4700D02*X6200D01*
X6700Y217306D01*
Y217806D02*Y217306D01*
Y217806D02*X6200Y218306D01*
X4700D02*X6200D01*
X3700Y219506D02*X3800D01*
X5200D02*X6700D01*
X2700Y221006D02*X6200D01*
X6700Y221506D01*
X4200D02*Y220506D01*
X4700Y224506D02*Y223006D01*
X5200Y222506D02*X4700Y223006D01*
X5200Y222506D02*X6200D01*
X6700Y223006D01*
Y224506D02*Y223006D01*
X2700Y225706D02*X6700D01*
X5200D02*X4700Y226206D01*
Y227206D02*Y226206D01*
Y227206D02*X5200Y227706D01*
X6700D01*
X8100Y174306D02*Y172306D01*
Y174306D02*X8600Y174806D01*
X9600D01*
X10100Y174306D02*X9600Y174806D01*
X10100Y174306D02*Y172806D01*
X8100D02*X12100D01*
X10100Y173606D02*X12100Y174806D01*
Y178006D02*Y176506D01*
X11600Y176006D02*X12100Y176506D01*
X10600Y176006D02*X11600D01*
X10600D02*X10100Y176506D01*
Y177506D02*Y176506D01*
Y177506D02*X10600Y178006D01*
X11100D02*Y176006D01*
X10600Y178006D02*X11100D01*
X10600Y179706D02*X12100D01*
X10600D02*X10100Y180206D01*
Y180706D02*Y180206D01*
Y180706D02*X10600Y181206D01*
X12100D01*
X10600D02*X10100Y181706D01*
Y182206D02*Y181706D01*
Y182206D02*X10600Y182706D01*
X12100D01*
X10100Y179206D02*X10600Y179706D01*
Y183906D02*X11600D01*
X10600D02*X10100Y184406D01*
Y185406D02*Y184406D01*
Y185406D02*X10600Y185906D01*
X11600D01*
X12100Y185406D02*X11600Y185906D01*
X12100Y185406D02*Y184406D01*
X11600Y183906D02*X12100Y184406D01*
X8100Y187606D02*X11600D01*
X12100Y188106D01*
X9600D02*Y187106D01*
X12100Y191106D02*Y189606D01*
X11600Y189106D02*X12100Y189606D01*
X10600Y189106D02*X11600D01*
X10600D02*X10100Y189606D01*
Y190606D02*Y189606D01*
Y190606D02*X10600Y191106D01*
X11100D02*Y189106D01*
X10600Y191106D02*X11100D01*
X8100Y196106D02*Y194106D01*
Y195106D02*X12100D01*
X10600Y197806D02*X12100D01*
X10600D02*X10100Y198306D01*
Y199306D02*Y198306D01*
Y197306D02*X10600Y197806D01*
X10100Y202006D02*X10600Y202506D01*
X10100Y202006D02*Y201006D01*
X10600Y200506D02*X10100Y201006D01*
X10600Y200506D02*X11600D01*
X12100Y201006D01*
X10100Y202506D02*X11600D01*
X12100Y203006D01*
Y202006D02*Y201006D01*
Y202006D02*X11600Y202506D01*
X10600Y204706D02*X12100D01*
X10600D02*X10100Y205206D01*
Y205706D02*Y205206D01*
Y205706D02*X10600Y206206D01*
X12100D01*
X10100Y204206D02*X10600Y204706D01*
X12100Y209406D02*Y207906D01*
Y209406D02*X11600Y209906D01*
X11100Y209406D02*X11600Y209906D01*
X11100Y209406D02*Y207906D01*
X10600Y207406D02*X11100Y207906D01*
X10600Y207406D02*X10100Y207906D01*
Y209406D02*Y207906D01*
Y209406D02*X10600Y209906D01*
X11600Y207406D02*X12100Y207906D01*
X10600Y211606D02*X12100D01*
X10600D02*X10100Y212106D01*
Y212606D02*Y212106D01*
Y212606D02*X10600Y213106D01*
X12100D01*
X10600D02*X10100Y213606D01*
Y214106D02*Y213606D01*
Y214106D02*X10600Y214606D01*
X12100D01*
X10100Y211106D02*X10600Y211606D01*
X9100Y215806D02*X9200D01*
X10600D02*X12100D01*
X8100Y217306D02*X11600D01*
X12100Y217806D01*
X9600D02*Y216806D01*
X8100Y219306D02*X11600D01*
X12100Y219806D01*
X9600D02*Y218806D01*
X12100Y222806D02*Y221306D01*
X11600Y220806D02*X12100Y221306D01*
X10600Y220806D02*X11600D01*
X10600D02*X10100Y221306D01*
Y222306D02*Y221306D01*
Y222306D02*X10600Y222806D01*
X11100D02*Y220806D01*
X10600Y222806D02*X11100D01*
X10600Y224506D02*X12100D01*
X10600D02*X10100Y225006D01*
Y226006D02*Y225006D01*
Y224006D02*X10600Y224506D01*
X19360Y196506D02*X23200D01*
Y198426D02*Y196506D01*
X20320Y199578D02*X20416D01*
X21760D02*X23200D01*
X21280Y202458D02*Y201018D01*
X21760Y200538D02*X21280Y201018D01*
X21760Y200538D02*X22720D01*
X23200Y201018D01*
Y202458D02*Y201018D01*
Y205530D02*Y204090D01*
X22720Y203610D02*X23200Y204090D01*
X21760Y203610D02*X22720D01*
X21760D02*X21280Y204090D01*
Y205050D02*Y204090D01*
Y205050D02*X21760Y205530D01*
X22240D02*Y203610D01*
X21760Y205530D02*X22240D01*
X21760Y207162D02*X23200D01*
X21760D02*X21280Y207642D01*
Y208122D02*Y207642D01*
Y208122D02*X21760Y208602D01*
X23200D01*
X21280Y206682D02*X21760Y207162D01*
X21280Y211674D02*Y210234D01*
X21760Y209754D02*X21280Y210234D01*
X21760Y209754D02*X22720D01*
X23200Y210234D01*
Y211674D02*Y210234D01*
Y214746D02*Y213306D01*
X22720Y212826D02*X23200Y213306D01*
X21760Y212826D02*X22720D01*
X21760D02*X21280Y213306D01*
Y214266D02*Y213306D01*
Y214266D02*X21760Y214746D01*
X22240D02*Y212826D01*
X21760Y214746D02*X22240D01*
X21280Y219546D02*Y218106D01*
X21760Y217626D02*X21280Y218106D01*
X21760Y217626D02*X22720D01*
X23200Y218106D01*
Y219546D02*Y218106D01*
X21280Y222618D02*Y221178D01*
X21760Y220698D02*X21280Y221178D01*
X21760Y220698D02*X22720D01*
X23200Y221178D01*
Y222618D02*Y221178D01*
X21280Y225690D02*Y223770D01*
X19360Y226842D02*X23200D01*
X22720D02*X23200Y227322D01*
Y228282D02*Y227322D01*
Y228282D02*X22720Y228762D01*
X21760D02*X22720D01*
X21280Y228282D02*X21760Y228762D01*
X21280Y228282D02*Y227322D01*
X21760Y226842D02*X21280Y227322D01*
Y229914D02*X22720D01*
X23200Y230394D01*
X21280Y231834D02*X24160D01*
X24640Y231354D02*X24160Y231834D01*
X24640Y231354D02*Y230394D01*
X24160Y229914D02*X24640Y230394D01*
X23200Y231354D02*Y230394D01*
Y231354D02*X22720Y231834D01*
X21280Y234906D02*Y232986D01*
X23200Y237978D02*Y236538D01*
Y237978D02*X22720Y238458D01*
X22240Y237978D02*X22720Y238458D01*
X22240Y237978D02*Y236538D01*
X21760Y236058D02*X22240Y236538D01*
X21760Y236058D02*X21280Y236538D01*
Y237978D02*Y236538D01*
Y237978D02*X21760Y238458D01*
X22720Y236058D02*X23200Y236538D01*
X21280Y241050D02*X21760Y241530D01*
X21280Y241050D02*Y240090D01*
X21760Y239610D02*X21280Y240090D01*
X21760Y239610D02*X22720D01*
X23200Y240090D01*
X21280Y241530D02*X22720D01*
X23200Y242010D01*
Y241050D02*Y240090D01*
Y241050D02*X22720Y241530D01*
X14900Y202106D02*X14100Y202906D01*
X18100D01*
Y203606D02*Y202106D01*
X14600Y204806D02*X14100Y205306D01*
Y206806D02*Y205306D01*
Y206806D02*X14600Y207306D01*
X15600D01*
X18100Y204806D02*X15600Y207306D01*
X18100D02*Y204806D01*
X17600Y208506D02*X14600Y211506D01*
X17600Y212706D02*X18100Y213206D01*
X14600Y212706D02*X17600D01*
X14600D02*X14100Y213206D01*
Y214206D02*Y213206D01*
Y214206D02*X14600Y214706D01*
X17600D01*
X18100Y214206D02*X17600Y214706D01*
X18100Y214206D02*Y213206D01*
X17100Y212706D02*X15100Y214706D01*
X14100Y217906D02*Y215906D01*
X16100D01*
X15600Y216406D01*
Y217406D02*Y216406D01*
Y217406D02*X16100Y217906D01*
X17600D01*
X18100Y217406D02*X17600Y217906D01*
X18100Y217406D02*Y216406D01*
X17600Y215906D02*X18100Y216406D01*
X17600Y219106D02*X14600Y222106D01*
Y223306D02*X14100Y223806D01*
Y225306D02*Y223806D01*
Y225306D02*X14600Y225806D01*
X15600D01*
X18100Y223306D02*X15600Y225806D01*
X18100D02*Y223306D01*
X17600Y227006D02*X18100Y227506D01*
X14600Y227006D02*X17600D01*
X14600D02*X14100Y227506D01*
Y228506D02*Y227506D01*
Y228506D02*X14600Y229006D01*
X17600D01*
X18100Y228506D02*X17600Y229006D01*
X18100Y228506D02*Y227506D01*
X17100Y227006D02*X15100Y229006D01*
X14900Y230206D02*X14100Y231006D01*
X18100D01*
Y231706D02*Y230206D01*
X16600Y232906D02*X14100Y234906D01*
X16600Y235406D02*Y232906D01*
X14100Y234906D02*X18100D01*
X27400Y162806D02*X29200D01*
X29800Y163406D01*
Y164006D02*Y163406D01*
Y164006D02*X29200Y164606D01*
X27400D02*X29200D01*
X29800Y165206D01*
Y165806D02*Y165206D01*
Y165806D02*X29200Y166406D01*
X27400D02*X29200D01*
X27400Y167846D02*X29200D01*
X29800Y168446D01*
Y169046D02*Y168446D01*
Y169046D02*X29200Y169646D01*
X27400D02*X29200D01*
X29800Y170246D01*
Y170846D02*Y170246D01*
Y170846D02*X29200Y171446D01*
X27400D02*X29200D01*
X27400Y172886D02*X29200D01*
X29800Y173486D01*
Y174086D02*Y173486D01*
Y174086D02*X29200Y174686D01*
X27400D02*X29200D01*
X29800Y175286D01*
Y175886D02*Y175286D01*
Y175886D02*X29200Y176486D01*
X27400D02*X29200D01*
X29800Y178526D02*Y177926D01*
X26200Y180566D02*X26320D01*
X28000D02*X31000D01*
X31600Y179966D02*X31000Y180566D01*
X26200Y181766D02*X26320D01*
X28000D02*X29800D01*
X27400Y184766D02*X28000Y185366D01*
X27400Y184766D02*Y183566D01*
X28000Y182966D02*X27400Y183566D01*
X28000Y182966D02*X29200D01*
X29800Y183566D01*
Y184766D02*Y183566D01*
Y184766D02*X29200Y185366D01*
X31000Y182966D02*X31600Y183566D01*
Y184766D02*Y183566D01*
Y184766D02*X31000Y185366D01*
X27400D02*X31000D01*
X27400Y188606D02*X28000Y189206D01*
X27400Y188606D02*Y187406D01*
X28000Y186806D02*X27400Y187406D01*
X28000Y186806D02*X29200D01*
X29800Y187406D01*
Y188606D02*Y187406D01*
Y188606D02*X29200Y189206D01*
X31000Y186806D02*X31600Y187406D01*
Y188606D02*Y187406D01*
Y188606D02*X31000Y189206D01*
X27400D02*X31000D01*
X29800Y193046D02*Y191246D01*
X29200Y190646D02*X29800Y191246D01*
X28000Y190646D02*X29200D01*
X28000D02*X27400Y191246D01*
Y192446D02*Y191246D01*
Y192446D02*X28000Y193046D01*
X28600D02*Y190646D01*
X28000Y193046D02*X28600D01*
X28000Y195086D02*X29800D01*
X28000D02*X27400Y195686D01*
Y196886D02*Y195686D01*
Y194486D02*X28000Y195086D01*
X26200Y198926D02*X26320D01*
X28000D02*X31000D01*
X31600Y198326D02*X31000Y198926D01*
X27400Y200126D02*X29200D01*
X29800Y200726D01*
Y201926D02*Y200726D01*
Y201926D02*X29200Y202526D01*
X27400D02*X29200D01*
X26200Y203966D02*X26320D01*
X28000D02*X29800D01*
X27400Y207566D02*Y205766D01*
X28000Y205166D02*X27400Y205766D01*
X28000Y205166D02*X29200D01*
X29800Y205766D01*
Y207566D02*Y205766D01*
Y211406D02*Y209606D01*
X29200Y209006D02*X29800Y209606D01*
X28000Y209006D02*X29200D01*
X28000D02*X27400Y209606D01*
Y210806D02*Y209606D01*
Y210806D02*X28000Y211406D01*
X28600D02*Y209006D01*
X28000Y211406D02*X28600D01*
X29800Y213446D02*Y212846D01*
X26200Y214886D02*X26320D01*
X28000D02*X29800D01*
X28000Y216686D02*X29800D01*
X28000D02*X27400Y217286D01*
Y217886D02*Y217286D01*
Y217886D02*X28000Y218486D01*
X29800D01*
X27400Y216086D02*X28000Y216686D01*
X25600Y220526D02*X29800D01*
X25600D02*X25000Y221126D01*
Y221726D02*Y221126D01*
X27400D02*Y219926D01*
X28000Y222926D02*X29200D01*
X28000D02*X27400Y223526D01*
Y224726D02*Y223526D01*
Y224726D02*X28000Y225326D01*
X29200D01*
X29800Y224726D02*X29200Y225326D01*
X29800Y224726D02*Y223526D01*
X29200Y222926D02*X29800Y223526D01*
G54D112*X19803Y113229D02*Y93229D01*
X9803D02*X19803D01*
X9803Y113229D02*Y93229D01*
Y113229D02*X19803D01*
X14803Y123229D02*Y113229D01*
Y93229D02*Y83229D01*
G54D113*X39803Y178229D02*Y78229D01*
X79803D01*
Y178229D01*
X39803D02*X54803D01*
X64803D02*X79803D01*
X54803D02*G75*G03X64803Y178229I5000J0D01*G01*
X8898Y68977D02*Y13859D01*
X79764D01*
Y68977D01*
X8898D01*
X64803Y217229D02*X74803D01*
X44803D02*X54803D01*
X64803D02*X54803Y212229D01*
Y222229D02*Y212229D01*
Y222229D02*X64803Y217229D01*
Y222229D02*Y212229D01*
Y227229D02*X74803D01*
X44803D02*X54803D01*
X64803D02*X54803Y222229D01*
Y232229D02*Y222229D01*
Y232229D02*X64803Y227229D01*
Y232229D02*Y222229D01*
Y237229D02*X74803D01*
X44803D02*X54803D01*
X64803D02*X54803Y232229D01*
Y242229D02*Y232229D01*
Y242229D02*X64803Y237229D01*
Y242229D02*Y232229D01*
X44803Y203229D02*X49803D01*
X59803D02*X64803D01*
X49803Y204829D02*X59803D01*
Y201629D01*
X49803D01*
Y204829D01*
G54D112*X44803Y198229D02*X64803D01*
Y188229D01*
X44803D01*
Y198229D01*
X34803Y193229D02*X44803D01*
X64803D02*X74803D01*
G54D113*X82453Y36879D02*X90453D01*
X82453D02*Y18879D01*
X90453D01*
Y36879D02*Y18879D01*
X95000Y246006D02*Y9806D01*
Y246006D02*X155000D01*
X95000Y9806D02*X155000D01*
X129200Y244286D02*Y186286D01*
Y244286D02*X153200D01*
Y186286D01*
X129200D02*X153200D01*
G54D111*X35303Y223229D02*Y219229D01*
X36603Y223229D02*X37303Y222529D01*
Y219929D01*
X36603Y219229D02*X37303Y219929D01*
X34803Y219229D02*X36603D01*
X34803Y223229D02*X36603D01*
X38503Y222729D02*X39003Y223229D01*
X40003D01*
X40503Y222729D01*
X40003Y219229D02*X40503Y219729D01*
X39003Y219229D02*X40003D01*
X38503Y219729D02*X39003Y219229D01*
Y221429D02*X40003D01*
X40503Y222729D02*Y221929D01*
Y220929D02*Y219729D01*
Y220929D02*X40003Y221429D01*
X40503Y221929D02*X40003Y221429D01*
X35303Y233229D02*Y229229D01*
X36603Y233229D02*X37303Y232529D01*
Y229929D01*
X36603Y229229D02*X37303Y229929D01*
X34803Y229229D02*X36603D01*
X34803Y233229D02*X36603D01*
X38503Y232729D02*X39003Y233229D01*
X40503D01*
X41003Y232729D01*
Y231729D01*
X38503Y229229D02*X41003Y231729D01*
X38503Y229229D02*X41003D01*
X35303Y243229D02*Y239229D01*
X36603Y243229D02*X37303Y242529D01*
Y239929D01*
X36603Y239229D02*X37303Y239929D01*
X34803Y239229D02*X36603D01*
X34803Y243229D02*X36603D01*
X38503Y242429D02*X39303Y243229D01*
Y239229D01*
X38503D02*X40003D01*
X35303Y178229D02*X38803D01*
X35303D02*X34803Y177729D01*
Y176729D01*
X35303Y176229D01*
X38803D01*
X38003Y175029D02*X38803Y174229D01*
X34803D02*X38803D01*
X34803Y175029D02*Y173529D01*
X75503Y199829D02*X76803D01*
X74803Y200529D02*X75503Y199829D01*
X74803Y203129D02*Y200529D01*
Y203129D02*X75503Y203829D01*
X76803D01*
X78003Y203029D02*X78803Y203829D01*
Y199829D01*
X78003D02*X79503D01*
X18266Y76029D02*X20266D01*
X20766Y75529D01*
Y74529D01*
X20266Y74029D02*X20766Y74529D01*
X18766Y74029D02*X20266D01*
X18766Y76029D02*Y72029D01*
X19566Y74029D02*X20766Y72029D01*
X21966Y76029D02*Y72029D01*
Y76029D02*X23966D01*
X21966Y74229D02*X23466D01*
X25166Y75229D02*X25966Y76029D01*
Y72029D01*
X25166D02*X26666D01*
X20403Y90329D02*X22403D01*
X22903Y89829D01*
Y88829D01*
X22403Y88329D02*X22903Y88829D01*
X20903Y88329D02*X22403D01*
X20903Y90329D02*Y86329D01*
X21703Y88329D02*X22903Y86329D01*
X24103Y89829D02*X24603Y90329D01*
X26103D01*
X26603Y89829D01*
Y88829D01*
X24103Y86329D02*X26603Y88829D01*
X24103Y86329D02*X26603D01*
X80603Y194929D02*X82603D01*
X83103Y194429D01*
Y193429D01*
X82603Y192929D02*X83103Y193429D01*
X81103Y192929D02*X82603D01*
X81103Y194929D02*Y190929D01*
X81903Y192929D02*X83103Y190929D01*
X84303Y194129D02*X85103Y194929D01*
Y190929D01*
X84303D02*X85803D01*
X91453Y32179D02*Y30879D01*
X92153Y32879D02*X91453Y32179D01*
X92153Y32879D02*X94753D01*
X95453Y32179D01*
Y30879D01*
X91953Y29679D02*X92953D01*
X93453Y29179D01*
Y28179D01*
X92953Y27679D01*
X91953D02*X92953D01*
X91453Y28179D02*X91953Y27679D01*
X91453Y29179D02*Y28179D01*
X91953Y29679D02*X91453Y29179D01*
Y25979D02*X92953D01*
X93453Y25479D01*
Y24979D01*
X92953Y24479D01*
X91453D02*X92953D01*
X93453Y26479D02*X92953Y25979D01*
X91453Y22779D02*X92953D01*
X93453Y22279D01*
Y21779D01*
X92953Y21279D01*
X91453D02*X92953D01*
X93453Y23279D02*X92953Y22779D01*
X94953Y20079D02*X95453Y19579D01*
Y18079D01*
X94953Y17579D01*
X93953D02*X94953D01*
X91453Y20079D02*X93953Y17579D01*
X91453Y20079D02*Y17579D01*
X87500Y57506D02*X91500D01*
X89500D02*X87500Y59506D01*
X89500Y57506D02*X91500Y59506D01*
X89300Y62206D02*Y60706D01*
X91500Y62706D02*Y60706D01*
X87500D02*X91500D01*
X87500Y62706D02*Y60706D01*
Y63906D02*X89500Y64906D01*
X87500Y65906D01*
X89500Y64906D02*X91500D01*
X87500Y67606D02*X91500D01*
X87500Y69106D02*Y67106D01*
Y69106D02*X88000Y69606D01*
X89000D01*
X89500Y69106D02*X89000Y69606D01*
X89500Y69106D02*Y67606D01*
X88500Y70806D02*X91500D01*
X88500D02*X87500Y71506D01*
Y72606D02*Y71506D01*
Y72606D02*X88500Y73306D01*
X91500D01*
X89500D02*Y70806D01*
X87500Y75006D02*X91500D01*
X87500Y76306D02*X88200Y77006D01*
X90800D01*
X91500Y76306D02*X90800Y77006D01*
X91500Y76306D02*Y74506D01*
X87500Y76306D02*Y74506D01*
X128200Y192286D02*Y190986D01*
X127500Y190286D02*X128200Y190986D01*
X124900Y190286D02*X127500D01*
X124900D02*X124200Y190986D01*
Y192286D02*Y190986D01*
X126700Y193486D02*X127700D01*
X126700D02*X126200Y193986D01*
Y194986D02*Y193986D01*
Y194986D02*X126700Y195486D01*
X127700D01*
X128200Y194986D02*X127700Y195486D01*
X128200Y194986D02*Y193986D01*
X127700Y193486D02*X128200Y193986D01*
X126700Y197186D02*X128200D01*
X126700D02*X126200Y197686D01*
Y198186D02*Y197686D01*
Y198186D02*X126700Y198686D01*
X128200D01*
X126200Y196686D02*X126700Y197186D01*
Y200386D02*X128200D01*
X126700D02*X126200Y200886D01*
Y201386D02*Y200886D01*
Y201386D02*X126700Y201886D01*
X128200D01*
X126200Y199886D02*X126700Y200386D01*
X125000Y203086D02*X124200Y203886D01*
X128200D01*
Y204586D02*Y203086D01*
M02*
