G04 start of page 13 for group -4079 idx -4079 *
G04 Title: (unknown), topsilk *
G04 Creator: pcb 20110918 *
G04 CreationDate: Sun 20 Apr 2014 23:03:54 GMT UTC *
G04 For: ksarkies *
G04 Format: Gerber/RS-274X *
G04 PCB-Dimensions: 157480 255906 *
G04 PCB-Coordinate-Origin: lower left *
%MOIN*%
%FSLAX25Y25*%
%LNTOPSILK*%
%ADD120C,0.0200*%
%ADD119C,0.0100*%
%ADD118C,0.0060*%
%ADD117C,0.0001*%
G54D117*G36*
X2686Y148583D02*Y151160D01*
X2718Y151243D01*
X2794Y151290D01*
X3033Y151339D01*
X3255Y151383D01*
X5387Y151774D01*
X5475Y151821D01*
X5533Y151904D01*
X5577Y152007D01*
X5848Y152797D01*
X6206Y153547D01*
Y153553D01*
X6244Y153640D01*
X6258Y153737D01*
X6227Y153835D01*
X5008Y155608D01*
X4883Y155799D01*
X4747Y156000D01*
X4722Y156086D01*
X4758Y156168D01*
X5088Y156499D01*
X5588Y157003D01*
X5751Y157161D01*
X6249Y157660D01*
X6406Y157822D01*
X6580Y157990D01*
X6665Y158029D01*
X6754Y158007D01*
X6955Y157871D01*
X7145Y157742D01*
X8881Y156553D01*
X8973Y156521D01*
X9070Y156536D01*
X9169Y156581D01*
X10775Y157264D01*
X10866Y157301D01*
X10944Y157364D01*
X10991Y157454D01*
X11372Y159493D01*
X11415Y159717D01*
X11458Y159960D01*
X11505Y160035D01*
X11588Y160064D01*
X14165D01*
X14254Y160035D01*
X14301Y159960D01*
X14344Y159717D01*
X14387Y159493D01*
X14756Y157514D01*
X14804Y157426D01*
X14887Y157372D01*
X14947Y157344D01*
X14958D01*
X16731Y156629D01*
X16743Y156624D01*
X16786Y156607D01*
X16887Y156590D01*
X16981Y156618D01*
X18613Y157747D01*
X18804Y157871D01*
X19005Y158012D01*
X19091Y158031D01*
X19173Y157990D01*
X19352Y157822D01*
X19509Y157660D01*
X20827Y156342D01*
X20995Y156168D01*
X21036Y156086D01*
X21018Y156000D01*
X20876Y155799D01*
X20752Y155608D01*
X19655Y154014D01*
X19626Y153915D01*
X19645Y153818D01*
X19829Y153487D01*
X19938Y153293D01*
X20116Y152946D01*
X20122Y152861D01*
X20062Y152799D01*
X19705Y152653D01*
X19498Y152565D01*
X16140Y151182D01*
X15934Y151094D01*
X15701Y150997D01*
X15606Y150993D01*
X15533Y151046D01*
X15402Y151269D01*
X15294Y151410D01*
X14848Y151946D01*
X14284Y152361D01*
X13625Y152628D01*
X12895Y152722D01*
X12320Y152664D01*
X11786Y152499D01*
X11301Y152236D01*
X10879Y151887D01*
X10530Y151467D01*
X10266Y150983D01*
X10101Y150449D01*
X10043Y149875D01*
X10101Y149300D01*
X10266Y148765D01*
X10530Y148282D01*
X10879Y147860D01*
X11301Y147512D01*
X11786Y147250D01*
X12320Y147085D01*
X12895Y147026D01*
X13625Y147119D01*
X14284Y147386D01*
X14848Y147800D01*
X15294Y148339D01*
X15402Y148475D01*
X15533Y148697D01*
X15606Y148751D01*
X15701Y148746D01*
X15934Y148649D01*
X16140Y148561D01*
X19498Y147178D01*
X19705Y147092D01*
X20062Y146944D01*
X20122Y146883D01*
X20116Y146799D01*
X19938Y146457D01*
X19829Y146256D01*
X19645Y145925D01*
X19626Y145826D01*
X19655Y145729D01*
X20752Y144135D01*
X20876Y143950D01*
X21018Y143744D01*
X21036Y143657D01*
X20995Y143575D01*
X20827Y143401D01*
X20665Y143244D01*
X20166Y142746D01*
X20008Y142583D01*
X19509Y142083D01*
X19352Y141921D01*
X19173Y141753D01*
X19091Y141714D01*
X19005Y141736D01*
X18804Y141872D01*
X18613Y142003D01*
X16981Y143125D01*
X16887Y143153D01*
X16786Y143136D01*
X16726Y143114D01*
X14952Y142404D01*
X14887Y142371D01*
X14804Y142317D01*
X14756Y142231D01*
X14387Y140250D01*
X14344Y140028D01*
X14301Y139789D01*
X14251Y139710D01*
X14165Y139681D01*
X11588D01*
X11505Y139710D01*
X11458Y139789D01*
X11409Y140028D01*
X11372Y140250D01*
X10991Y142290D01*
X10944Y142379D01*
X10861Y142442D01*
X10775Y142479D01*
X9169Y143168D01*
X9070Y143207D01*
X8973Y143224D01*
X8881Y143196D01*
X7140Y142003D01*
X6955Y141872D01*
X6754Y141736D01*
X6665Y141714D01*
X6580Y141753D01*
X6406Y141921D01*
X6249Y142083D01*
X4758Y143575D01*
X4722Y143657D01*
X4741Y143744D01*
X4877Y143950D01*
X5008Y144135D01*
X6227Y145908D01*
X6256Y146006D01*
X6238Y146104D01*
X6206Y146190D01*
X6201Y146201D01*
X5847Y146947D01*
X5572Y147737D01*
X5533Y147840D01*
X5475Y147924D01*
X5387Y147969D01*
X3255Y148367D01*
X3033Y148404D01*
X2794Y148453D01*
X2718Y148500D01*
X2686Y148583D01*
G37*
G54D118*X2700Y172506D02*Y170506D01*
Y172506D02*X3200Y173006D01*
X4200D01*
X4700Y172506D02*X4200Y173006D01*
X4700Y172506D02*Y171006D01*
X2700D02*X6700D01*
X4700Y171806D02*X6700Y173006D01*
Y176206D02*Y174706D01*
X6200Y174206D02*X6700Y174706D01*
X5200Y174206D02*X6200D01*
X5200D02*X4700Y174706D01*
Y175706D02*Y174706D01*
Y175706D02*X5200Y176206D01*
X5700D02*Y174206D01*
X5200Y176206D02*X5700D01*
X5200Y177906D02*X6700D01*
X5200D02*X4700Y178406D01*
Y178906D02*Y178406D01*
Y178906D02*X5200Y179406D01*
X6700D01*
X5200D02*X4700Y179906D01*
Y180406D02*Y179906D01*
Y180406D02*X5200Y180906D01*
X6700D01*
X4700Y177406D02*X5200Y177906D01*
Y182106D02*X6200D01*
X5200D02*X4700Y182606D01*
Y183606D02*Y182606D01*
Y183606D02*X5200Y184106D01*
X6200D01*
X6700Y183606D02*X6200Y184106D01*
X6700Y183606D02*Y182606D01*
X6200Y182106D02*X6700Y182606D01*
X2700Y185806D02*X6200D01*
X6700Y186306D01*
X4200D02*Y185306D01*
X6700Y189306D02*Y187806D01*
X6200Y187306D02*X6700Y187806D01*
X5200Y187306D02*X6200D01*
X5200D02*X4700Y187806D01*
Y188806D02*Y187806D01*
Y188806D02*X5200Y189306D01*
X5700D02*Y187306D01*
X5200Y189306D02*X5700D01*
X2700Y192806D02*X6700D01*
X2700Y194306D02*Y192306D01*
Y194306D02*X3200Y194806D01*
X4200D01*
X4700Y194306D02*X4200Y194806D01*
X4700Y194306D02*Y192806D01*
X5200Y196006D02*X6200D01*
X5200D02*X4700Y196506D01*
Y197506D02*Y196506D01*
Y197506D02*X5200Y198006D01*
X6200D01*
X6700Y197506D02*X6200Y198006D01*
X6700Y197506D02*Y196506D01*
X6200Y196006D02*X6700Y196506D01*
X4700Y199206D02*X6200D01*
X6700Y199706D01*
Y200206D02*Y199706D01*
Y200206D02*X6200Y200706D01*
X4700D02*X6200D01*
X6700Y201206D01*
Y201706D02*Y201206D01*
Y201706D02*X6200Y202206D01*
X4700D02*X6200D01*
X6700Y205406D02*Y203906D01*
X6200Y203406D02*X6700Y203906D01*
X5200Y203406D02*X6200D01*
X5200D02*X4700Y203906D01*
Y204906D02*Y203906D01*
Y204906D02*X5200Y205406D01*
X5700D02*Y203406D01*
X5200Y205406D02*X5700D01*
X5200Y207106D02*X6700D01*
X5200D02*X4700Y207606D01*
Y208606D02*Y207606D01*
Y206606D02*X5200Y207106D01*
X2700Y213606D02*X3200Y214106D01*
X2700Y213606D02*Y212106D01*
X3200Y211606D02*X2700Y212106D01*
X3200Y211606D02*X4200D01*
X4700Y212106D01*
Y213606D02*Y212106D01*
Y213606D02*X5200Y214106D01*
X6200D01*
X6700Y213606D02*X6200Y214106D01*
X6700Y213606D02*Y212106D01*
X6200Y211606D02*X6700Y212106D01*
X4700Y215306D02*X6200D01*
X6700Y215806D01*
Y216306D02*Y215806D01*
Y216306D02*X6200Y216806D01*
X4700D02*X6200D01*
X6700Y217306D01*
Y217806D02*Y217306D01*
Y217806D02*X6200Y218306D01*
X4700D02*X6200D01*
X3700Y219506D02*X3800D01*
X5200D02*X6700D01*
X2700Y221006D02*X6200D01*
X6700Y221506D01*
X4200D02*Y220506D01*
X4700Y224506D02*Y223006D01*
X5200Y222506D02*X4700Y223006D01*
X5200Y222506D02*X6200D01*
X6700Y223006D01*
Y224506D02*Y223006D01*
X2700Y225706D02*X6700D01*
X5200D02*X4700Y226206D01*
Y227206D02*Y226206D01*
Y227206D02*X5200Y227706D01*
X6700D01*
X9300Y174306D02*Y172306D01*
Y174306D02*X9800Y174806D01*
X10800D01*
X11300Y174306D02*X10800Y174806D01*
X11300Y174306D02*Y172806D01*
X9300D02*X13300D01*
X11300Y173606D02*X13300Y174806D01*
Y178006D02*Y176506D01*
X12800Y176006D02*X13300Y176506D01*
X11800Y176006D02*X12800D01*
X11800D02*X11300Y176506D01*
Y177506D02*Y176506D01*
Y177506D02*X11800Y178006D01*
X12300D02*Y176006D01*
X11800Y178006D02*X12300D01*
X11800Y179706D02*X13300D01*
X11800D02*X11300Y180206D01*
Y180706D02*Y180206D01*
Y180706D02*X11800Y181206D01*
X13300D01*
X11800D02*X11300Y181706D01*
Y182206D02*Y181706D01*
Y182206D02*X11800Y182706D01*
X13300D01*
X11300Y179206D02*X11800Y179706D01*
Y183906D02*X12800D01*
X11800D02*X11300Y184406D01*
Y185406D02*Y184406D01*
Y185406D02*X11800Y185906D01*
X12800D01*
X13300Y185406D02*X12800Y185906D01*
X13300Y185406D02*Y184406D01*
X12800Y183906D02*X13300Y184406D01*
X9300Y187606D02*X12800D01*
X13300Y188106D01*
X10800D02*Y187106D01*
X13300Y191106D02*Y189606D01*
X12800Y189106D02*X13300Y189606D01*
X11800Y189106D02*X12800D01*
X11800D02*X11300Y189606D01*
Y190606D02*Y189606D01*
Y190606D02*X11800Y191106D01*
X12300D02*Y189106D01*
X11800Y191106D02*X12300D01*
X9300Y196106D02*Y194106D01*
Y195106D02*X13300D01*
X11800Y197806D02*X13300D01*
X11800D02*X11300Y198306D01*
Y199306D02*Y198306D01*
Y197306D02*X11800Y197806D01*
X11300Y202006D02*X11800Y202506D01*
X11300Y202006D02*Y201006D01*
X11800Y200506D02*X11300Y201006D01*
X11800Y200506D02*X12800D01*
X13300Y201006D01*
X11300Y202506D02*X12800D01*
X13300Y203006D01*
Y202006D02*Y201006D01*
Y202006D02*X12800Y202506D01*
X11800Y204706D02*X13300D01*
X11800D02*X11300Y205206D01*
Y205706D02*Y205206D01*
Y205706D02*X11800Y206206D01*
X13300D01*
X11300Y204206D02*X11800Y204706D01*
X13300Y209406D02*Y207906D01*
Y209406D02*X12800Y209906D01*
X12300Y209406D02*X12800Y209906D01*
X12300Y209406D02*Y207906D01*
X11800Y207406D02*X12300Y207906D01*
X11800Y207406D02*X11300Y207906D01*
Y209406D02*Y207906D01*
Y209406D02*X11800Y209906D01*
X12800Y207406D02*X13300Y207906D01*
X11800Y211606D02*X13300D01*
X11800D02*X11300Y212106D01*
Y212606D02*Y212106D01*
Y212606D02*X11800Y213106D01*
X13300D01*
X11800D02*X11300Y213606D01*
Y214106D02*Y213606D01*
Y214106D02*X11800Y214606D01*
X13300D01*
X11300Y211106D02*X11800Y211606D01*
X10300Y215806D02*X10400D01*
X11800D02*X13300D01*
X9300Y217306D02*X12800D01*
X13300Y217806D01*
X10800D02*Y216806D01*
X9300Y219306D02*X12800D01*
X13300Y219806D01*
X10800D02*Y218806D01*
X13300Y222806D02*Y221306D01*
X12800Y220806D02*X13300Y221306D01*
X11800Y220806D02*X12800D01*
X11800D02*X11300Y221306D01*
Y222306D02*Y221306D01*
Y222306D02*X11800Y222806D01*
X12300D02*Y220806D01*
X11800Y222806D02*X12300D01*
X11800Y224506D02*X13300D01*
X11800D02*X11300Y225006D01*
Y226006D02*Y225006D01*
Y224006D02*X11800Y224506D01*
X16400Y164806D02*X20400D01*
X18400D02*X16400Y166806D01*
X18400Y164806D02*X20400Y166806D01*
Y168506D02*Y168006D01*
X16400Y171506D02*X18400D01*
X20400Y172006D01*
X18400Y173006D01*
X20400Y174006D01*
X18400Y174506D01*
X16400D02*X18400D01*
X20400Y176206D02*Y175706D01*
X16400Y181206D02*X16900Y181706D01*
X16400Y181206D02*Y179706D01*
X16900Y179206D02*X16400Y179706D01*
X16900Y179206D02*X17900D01*
X18400Y179706D01*
Y181206D02*Y179706D01*
Y181206D02*X18900Y181706D01*
X19900D01*
X20400Y181206D02*X19900Y181706D01*
X20400Y181206D02*Y179706D01*
X19900Y179206D02*X20400Y179706D01*
X18400Y184406D02*X18900Y184906D01*
X18400Y184406D02*Y183406D01*
X18900Y182906D02*X18400Y183406D01*
X18900Y182906D02*X19900D01*
X20400Y183406D01*
X18400Y184906D02*X19900D01*
X20400Y185406D01*
Y184406D02*Y183406D01*
Y184406D02*X19900Y184906D01*
X18900Y187106D02*X20400D01*
X18900D02*X18400Y187606D01*
Y188606D02*Y187606D01*
Y186606D02*X18900Y187106D01*
X16400Y189806D02*X20400D01*
X18900D02*X20400Y191306D01*
X18900Y189806D02*X17900Y190806D01*
X17400Y192506D02*X17500D01*
X18900D02*X20400D01*
Y195506D02*Y194006D01*
X19900Y193506D02*X20400Y194006D01*
X18900Y193506D02*X19900D01*
X18900D02*X18400Y194006D01*
Y195006D02*Y194006D01*
Y195006D02*X18900Y195506D01*
X19400D02*Y193506D01*
X18900Y195506D02*X19400D01*
X20400Y198706D02*Y197206D01*
Y198706D02*X19900Y199206D01*
X19400Y198706D02*X19900Y199206D01*
X19400Y198706D02*Y197206D01*
X18900Y196706D02*X19400Y197206D01*
X18900Y196706D02*X18400Y197206D01*
Y198706D02*Y197206D01*
Y198706D02*X18900Y199206D01*
X19900Y196706D02*X20400Y197206D01*
X17500Y203206D02*X17000Y203706D01*
Y205206D02*Y203706D01*
Y205206D02*X17500Y205706D01*
X18500D01*
X21000Y203206D02*X18500Y205706D01*
X21000D02*Y203206D01*
X20500Y206906D02*X21000Y207406D01*
X17500Y206906D02*X20500D01*
X17500D02*X17000Y207406D01*
Y208406D02*Y207406D01*
Y208406D02*X17500Y208906D01*
X20500D01*
X21000Y208406D02*X20500Y208906D01*
X21000Y208406D02*Y207406D01*
X20000Y206906D02*X18000Y208906D01*
X20500Y210106D02*X17500Y213106D01*
X20500Y214306D02*X21000Y214806D01*
X17500Y214306D02*X20500D01*
X17500D02*X17000Y214806D01*
Y215806D02*Y214806D01*
Y215806D02*X17500Y216306D01*
X20500D01*
X21000Y215806D02*X20500Y216306D01*
X21000Y215806D02*Y214806D01*
X20000Y214306D02*X18000Y216306D01*
X19500Y217506D02*X17000Y219506D01*
X19500Y220006D02*Y217506D01*
X17000Y219506D02*X21000D01*
X20500Y221206D02*X17500Y224206D01*
Y225406D02*X17000Y225906D01*
Y227406D02*Y225906D01*
Y227406D02*X17500Y227906D01*
X18500D01*
X21000Y225406D02*X18500Y227906D01*
X21000D02*Y225406D01*
X20500Y229106D02*X21000Y229606D01*
X17500Y229106D02*X20500D01*
X17500D02*X17000Y229606D01*
Y230606D02*Y229606D01*
Y230606D02*X17500Y231106D01*
X20500D01*
X21000Y230606D02*X20500Y231106D01*
X21000Y230606D02*Y229606D01*
X20000Y229106D02*X18000Y231106D01*
X17800Y232306D02*X17000Y233106D01*
X21000D01*
Y233806D02*Y232306D01*
X19500Y235006D02*X17000Y237006D01*
X19500Y237506D02*Y235006D01*
X17000Y237006D02*X21000D01*
X25000Y183706D02*X29000Y184706D01*
X25000Y185706D01*
X29000Y188906D02*Y187406D01*
X28500Y186906D02*X29000Y187406D01*
X27500Y186906D02*X28500D01*
X27500D02*X27000Y187406D01*
Y188406D02*Y187406D01*
Y188406D02*X27500Y188906D01*
X28000D02*Y186906D01*
X27500Y188906D02*X28000D01*
X27500Y190606D02*X29000D01*
X27500D02*X27000Y191106D01*
Y192106D02*Y191106D01*
Y190106D02*X27500Y190606D01*
X29000Y195306D02*Y193806D01*
Y195306D02*X28500Y195806D01*
X28000Y195306D02*X28500Y195806D01*
X28000Y195306D02*Y193806D01*
X27500Y193306D02*X28000Y193806D01*
X27500Y193306D02*X27000Y193806D01*
Y195306D02*Y193806D01*
Y195306D02*X27500Y195806D01*
X28500Y193306D02*X29000Y193806D01*
X26000Y197006D02*X26100D01*
X27500D02*X29000D01*
X27500Y198006D02*X28500D01*
X27500D02*X27000Y198506D01*
Y199506D02*Y198506D01*
Y199506D02*X27500Y200006D01*
X28500D01*
X29000Y199506D02*X28500Y200006D01*
X29000Y199506D02*Y198506D01*
X28500Y198006D02*X29000Y198506D01*
X27500Y201706D02*X29000D01*
X27500D02*X27000Y202206D01*
Y202706D02*Y202206D01*
Y202706D02*X27500Y203206D01*
X29000D01*
X27000Y201206D02*X27500Y201706D01*
X28500Y206206D02*X29000Y206706D01*
X25500Y206206D02*X28500D01*
X25500D02*X25000Y206706D01*
Y207706D02*Y206706D01*
Y207706D02*X25500Y208206D01*
X28500D01*
X29000Y207706D02*X28500Y208206D01*
X29000Y207706D02*Y206706D01*
X28000Y206206D02*X26000Y208206D01*
X29000Y209906D02*Y209406D01*
X28500Y211106D02*X29000Y211606D01*
X25500Y211106D02*X28500D01*
X25500D02*X25000Y211606D01*
Y212606D02*Y211606D01*
Y212606D02*X25500Y213106D01*
X28500D01*
X29000Y212606D02*X28500Y213106D01*
X29000Y212606D02*Y211606D01*
X28000Y211106D02*X26000Y213106D01*
G54D119*X94803Y246329D02*Y10129D01*
Y246329D02*X350803D01*
Y10129D01*
X94803D02*X350803D01*
X64803Y217229D02*X74803D01*
X44803D02*X54803D01*
X64803D02*X54803Y212229D01*
Y222229D02*Y212229D01*
Y222229D02*X64803Y217229D01*
Y222229D02*Y212229D01*
Y227229D02*X74803D01*
X44803D02*X54803D01*
X64803D02*X54803Y222229D01*
Y232229D02*Y222229D01*
Y232229D02*X64803Y227229D01*
Y232229D02*Y222229D01*
Y237229D02*X74803D01*
X44803D02*X54803D01*
X64803D02*X54803Y232229D01*
Y242229D02*Y232229D01*
Y242229D02*X64803Y237229D01*
Y242229D02*Y232229D01*
X128913Y244573D02*Y186573D01*
Y244573D02*X136913D01*
Y186573D01*
X128913D02*X136913D01*
X44803Y203229D02*X49803D01*
X59803D02*X64803D01*
X49803Y204829D02*X59803D01*
Y201629D01*
X49803D01*
Y204829D01*
G54D120*X44803Y198229D02*X64803D01*
Y188229D01*
X44803D01*
Y198229D01*
X34803Y193229D02*X44803D01*
X64803D02*X74803D01*
G54D119*X8898Y68977D02*Y13859D01*
X79764D01*
Y68977D01*
X8898D01*
G54D120*X19803Y113229D02*Y93229D01*
X9803D02*X19803D01*
X9803Y113229D02*Y93229D01*
Y113229D02*X19803D01*
X14803Y123229D02*Y113229D01*
Y93229D02*Y83229D01*
G54D119*X80803Y37229D02*X88803D01*
X80803D02*Y19229D01*
X88803D01*
Y37229D02*Y19229D01*
X39803Y178229D02*Y78229D01*
X79803D01*
Y178229D01*
X39803D02*X54803D01*
X64803D02*X79803D01*
X54803D02*G75*G03X64803Y178229I5000J0D01*G01*
G54D118*X75503Y199829D02*X76803D01*
X74803Y200529D02*X75503Y199829D01*
X74803Y203129D02*Y200529D01*
Y203129D02*X75503Y203829D01*
X76803D01*
X78003Y203029D02*X78803Y203829D01*
Y199829D01*
X78003D02*X79503D01*
X84803Y197229D02*X86803D01*
X87303Y196729D01*
Y195729D01*
X86803Y195229D02*X87303Y195729D01*
X85303Y195229D02*X86803D01*
X85303Y197229D02*Y193229D01*
X86103Y195229D02*X87303Y193229D01*
X88503Y196429D02*X89303Y197229D01*
Y193229D01*
X88503D02*X90003D01*
X35303Y223229D02*Y219229D01*
X36603Y223229D02*X37303Y222529D01*
Y219929D01*
X36603Y219229D02*X37303Y219929D01*
X34803Y219229D02*X36603D01*
X34803Y223229D02*X36603D01*
X38503Y222729D02*X39003Y223229D01*
X40003D01*
X40503Y222729D01*
X40003Y219229D02*X40503Y219729D01*
X39003Y219229D02*X40003D01*
X38503Y219729D02*X39003Y219229D01*
Y221429D02*X40003D01*
X40503Y222729D02*Y221929D01*
Y220929D02*Y219729D01*
Y220929D02*X40003Y221429D01*
X40503Y221929D02*X40003Y221429D01*
X18266Y76029D02*X20266D01*
X20766Y75529D01*
Y74529D01*
X20266Y74029D02*X20766Y74529D01*
X18766Y74029D02*X20266D01*
X18766Y76029D02*Y72029D01*
X19566Y74029D02*X20766Y72029D01*
X21966Y76029D02*Y72029D01*
Y76029D02*X23966D01*
X21966Y74229D02*X23466D01*
X25166Y75229D02*X25966Y76029D01*
Y72029D01*
X25166D02*X26666D01*
X85803Y93229D02*X89803D01*
X87803D02*X85803Y95229D01*
X87803Y93229D02*X89803Y95229D01*
X87603Y97929D02*Y96429D01*
X89803Y98429D02*Y96429D01*
X85803D02*X89803D01*
X85803Y98429D02*Y96429D01*
Y99629D02*X87803Y100629D01*
X85803Y101629D01*
X87803Y100629D02*X89803D01*
X85803Y103329D02*X89803D01*
X85803Y104829D02*Y102829D01*
Y104829D02*X86303Y105329D01*
X87303D01*
X87803Y104829D02*X87303Y105329D01*
X87803Y104829D02*Y103329D01*
X86803Y106529D02*X89803D01*
X86803D02*X85803Y107229D01*
Y108329D02*Y107229D01*
Y108329D02*X86803Y109029D01*
X89803D01*
X87803D02*Y106529D01*
X85803Y110729D02*X89803D01*
X85803Y112029D02*X86503Y112729D01*
X89103D01*
X89803Y112029D02*X89103Y112729D01*
X89803Y112029D02*Y110229D01*
X85803Y112029D02*Y110229D01*
X20403Y90329D02*X22403D01*
X22903Y89829D01*
Y88829D01*
X22403Y88329D02*X22903Y88829D01*
X20903Y88329D02*X22403D01*
X20903Y90329D02*Y86329D01*
X21703Y88329D02*X22903Y86329D01*
X24103Y89829D02*X24603Y90329D01*
X26103D01*
X26603Y89829D01*
Y88829D01*
X24103Y86329D02*X26603Y88829D01*
X24103Y86329D02*X26603D01*
X89803Y32729D02*X93803D01*
Y33229D02*Y31229D01*
X93303Y30729D01*
X92303D02*X93303D01*
X91803Y31229D02*X92303Y30729D01*
X91803Y32729D02*Y31229D01*
X90303Y29529D02*X91303D01*
X91803Y29029D01*
Y28029D01*
X91303Y27529D01*
X90303D02*X91303D01*
X89803Y28029D02*X90303Y27529D01*
X89803Y29029D02*Y28029D01*
X90303Y29529D02*X89803Y29029D01*
X90303Y26329D02*X91803D01*
X90303D02*X89803Y25829D01*
Y25329D01*
X90303Y24829D01*
X91803D01*
X90303D02*X89803Y24329D01*
Y23829D01*
X90303Y23329D01*
X91803D01*
X89803Y21629D02*Y20129D01*
X90303Y22129D02*X89803Y21629D01*
X90303Y22129D02*X91303D01*
X91803Y21629D01*
Y20629D01*
X91303Y20129D01*
X90803Y22129D02*Y20129D01*
X91303D01*
X89803Y18429D02*X91303D01*
X91803Y17929D01*
Y16929D01*
Y18929D02*X91303Y18429D01*
X35303Y233229D02*Y229229D01*
X36603Y233229D02*X37303Y232529D01*
Y229929D01*
X36603Y229229D02*X37303Y229929D01*
X34803Y229229D02*X36603D01*
X34803Y233229D02*X36603D01*
X38503Y232729D02*X39003Y233229D01*
X40503D01*
X41003Y232729D01*
Y231729D01*
X38503Y229229D02*X41003Y231729D01*
X38503Y229229D02*X41003D01*
X35303Y243229D02*Y239229D01*
X36603Y243229D02*X37303Y242529D01*
Y239929D01*
X36603Y239229D02*X37303Y239929D01*
X34803Y239229D02*X36603D01*
X34803Y243229D02*X36603D01*
X38503Y242429D02*X39303Y243229D01*
Y239229D01*
X38503D02*X40003D01*
X35303Y178229D02*X38803D01*
X35303D02*X34803Y177729D01*
Y176729D01*
X35303Y176229D01*
X38803D01*
X38003Y175029D02*X38803Y174229D01*
X34803D02*X38803D01*
X34803Y175029D02*Y173529D01*
X123913Y191073D02*X127913D01*
X123913Y192573D02*Y190573D01*
Y192573D02*X124413Y193073D01*
X125413D01*
X125913Y192573D02*X125413Y193073D01*
X125913Y192573D02*Y191073D01*
X126413Y194773D02*X127913D01*
X126413D02*X125913Y195273D01*
Y196273D02*Y195273D01*
Y194273D02*X126413Y194773D01*
Y197473D02*X127413D01*
X126413D02*X125913Y197973D01*
Y198973D02*Y197973D01*
Y198973D02*X126413Y199473D01*
X127413D01*
X127913Y198973D02*X127413Y199473D01*
X127913Y198973D02*Y197973D01*
X127413Y197473D02*X127913Y197973D01*
X125913Y202173D02*X126413Y202673D01*
X125913Y202173D02*Y201173D01*
X126413Y200673D02*X125913Y201173D01*
X126413Y200673D02*X127413D01*
X127913Y201173D01*
Y202173D02*Y201173D01*
Y202173D02*X127413Y202673D01*
X128913Y200673D02*X129413Y201173D01*
Y202173D02*Y201173D01*
Y202173D02*X128913Y202673D01*
X125913D02*X128913D01*
X126413Y204373D02*X127913D01*
X126413D02*X125913Y204873D01*
Y205873D02*Y204873D01*
Y203873D02*X126413Y204373D01*
X125913Y208573D02*X126413Y209073D01*
X125913Y208573D02*Y207573D01*
X126413Y207073D02*X125913Y207573D01*
X126413Y207073D02*X127413D01*
X127913Y207573D01*
X125913Y209073D02*X127413D01*
X127913Y209573D01*
Y208573D02*Y207573D01*
Y208573D02*X127413Y209073D01*
X126413Y211273D02*X127913D01*
X126413D02*X125913Y211773D01*
Y212273D02*Y211773D01*
Y212273D02*X126413Y212773D01*
X127913D01*
X126413D02*X125913Y213273D01*
Y213773D02*Y213273D01*
Y213773D02*X126413Y214273D01*
X127913D01*
X125913Y210773D02*X126413Y211273D01*
M02*
