G04 start of page 2 for group 0 idx 0 *
G04 Title: (unknown), top *
G04 Creator: pcb 20110918 *
G04 CreationDate: Fri 30 May 2014 02:00:21 GMT UTC *
G04 For: ksarkies *
G04 Format: Gerber/RS-274X *
G04 PCB-Dimensions: 129921 236220 *
G04 PCB-Coordinate-Origin: lower left *
%MOIN*%
%FSLAX25Y25*%
%LNTOP*%
%ADD22C,0.0280*%
%ADD21C,0.0200*%
%ADD20C,0.0300*%
%ADD19C,0.0394*%
%ADD18C,0.0380*%
%ADD17C,0.0680*%
%ADD16C,0.0600*%
%ADD15C,0.0700*%
%ADD14C,0.0001*%
%ADD13C,0.0550*%
%ADD12C,0.0500*%
%ADD11C,0.0100*%
G54D11*X36533Y12462D02*X36941Y12054D01*
X59338Y23171D02*X59038Y22871D01*
G54D12*X13744Y11917D02*X64744Y12217D01*
X11766Y18017D02*X13744Y11917D01*
G54D11*X11766Y18895D02*Y18017D01*
X95044Y79515D02*X48047Y79189D01*
X101444Y85017D02*X95044Y79515D01*
G54D12*X106741Y12494D02*Y174674D01*
G54D11*X101344Y141692D02*X101444Y85017D01*
X92744Y119517D02*X48644Y119417D01*
X101344Y141692D02*X92444Y149592D01*
X92744Y109617D02*X48644Y109517D01*
X92444Y99417D02*X48344Y99317D01*
X92444Y89517D02*X48344Y89417D01*
G54D12*X65341Y12217D02*X106264D01*
G54D13*X35733Y63892D02*X18050Y78912D01*
G54D11*X37644Y107517D02*X18344Y89417D01*
X18944Y101617D03*
X24444Y114517D02*X14894Y114615D01*
G54D13*X36533Y63213D02*Y12462D01*
G54D11*X28738Y35867D02*X19640Y26769D01*
X28836Y46915D02*X28738Y35867D01*
X26345Y41549D02*X19540Y34743D01*
X26328Y44950D02*X26345Y41549D01*
X19641Y26768D02*X19640Y26769D01*
X11640Y110319D02*X11841Y63420D01*
X14894Y114615D02*X11641Y110415D01*
X8718Y61491D02*X26094Y45120D01*
X11766Y26769D02*X6044Y31717D01*
X28842Y47020D02*X11841Y63420D01*
X8575Y114787D02*X8718Y61491D01*
X5744Y107767D02*X6044Y31717D01*
X45094Y135117D02*X37641Y127320D01*
X37644Y107517D01*
X24444Y114517D02*X24342Y115317D01*
X8701Y114917D02*X12544Y118750D01*
X17744Y118817D01*
X6644Y139517D02*X6444Y139421D01*
X17844Y149217D02*X6644Y139517D01*
X24957Y153217D02*X18344Y159017D01*
X6644Y139517D02*X5778Y138817D01*
X5744Y107767D01*
X24957Y153217D02*X24444Y114517D01*
X106454Y173781D02*X106741Y173494D01*
X106454Y174961D02*Y173781D01*
X106741Y174674D02*X106454Y174961D01*
X67741Y219294D02*X105687D01*
X74741Y209794D02*X106187D01*
X73541Y199594D02*X105987D01*
X77441Y189894D02*X106221D01*
X60441Y211994D02*X67741Y219294D01*
X63541Y198594D02*X74741Y209794D01*
X66541Y192594D02*X73541Y199594D01*
X70941Y183394D02*X77441Y189894D01*
X60541Y181294D02*X60441Y211994D01*
X63641Y163794D02*X63541Y198594D01*
X66541Y153694D02*Y192594D01*
X70941Y148094D02*Y183394D01*
X56841Y177594D02*X60541Y181294D01*
X106254Y219507D02*X106041Y219294D01*
X106254Y219861D02*Y219507D01*
X105687Y219294D02*X106254Y219861D01*
X106187Y209794D02*X106254Y209861D01*
X105987Y199594D02*X106254Y199861D01*
X106221Y189894D02*X106254Y189861D01*
X24141Y177794D02*X56841Y177594D01*
X18347Y169569D02*X24141Y177794D01*
X61164Y159417D02*X63641Y163794D01*
X49244Y159317D02*X61164Y159417D01*
X63764Y149717D02*X66541Y153694D01*
X48344Y149617D02*X63764Y149717D01*
X18144Y226517D02*Y206517D01*
X18344Y206717D02*X18144Y206517D01*
X86544Y124278D02*X74744Y135117D01*
X95541Y124320D02*X86544Y124278D01*
X98644Y128417D02*X95541Y124320D01*
X98841Y133620D02*X98644Y128417D01*
X92641Y139269D02*X98841Y133620D01*
X62887Y139195D02*X70941Y148094D01*
X48744Y139117D02*X62887Y139195D01*
X48144Y149417D02*X48344Y149617D01*
X48544Y138917D02*X48744Y139117D01*
X74744Y135117D02*X45122Y135089D01*
G54D14*G36*
X113292Y16723D02*Y9723D01*
X120292D01*
Y16723D01*
X113292D01*
G37*
G54D15*X106792Y13223D03*
G54D16*X11766Y26769D03*
X19640D03*
X11766Y18895D03*
X19640D03*
G54D14*G36*
X8766Y45517D02*Y39517D01*
X14766D01*
Y45517D01*
X8766D01*
G37*
G54D16*X19640Y42517D03*
X11766Y34643D03*
X19640D03*
G54D17*X19338Y66017D03*
G54D14*G36*
X4744Y189854D02*Y183054D01*
X11544D01*
Y189854D01*
X4744D01*
G37*
G36*
X15394Y199204D02*Y193704D01*
X20894D01*
Y199204D01*
X15394D01*
G37*
G54D12*X18144Y226517D03*
Y216517D03*
Y206517D03*
G54D14*G36*
X15344Y172492D02*Y166492D01*
X21344D01*
Y172492D01*
X15344D01*
G37*
G54D16*X18344Y159492D03*
Y149492D03*
Y139492D03*
Y129492D03*
Y119492D03*
Y109492D03*
Y99492D03*
Y89492D03*
Y79492D03*
G54D14*G36*
X55938Y69417D02*Y62617D01*
X62738D01*
Y69417D01*
X55938D01*
G37*
G36*
X89141Y92769D02*Y85769D01*
X96141D01*
Y92769D01*
X89141D01*
G37*
G54D15*X92641Y99269D03*
Y109269D03*
Y119269D03*
Y129269D03*
Y139269D03*
G54D16*X48344Y79492D03*
Y89492D03*
Y99492D03*
Y109492D03*
Y119492D03*
G54D15*X92641Y149269D03*
G54D14*G36*
X103041Y183074D02*Y176074D01*
X110041D01*
Y183074D01*
X103041D01*
G37*
G54D17*X48144Y186454D03*
G54D13*X38144Y196454D03*
G54D16*X48344Y129492D03*
Y139492D03*
Y149492D03*
Y159492D03*
Y169492D03*
G54D15*X106541Y189574D03*
Y199574D03*
Y209574D03*
Y219574D03*
Y229574D03*
G54D14*G36*
X45644Y229017D02*Y224017D01*
X50644D01*
Y229017D01*
X45644D01*
G37*
G36*
Y219017D02*Y214017D01*
X50644D01*
Y219017D01*
X45644D01*
G37*
G36*
Y209017D02*Y204017D01*
X50644D01*
Y209017D01*
X45644D01*
G37*
G54D18*G54D19*G54D18*G54D20*G54D21*G54D22*G54D18*G54D22*G54D18*G54D20*G54D22*G54D18*G54D21*M02*
