G04 start of page 12 for group -4062 idx -4062 *
G04 Title: (unknown), soldermask *
G04 Creator: pcb 20110918 *
G04 CreationDate: Sun 27 Apr 2014 00:04:42 GMT UTC *
G04 For: ksarkies *
G04 Format: Gerber/RS-274X *
G04 PCB-Dimensions: 157480 255906 *
G04 PCB-Coordinate-Origin: lower left *
%MOIN*%
%FSLAX25Y25*%
%LNBOTTOMMASK*%
%ADD109C,0.0610*%
%ADD108C,0.0560*%
%ADD107C,0.0740*%
%ADD106C,0.0660*%
%ADD105C,0.0700*%
%ADD104C,0.0001*%
G54D104*G36*
X114903Y96729D02*Y89729D01*
X121903D01*
Y96729D01*
X114903D01*
G37*
G54D105*X118403Y103229D03*
Y113229D03*
Y123229D03*
Y133229D03*
Y143229D03*
Y153229D03*
G54D106*X14803Y37481D03*
X22677D03*
X14803Y29607D03*
X22677D03*
G54D104*G36*
X11503Y56529D02*Y49929D01*
X18103D01*
Y56529D01*
X11503D01*
G37*
G54D106*X22677Y53229D03*
X14803Y45355D03*
X22677D03*
G54D104*G36*
X11103Y126929D02*Y119529D01*
X18503D01*
Y126929D01*
X11103D01*
G37*
G54D107*X14803Y83229D03*
G54D104*G36*
X72003Y220029D02*Y214429D01*
X77603D01*
Y220029D01*
X72003D01*
G37*
G54D108*X44803Y217229D03*
G54D104*G36*
X72003Y230029D02*Y224429D01*
X77603D01*
Y230029D01*
X72003D01*
G37*
G54D108*X44803Y227229D03*
G54D104*G36*
X72003Y240029D02*Y234429D01*
X77603D01*
Y240029D01*
X72003D01*
G37*
G54D108*X44803Y237229D03*
G54D104*G36*
X41753Y206279D02*Y200179D01*
X47853D01*
Y206279D01*
X41753D01*
G37*
G54D109*X64803Y203229D03*
G54D104*G36*
X31103Y196929D02*Y189529D01*
X38503D01*
Y196929D01*
X31103D01*
G37*
G54D107*X74803Y193229D03*
G54D104*G36*
X41503Y176529D02*Y169929D01*
X48103D01*
Y176529D01*
X41503D01*
G37*
G54D106*X44803Y163229D03*
Y153229D03*
Y143229D03*
Y133229D03*
X74803D03*
Y143229D03*
Y153229D03*
Y163229D03*
Y173229D03*
X44803Y123229D03*
Y113229D03*
Y103229D03*
Y93229D03*
Y83229D03*
X74803D03*
Y93229D03*
Y103229D03*
Y113229D03*
Y123229D03*
G54D104*G36*
X80953Y36379D02*Y29379D01*
X87953D01*
Y36379D01*
X80953D01*
G37*
G54D105*X84453Y22879D03*
G54D104*G36*
X130200Y193506D02*Y186506D01*
X137200D01*
Y193506D01*
X130200D01*
G37*
G54D105*X133700Y200006D03*
Y210006D03*
Y220006D03*
Y230006D03*
Y240006D03*
M02*
