M48
INCH
T97C0.030
T96C0.020
T95C0.038
T94C0.039
T93C0.028
%
T96
X007480Y021723
X004480Y021723
X007480Y022723
X004480Y022723
X007480Y023723
X004480Y023723
T93
X011840Y009323
X011840Y010323
X011840Y011323
X011840Y012323
X011840Y013323
X011840Y014323
X011840Y015323
X004480Y017323
X004480Y016323
X004480Y015323
X004480Y014323
X004480Y013323
X007480Y013323
X007480Y014323
X007480Y015323
X007480Y016323
X007480Y017323
X004480Y012323
X004480Y011323
X004480Y010323
X004480Y009323
X004480Y008323
X007480Y008323
X007480Y009323
X007480Y010323
X007480Y011323
X007480Y012323
X008445Y003288
X008445Y002288
X013370Y019001
X013370Y020001
X013370Y021001
X013370Y022001
X013370Y023001
X013370Y024001
T97
X004480Y020323
X006480Y020323
T95
X001480Y012323
X001480Y008323
X003480Y019323
X007480Y019323
T94
X001480Y003748
X002268Y003748
X001480Y002961
X002268Y002961
X001480Y005323
X002268Y005323
X001480Y004536
X002268Y004536
M30
