G04 start of page 7 for group 5 idx 5 *
G04 Title: (unknown), bottom *
G04 Creator: pcb 20110918 *
G04 CreationDate: Sun 20 Apr 2014 23:03:54 GMT UTC *
G04 For: ksarkies *
G04 Format: Gerber/RS-274X *
G04 PCB-Dimensions: 157480 255906 *
G04 PCB-Coordinate-Origin: lower left *
%MOIN*%
%FSLAX25Y25*%
%LNBOTTOM*%
%ADD86C,0.0280*%
%ADD85C,0.0394*%
%ADD84C,0.0380*%
%ADD83C,0.0200*%
%ADD82C,0.0360*%
%ADD81C,0.0700*%
%ADD80C,0.0600*%
%ADD79C,0.0680*%
%ADD78C,0.0001*%
%ADD77C,0.0400*%
%ADD76C,0.0550*%
%ADD75C,0.0300*%
%ADD74C,0.0450*%
%ADD73C,0.0500*%
%ADD72C,0.0100*%
G54D72*X14803Y83229D02*Y53229D01*
G54D73*X15029Y45281D02*X6703Y45393D01*
X6696Y27129D02*X9703Y22629D01*
G54D74*X44803Y83229D02*X54203Y89729D01*
G54D73*X9703Y22629D02*X58403Y22729D01*
X67503Y33029D01*
X84603D01*
G54D72*X84803Y33229D01*
G54D73*X6253Y123402D02*X6801Y27449D01*
G54D72*X6832Y123229D02*X6532Y122929D01*
G54D73*X84453Y32879D02*Y163579D01*
X14803Y123229D02*X6832D01*
G54D75*X74803Y193229D02*Y173229D01*
G54D72*X49303Y195479D02*X49403Y107429D01*
X74803Y173229D03*
X59903Y120829D02*Y191629D01*
X59703Y191829D01*
X59803Y191729D01*
X44803Y83229D03*
Y123229D03*
X49403Y107429D02*X44803Y103229D01*
X54203Y89729D03*
G54D74*X54402Y194028D02*X54203Y89729D01*
G54D72*X118403Y133229D03*
Y143229D02*X113203Y148029D01*
X113403Y133229D02*X110403Y136829D01*
X118403Y133229D02*X113403D01*
G54D73*X84803Y33229D02*X139423D01*
G54D76*X146100Y39906D01*
G54D73*Y233086D01*
X132913Y240573D01*
G54D72*X133790Y239696D01*
X44803Y227229D03*
Y217229D03*
X71053D02*X74803D01*
X71053D02*X49303Y195479D01*
X65203Y203829D02*X64728D01*
X65203D02*X64528D01*
G54D73*X74803Y173229D02*X84453Y163579D01*
G54D72*X113203Y148029D02*X113403Y227229D01*
X118403Y153229D02*Y237229D01*
X35103Y192829D02*X44903Y172429D01*
Y203429D02*X35103Y193029D01*
X113403Y227229D02*X74803D01*
X118403Y237229D02*X74803D01*
X110403Y217229D02*X74803D01*
X110403D02*Y136829D01*
G54D77*X64528Y203829D02*X54405Y193706D01*
G54D78*G36*
X42053Y205979D02*Y200479D01*
X47553D01*
Y205979D01*
X42053D01*
G37*
G36*
X31403Y196629D02*Y189829D01*
X38203D01*
Y196629D01*
X31403D01*
G37*
G54D73*X44803Y217229D03*
G54D76*X64803Y203229D03*
G54D79*X74803Y193229D03*
G54D78*G36*
X72303Y219729D02*Y214729D01*
X77303D01*
Y219729D01*
X72303D01*
G37*
G36*
Y229729D02*Y224729D01*
X77303D01*
Y229729D01*
X72303D01*
G37*
G54D73*X44803Y227229D03*
Y237229D03*
G54D78*G36*
X72303Y239729D02*Y234729D01*
X77303D01*
Y239729D01*
X72303D01*
G37*
G36*
X11803Y56229D02*Y50229D01*
X17803D01*
Y56229D01*
X11803D01*
G37*
G54D80*X22677Y53229D03*
X14803Y45355D03*
X22677D03*
X14803Y37481D03*
X22677D03*
X14803Y29607D03*
X22677D03*
G54D78*G36*
X11403Y126629D02*Y119829D01*
X18203D01*
Y126629D01*
X11403D01*
G37*
G54D79*X14803Y83229D03*
G54D78*G36*
X114903Y96729D02*Y89729D01*
X121903D01*
Y96729D01*
X114903D01*
G37*
G54D81*X118403Y103229D03*
Y113229D03*
G54D78*G36*
X81303Y36729D02*Y29729D01*
X88303D01*
Y36729D01*
X81303D01*
G37*
G54D81*X84803Y23229D03*
X118403Y123229D03*
Y133229D03*
Y143229D03*
Y153229D03*
G54D78*G36*
X129413Y194073D02*Y187073D01*
X136413D01*
Y194073D01*
X129413D01*
G37*
G54D81*X132913Y200573D03*
Y210573D03*
Y220573D03*
Y230573D03*
Y240573D03*
G54D78*G36*
X41803Y176229D02*Y170229D01*
X47803D01*
Y176229D01*
X41803D01*
G37*
G54D80*X44803Y163229D03*
Y153229D03*
Y143229D03*
Y133229D03*
X74803Y143229D03*
Y153229D03*
Y163229D03*
Y173229D03*
X44803Y123229D03*
Y113229D03*
Y103229D03*
Y93229D03*
Y83229D03*
X74803D03*
Y93229D03*
Y103229D03*
Y113229D03*
Y123229D03*
Y133229D03*
G54D82*X59703Y191829D03*
X59903Y120829D03*
G54D83*G54D75*G54D84*G54D83*G54D75*G54D84*G54D83*G54D85*G54D84*G54D86*M02*
