G04 start of page 2 for group 0 idx 0 *
G04 Title: (unknown), top *
G04 Creator: pcb 20110918 *
G04 CreationDate: Mon 12 May 2014 07:20:50 GMT UTC *
G04 For: ksarkies *
G04 Format: Gerber/RS-274X *
G04 PCB-Dimensions: 157480 255906 *
G04 PCB-Coordinate-Origin: lower left *
%MOIN*%
%FSLAX25Y25*%
%LNTOP*%
%ADD22C,0.0394*%
%ADD21C,0.0280*%
%ADD20C,0.0380*%
%ADD19C,0.0300*%
%ADD18C,0.0200*%
%ADD17C,0.0700*%
%ADD16C,0.0680*%
%ADD15C,0.0600*%
%ADD14C,0.0001*%
%ADD13C,0.0550*%
%ADD12C,0.0500*%
%ADD11C,0.0100*%
G54D11*X42153Y118129D02*X35700Y111829D01*
X51603Y118029D02*X42153Y118129D01*
X45403Y113229D03*
X36603Y123429D02*X44803Y123229D01*
X30460Y116229D02*X36603Y123429D01*
X51616Y156529D02*X51603Y118029D01*
X51616Y156529D02*X44803Y163229D01*
X51603Y118029D02*X51501Y118829D01*
X40303Y148729D02*X44803Y153229D01*
Y173229D02*Y176709D01*
X20853Y138129D02*X7903Y125379D01*
X29303Y138129D02*X20853D01*
X40303Y148729D02*X29303Y138129D01*
X29103Y138033D01*
X45003Y217429D02*X44803Y217229D01*
Y237229D02*Y217229D01*
Y176709D02*X50800Y182706D01*
X101203Y138229D02*X71581Y138201D01*
X74603Y143029D02*X74803Y143229D01*
X88523D01*
X97600Y152306D02*Y194106D01*
X74603Y153029D02*X74803Y153229D01*
X88523Y143229D02*X97600Y152306D01*
X74803Y153229D02*X90523D01*
X93200Y155906D01*
X74803Y163229D02*X86823D01*
X90500Y166906D01*
X97600Y194106D02*X104100Y200606D01*
X132880D01*
X132913Y200573D01*
X50800Y182706D02*X83400D01*
X87100Y186406D01*
X132913Y190573D02*Y189393D01*
X93200Y155906D02*Y203306D01*
X90500Y166906D02*Y209606D01*
X87100Y186406D02*Y222706D01*
X94400Y230006D01*
X93200Y203306D02*X100200Y210306D01*
X90500Y209606D02*X101400Y220506D01*
X100200Y210306D02*X132646D01*
X132913Y210573D01*
X101400Y220506D02*X132846D01*
X132913Y220573D01*
X94400Y230006D02*X132346D01*
X132913Y230573D01*
Y230219D01*
X132700Y230006D01*
X128003Y144529D02*X128103Y86229D01*
X128003Y144529D02*X118403Y153229D01*
Y143229D02*X119603D01*
X124703Y138129D01*
Y130029D01*
X122903Y128229D01*
G54D12*X133200Y28106D02*Y190286D01*
G54D11*X132913Y190573D01*
Y189393D02*X133200Y189106D01*
X7903Y125379D02*Y42029D01*
X28203Y37529D02*X35503Y44881D01*
X30554Y116378D02*X30577Y49003D01*
X27177Y45355D01*
X35699Y111733D02*X35503Y44881D01*
G54D13*X44503Y23129D02*X44406Y82652D01*
G54D11*X14803Y37481D02*X7903Y42029D01*
X27177Y45355D02*X22677D01*
X28052Y37480D02*X22678D01*
X22677Y37481D01*
X14803Y29607D02*Y28729D01*
G54D12*X16503Y22929D01*
X86503D01*
G54D11*X86803Y23229D01*
G54D12*X87100Y22929D02*X128023D01*
X133200Y28106D01*
G54D11*X128103Y86229D02*X80803D01*
X118403Y93229D02*X74803D01*
X80803Y86229D02*X77803Y83229D01*
X74803D02*X77803D01*
X64303Y110429D02*X44803Y93229D01*
X118403Y103229D02*X74803D01*
X118403Y113229D02*X74803D01*
X118403Y123229D02*X74803D01*
X122903Y128229D02*X110703D01*
X64303Y131679D02*Y110429D01*
X71553Y138229D02*X64303Y131679D01*
X110703Y128229D02*X101203Y138229D01*
G54D14*G36*
X72303Y219729D02*Y214729D01*
X77303D01*
Y219729D01*
X72303D01*
G37*
G36*
Y229729D02*Y224729D01*
X77303D01*
Y229729D01*
X72303D01*
G37*
G36*
Y239729D02*Y234729D01*
X77303D01*
Y239729D01*
X72303D01*
G37*
G54D13*X64803Y203229D03*
G54D12*X44803Y217229D03*
Y227229D03*
Y237229D03*
G54D14*G36*
X42053Y205979D02*Y200479D01*
X47553D01*
Y205979D01*
X42053D01*
G37*
G36*
X31403Y196629D02*Y189829D01*
X38203D01*
Y196629D01*
X31403D01*
G37*
G36*
X41803Y176229D02*Y170229D01*
X47803D01*
Y176229D01*
X41803D01*
G37*
G54D15*X44803Y163229D03*
Y153229D03*
Y143229D03*
X74803D03*
Y153229D03*
Y163229D03*
Y173229D03*
G54D16*Y193229D03*
G54D15*X14803Y37481D03*
X22677D03*
X14803Y29607D03*
X22677D03*
G54D14*G36*
X11803Y56229D02*Y50229D01*
X17803D01*
Y56229D01*
X11803D01*
G37*
G54D15*X22677Y53229D03*
X14803Y45355D03*
X22677D03*
G54D16*X14803Y83229D03*
G54D14*G36*
X82953Y36379D02*Y29379D01*
X89953D01*
Y36379D01*
X82953D01*
G37*
G54D17*X86453Y22879D03*
G54D14*G36*
X11403Y126629D02*Y119829D01*
X18203D01*
Y126629D01*
X11403D01*
G37*
G54D15*X44803Y133229D03*
Y123229D03*
Y113229D03*
Y103229D03*
Y93229D03*
Y83229D03*
X74803D03*
Y93229D03*
Y103229D03*
Y113229D03*
Y123229D03*
Y133229D03*
G54D14*G36*
X115100Y96406D02*Y89406D01*
X122100D01*
Y96406D01*
X115100D01*
G37*
G54D17*X118600Y102906D03*
Y112906D03*
Y122906D03*
Y132906D03*
Y142906D03*
Y152906D03*
G54D14*G36*
X129700Y193786D02*Y186786D01*
X136700D01*
Y193786D01*
X129700D01*
G37*
G54D17*X133200Y200286D03*
Y210286D03*
Y220286D03*
Y230286D03*
Y240286D03*
G54D18*G54D19*G54D18*G54D19*G54D20*G54D21*G54D20*G54D22*G54D20*G54D21*G54D20*G54D21*M02*
