M48
INCH
T97C0.039
T96C0.028
T95C0.038
T94C0.030
T93C0.020
%
T93
X007480Y021723
X007480Y022723
X007480Y023723
X004480Y021723
X004480Y022723
X004480Y023723
T96
X004480Y017323
X004480Y016323
X004480Y015323
X004480Y014323
X007480Y016323
X007480Y017323
X008645Y003288
X008645Y002288
X004480Y013323
X004480Y012323
X004480Y011323
X004480Y010323
X004480Y009323
X004480Y008323
X007480Y014323
X007480Y015323
X013320Y019029
X013320Y020029
X013320Y021029
X011860Y014291
X011860Y015291
X013320Y022029
X013320Y023029
X013320Y024029
X007480Y008323
X007480Y009323
X007480Y010323
X007480Y011323
X007480Y012323
X007480Y013323
X011860Y009291
X011860Y010291
X011860Y011291
X011860Y012291
X011860Y013291
T94
X006480Y020323
X004480Y020323
T95
X003480Y019323
X007480Y019323
X001480Y008323
X001480Y012323
T97
X001480Y003748
X002268Y003748
X001480Y002961
X002268Y002961
X001480Y005323
X002268Y005323
X001480Y004536
X002268Y004536
M30
