M48
INCH
T42C0.028
T41C0.020
T40C0.030
T39C0.039
T38C0.038
%
T41
X001814Y022652
X001814Y021652
X001814Y020652
X004814Y022652
X004814Y021652
X004814Y020652
T42
X001834Y016949
X001834Y015949
X001834Y014949
X001834Y013949
X001834Y012949
X001834Y011949
X001834Y010949
X001834Y009949
X001834Y008949
X001834Y007949
X009264Y008927
X009264Y009927
X009264Y010927
X009264Y011927
X009264Y012927
X009264Y013927
X004834Y007949
X004834Y008949
X004834Y009949
X004834Y010949
X004834Y011949
X009264Y014927
X004834Y012949
X004834Y013949
X004834Y014949
X004834Y015949
X004834Y016949
T40
X001814Y019645
X003814Y019645
T38
X011679Y001322
X010679Y001322
X001934Y006602
X000814Y018645
X005934Y006602
X010654Y017957
X004814Y018645
X010654Y018957
X010654Y019957
X010654Y020957
X010654Y021957
X010654Y022957
T39
X001177Y002677
X001964Y002677
X001177Y001890
X001964Y001890
X001177Y004252
X001964Y004252
X001177Y003464
X001964Y003464
M30
