M48
INCH
T104C0.028
T103C0.039
T102C0.020
T101C0.038
T100C0.030
%
T102
X004480Y021723
X007480Y021723
X007480Y022723
X004480Y022723
X004480Y023723
X007480Y023723
X005970Y019183
X005990Y012083
T104
X011840Y009323
X011840Y010323
X011840Y011323
X008480Y003323
X008480Y002323
X011840Y012323
X011840Y013323
X011840Y014323
X011840Y015323
X013291Y019057
X013291Y020057
X013291Y021057
X013291Y022057
X013291Y023057
X013291Y024057
X004480Y017323
X004480Y016323
X004480Y015323
X004480Y014323
X004480Y013323
X007480Y014323
X007480Y015323
X007480Y016323
X007480Y017323
X004480Y012323
X004480Y011323
X004480Y010323
X004480Y009323
X004480Y008323
X007480Y008323
X007480Y009323
X007480Y010323
X007480Y011323
X007480Y012323
X007480Y013323
T100
X004480Y020323
X006480Y020323
T101
X003480Y019323
X007480Y019323
X001480Y012323
X001480Y008323
T103
X001480Y005323
X002268Y005323
X001480Y004536
X002268Y004536
X001480Y003748
X002268Y003748
X001480Y002961
X002268Y002961
M30
