G04 start of page 3 for group 5 idx 5 *
G04 Title: (unknown), bottom *
G04 Creator: pcb 20110918 *
G04 CreationDate: Fri 30 May 2014 02:00:21 GMT UTC *
G04 For: ksarkies *
G04 Format: Gerber/RS-274X *
G04 PCB-Dimensions: 129921 236220 *
G04 PCB-Coordinate-Origin: lower left *
%MOIN*%
%FSLAX25Y25*%
%LNBOTTOM*%
%ADD36C,0.0280*%
%ADD35C,0.0200*%
%ADD34C,0.0394*%
%ADD33C,0.0380*%
%ADD32C,0.0680*%
%ADD31C,0.0600*%
%ADD30C,0.0700*%
%ADD29C,0.0001*%
%ADD28C,0.0400*%
%ADD27C,0.0450*%
%ADD26C,0.0300*%
%ADD25C,0.0500*%
%ADD24C,0.0550*%
%ADD23C,0.0100*%
G54D23*X59238Y13071D02*X59038Y12871D01*
X31096Y18765D02*X20070D01*
X31044Y18717D02*X43644Y29595D01*
Y125917D02*Y29595D01*
G54D24*X109564Y22517D02*X116890Y12691D01*
G54D25*X60144Y22517D02*X109564D01*
X32944Y12017D02*X43944Y21940D01*
G54D23*X28044Y90717D03*
G54D25*X43944Y21940D02*X59944Y22317D01*
G54D23*X43644Y125917D02*X48344Y129517D01*
X18144Y206517D02*X2841Y193314D01*
X40294Y206517D02*X22644Y190367D01*
X47944Y169217D03*
X2941Y121394D02*X2841Y193314D01*
X18144Y216517D03*
X106254Y229861D02*X107131Y228984D01*
G54D25*X116941Y224074D02*X106254Y229861D01*
G54D23*X91744Y226517D02*X48144D01*
X92641Y149269D02*X91744Y226517D01*
G54D26*X47547Y186352D02*X47944Y169217D01*
G54D25*X59941Y158794D01*
G54D23*X12518Y110517D02*X2941Y121394D01*
G54D27*X18644Y79817D02*X28044Y90717D01*
G54D23*X22844Y104817D02*X18444Y99717D01*
X18344Y111617D03*
X18644Y79817D03*
X17944Y109617D02*X12518Y110517D01*
X8286Y186587D02*X18547Y168789D01*
G54D27*X28143Y186016D02*X28044Y90717D01*
G54D28*X38315Y195364D02*X28146Y185694D01*
G54D23*X38544Y193117D02*X38315Y195364D01*
X38544Y193117D02*X38172Y195452D01*
X18247Y196452D02*X8153Y186257D01*
X40294Y206517D02*X83744D01*
X86744Y216517D02*X48144D01*
X22644Y190367D02*X22844Y104817D01*
G54D25*X116890Y12691D02*X116941Y224074D01*
G54D23*X83744Y206517D02*X83644Y132817D01*
X92444Y129117D02*X86744Y129917D01*
X83644Y132817D01*
X86544Y145417D02*X86744Y216517D01*
X92444Y139817D02*X86544Y145417D01*
G54D25*X3444Y12017D02*X32944D01*
X3437Y33879D02*X3444Y12017D01*
X11992Y34569D02*X3944Y34581D01*
G54D23*X19741Y66314D02*X11766Y42517D01*
G54D25*X59794Y22167D02*X59941Y158794D01*
G54D29*G36*
X113292Y16723D02*Y9723D01*
X120292D01*
Y16723D01*
X113292D01*
G37*
G54D30*X106792Y13223D03*
G54D31*X11766Y26769D03*
X19640D03*
X11766Y18895D03*
X19640D03*
G54D29*G36*
X8766Y45517D02*Y39517D01*
X14766D01*
Y45517D01*
X8766D01*
G37*
G54D31*X19640Y42517D03*
X11766Y34643D03*
X19640D03*
G54D32*X19338Y66017D03*
G54D29*G36*
X4744Y189854D02*Y183054D01*
X11544D01*
Y189854D01*
X4744D01*
G37*
G36*
X15394Y199204D02*Y193704D01*
X20894D01*
Y199204D01*
X15394D01*
G37*
G54D25*X18144Y226517D03*
Y216517D03*
Y206517D03*
G54D29*G36*
X15344Y172492D02*Y166492D01*
X21344D01*
Y172492D01*
X15344D01*
G37*
G54D31*X18344Y159492D03*
Y149492D03*
Y139492D03*
Y129492D03*
Y119492D03*
Y109492D03*
Y99492D03*
Y89492D03*
Y79492D03*
G54D29*G36*
X55938Y69417D02*Y62617D01*
X62738D01*
Y69417D01*
X55938D01*
G37*
G36*
X89141Y92769D02*Y85769D01*
X96141D01*
Y92769D01*
X89141D01*
G37*
G54D30*X92641Y99269D03*
Y109269D03*
Y119269D03*
Y129269D03*
Y139269D03*
G54D31*X48344Y79492D03*
Y89492D03*
Y99492D03*
Y109492D03*
Y119492D03*
G54D30*X92641Y149269D03*
G54D29*G36*
X103041Y183074D02*Y176074D01*
X110041D01*
Y183074D01*
X103041D01*
G37*
G54D32*X48144Y186454D03*
G54D24*X38144Y196454D03*
G54D31*X48344Y129492D03*
Y139492D03*
Y149492D03*
Y159492D03*
Y169492D03*
G54D30*X106541Y189574D03*
Y199574D03*
Y209574D03*
Y219574D03*
Y229574D03*
G54D29*G36*
X45644Y229017D02*Y224017D01*
X50644D01*
Y229017D01*
X45644D01*
G37*
G36*
Y219017D02*Y214017D01*
X50644D01*
Y219017D01*
X45644D01*
G37*
G36*
Y209017D02*Y204017D01*
X50644D01*
Y209017D01*
X45644D01*
G37*
G54D33*G54D34*G54D33*G54D26*G54D35*G54D36*G54D33*G54D36*G54D33*G54D26*G54D36*G54D33*G54D35*M02*
