G04 start of page 3 for group 1 idx 1 *
G04 Title: (unknown), ground *
G04 Creator: pcb 20110918 *
G04 CreationDate: Mon 05 May 2014 13:40:42 GMT UTC *
G04 For: ksarkies *
G04 Format: Gerber/RS-274X *
G04 PCB-Dimensions: 390000 390000 *
G04 PCB-Coordinate-Origin: lower left *
%MOIN*%
%FSLAX25Y25*%
%LNBOTTOM*%
%ADD66C,0.0280*%
%ADD65C,0.0590*%
%ADD64C,0.0394*%
%ADD63C,0.1140*%
%ADD62C,0.0280*%
%ADD61C,0.0380*%
%ADD60C,0.0420*%
%ADD59C,0.0350*%
%ADD58C,0.0360*%
%ADD57C,0.0800*%
%ADD56C,0.1000*%
%ADD55C,0.1650*%
%ADD54C,0.0700*%
%ADD53C,0.0680*%
%ADD52C,0.0720*%
%ADD51C,0.0800*%
%ADD50C,0.0600*%
%ADD49C,0.0900*%
%ADD48C,0.0001*%
%ADD47C,0.0550*%
%ADD46C,0.0400*%
%ADD45C,0.0300*%
%ADD44C,0.0250*%
%ADD43C,0.0200*%
%ADD42C,0.0500*%
%ADD41C,0.0450*%
%ADD40C,0.0100*%
G54D40*X325000Y95500D02*X320500Y90000D01*
X325000Y145000D02*Y95500D01*
X375000Y100000D02*X341000Y90000D01*
X375000Y110000D02*X330500Y90500D01*
X170000Y107000D02*X135500Y80000D01*
G54D41*X165500D02*X184000Y61000D01*
X175000Y79000D02*X186500Y67000D01*
G54D42*X185000Y110000D02*X175000D01*
G54D40*Y82000D02*Y80000D01*
G54D41*Y110000D02*X165000Y80500D01*
G54D43*X175000Y110000D02*X165000Y80500D01*
X175000Y110000D02*X165000Y80500D01*
G54D40*X170000Y107000D02*X171000Y112500D01*
X175000Y80000D02*Y82000D01*
X135000Y80000D02*X135500D01*
X125000Y110000D02*Y113000D01*
Y110000D02*Y113000D01*
Y110000D01*
X105000Y80000D02*Y34000D01*
X125000Y113000D02*X125100D01*
X125000D02*X125100D01*
X125000D01*
G54D44*X94500Y100000D02*X68000D01*
X85000Y34000D02*X53500D01*
X23500Y57000D01*
G54D40*X12500Y57500D01*
X70500Y52500D02*X45500D01*
X32500Y65500D01*
X24500D01*
X84500Y80000D02*Y79500D01*
X50000Y74500D02*Y75500D01*
G54D42*X58800Y82100D01*
X58900Y106600D01*
G54D40*X18500Y74500D02*Y71500D01*
X24500Y65500D01*
G54D41*X71000Y119500D02*X85000D01*
G54D40*X85500Y119000D01*
G54D42*Y34000D02*Y46000D01*
X94500Y55000D01*
Y114000D01*
G54D40*X168000Y40000D02*X168500D01*
X168000D02*X168500D01*
X168000D01*
G54D45*X179000D02*X168500D01*
G54D40*X179000Y39000D02*X180000D01*
G54D45*X168500Y40000D02*X168000D01*
G54D42*X110500Y53000D02*X149500Y17000D01*
G54D40*X169000D02*X169500D01*
G54D45*X180000Y39000D02*X187000Y33000D01*
G54D40*X188000Y26500D02*X179500Y18000D01*
X181000Y29000D02*X169000Y17000D01*
X171000Y112500D02*X175000Y119000D01*
G54D41*X226500Y37500D02*Y54500D01*
G54D46*Y37500D02*Y54500D01*
Y37500D02*Y54500D01*
G54D41*X221000Y61000D02*X184000D01*
X221000D02*X226500Y54500D01*
G54D42*X250000Y97500D02*Y28500D01*
G54D41*X234500Y59500D02*Y18500D01*
G54D40*X238500Y62000D02*Y14500D01*
X243500Y65000D02*Y14000D01*
G54D42*X280500Y50500D02*Y23500D01*
X294800Y18700D01*
G54D41*X234500Y18500D02*X227000Y17500D01*
G54D40*X230000Y85500D02*Y78500D01*
X243500Y65000D01*
X219500Y88000D02*Y78000D01*
X223500Y74000D01*
X231000D01*
X241000Y64000D01*
Y14500D01*
X229000Y71500D02*X238500Y62000D01*
G54D41*X186500Y67000D02*X227500D01*
X234500Y59500D01*
G54D40*X210000Y77000D02*X215500Y71500D01*
X229000D01*
X243500Y14000D02*X238000Y6000D01*
X220000D01*
X204000Y24000D01*
X222000Y8000D02*X206000Y26500D01*
X224000Y10500D02*X208000Y29000D01*
X241000Y14500D02*X236500Y8000D01*
X238500Y14500D02*X235500Y10500D01*
X236500Y8000D02*X222000D01*
X235500Y10500D02*X224000D01*
G54D45*X187000Y33000D02*X210500D01*
X227000Y17000D01*
G54D40*X204000Y24000D02*X195000D01*
X189000Y17500D01*
X206000Y26500D02*X188000D01*
X208000Y29000D02*X181000D01*
G54D42*X58900Y107600D02*X71000Y119500D01*
X94500Y114000D02*X101000Y120500D01*
G54D40*X201500Y175500D02*Y173500D01*
X197000Y186000D02*Y181000D01*
X200000Y178000D01*
X192000Y191000D02*X197000Y186000D01*
G54D45*X162000Y175500D02*Y159500D01*
Y175500D02*X171500Y183500D01*
X162000Y159500D02*X171500Y153500D01*
G54D40*X190000Y205000D02*X155000D01*
X147500Y212500D01*
X163500Y208500D02*X196500D01*
X137000Y191000D02*X192000D01*
X135500Y201000D02*Y209500D01*
X132000Y197500D02*X135500Y201000D01*
X133500Y187500D02*X137000Y191000D01*
X135500Y209500D02*X144000Y218000D01*
X153500D01*
X163500Y208500D01*
X186500Y167500D02*Y152500D01*
X181500Y174000D02*X186500Y167500D01*
X181500Y173500D02*Y174000D01*
X186500Y152500D02*X181500Y144000D01*
G54D46*X171500Y153500D02*X162000Y145000D01*
G54D41*Y144500D02*Y132000D01*
G54D40*X176500Y144500D02*Y138000D01*
G54D42*X154500Y120500D02*X165500Y109500D01*
G54D40*X176500Y144500D02*X181500Y153500D01*
G54D41*X162000Y132000D02*X168000Y126000D01*
X181500D01*
G54D40*X175000Y119000D02*X176500Y121500D01*
G54D46*X181500Y126500D02*X185500Y122500D01*
G54D42*X101000Y120500D02*X154500D01*
G54D40*X176500Y138000D02*X186500Y127000D01*
X197000Y131500D02*X191500Y137000D01*
G54D45*X66000Y273500D02*X65000D01*
Y264500D02*Y273500D01*
G54D47*X115500Y288000D02*X75500Y298000D01*
G54D40*X115000Y298500D02*Y299500D01*
X125000Y287500D02*X115000Y299500D01*
X125000Y288500D02*Y273500D01*
G54D42*X24000Y300000D02*Y273000D01*
X36500Y362000D02*Y313000D01*
G54D41*X24000Y300000D01*
G54D46*X65000Y378500D02*Y366500D01*
X105500Y375500D02*Y366500D01*
G54D41*X65500D02*X41000D01*
X36500Y362000D01*
G54D42*X24000Y273000D02*X10000Y265000D01*
D03*
G54D44*X125000Y263500D02*Y202500D01*
G54D40*X95500Y218500D02*X107500D01*
X115500Y209500D01*
X94000Y196500D02*X103000Y187500D01*
X133500D01*
X115500Y209500D02*Y200500D01*
X118500Y197500D01*
X132000D01*
X86000Y218000D02*X94000Y210000D01*
Y196500D01*
X55500Y218000D02*X86000D01*
G54D41*X10000Y265000D02*X25000Y256000D01*
Y231000D02*X11000Y225000D01*
G54D46*X25000Y255000D02*Y231000D01*
G54D44*X65000Y264500D02*X346000D01*
X185000D02*Y273500D01*
X225000D02*Y264500D01*
G54D40*X285000Y287500D02*Y273500D01*
X205000Y287500D02*Y273500D01*
G54D44*X265000Y264500D02*Y273500D01*
G54D47*X193500Y289000D02*X153500Y299000D01*
G54D44*X106000Y264500D02*Y273500D01*
G54D40*X205000Y287500D02*X195000Y298500D01*
G54D45*X145000Y264500D02*Y273500D01*
G54D46*X225000Y366500D02*Y378500D01*
G54D41*X224000Y366500D02*X65000D01*
G54D46*X145000Y376000D02*Y367000D01*
X185000Y375000D02*Y366000D01*
X265000Y376000D02*Y367000D01*
G54D40*X226000Y169000D02*Y149000D01*
X216500Y168000D02*Y151000D01*
X226000Y149000D02*X221500Y143500D01*
X226000Y169000D02*X221500Y173500D01*
X212000Y173000D02*X216500Y168000D01*
X211500Y173500D02*Y173000D01*
X212000D01*
X222000Y183500D02*X221500D01*
X216500Y178000D02*X221500Y173000D01*
X196500Y167500D02*X191500Y173500D01*
Y143500D02*Y137000D01*
Y153500D02*X191000Y152500D01*
X186500Y144000D01*
X196500Y151500D02*X191500Y143500D01*
X196500Y145000D02*Y139000D01*
X201500Y173500D02*X206500Y167500D01*
X200000Y178000D02*X216500D01*
X196500Y167500D02*Y151500D01*
X206500Y167500D02*Y152000D01*
X201500Y143500D01*
X211500D02*X216500Y151000D01*
X201000Y153000D02*Y149500D01*
X196500Y145000D01*
X212500Y182500D02*X190000Y205000D01*
X196500Y208500D02*X222000Y183000D01*
G54D47*X355000Y288500D02*X315000Y298500D01*
G54D44*X345000Y274000D02*X345500D01*
X305000Y274500D02*Y265500D01*
G54D40*X285000Y287500D02*X275000Y298500D01*
G54D41*X346000Y367000D02*X266000D01*
G54D46*X305000Y376000D02*Y367000D01*
X345000Y376500D02*Y367500D01*
G54D40*X346500Y366500D02*X348000D01*
G54D42*X353000Y361500D01*
X352900Y314800D01*
X365000Y305000D02*Y257500D01*
X352900Y314800D02*X365000Y305000D01*
G54D45*X275000Y264000D02*Y194500D01*
X262500Y182000D01*
G54D44*X345000Y273500D02*Y274000D01*
X345500Y265000D02*Y274000D01*
G54D40*X285500Y211500D02*Y198000D01*
X290500Y193000D01*
X305000D01*
X330500Y148500D02*X330000D01*
X321000Y149000D02*Y148500D01*
G54D42*X365000Y257500D02*X380000Y244500D01*
X379500Y245000D02*X365300Y230900D01*
Y219900D02*X380000Y204500D01*
X365300Y230900D02*Y219900D01*
X270000Y119500D02*X250000Y97500D01*
G54D40*X235000Y118000D02*Y110000D01*
X239000Y121500D02*Y117500D01*
X230000Y112500D02*Y102650D01*
X235000Y98000D02*Y80000D01*
Y98000D02*X230000Y102650D01*
X215000Y100500D02*X230000Y85500D01*
X205000Y102500D02*X219500Y88000D01*
X194500Y102000D02*X210000Y86500D01*
Y77000D01*
X280500Y90000D02*X276000Y96500D01*
X290500Y90000D02*X280500Y70000D01*
G54D41*X185000Y122500D02*Y110000D01*
G54D40*X194500Y109500D02*Y102000D01*
X196500Y144500D02*Y135500D01*
X181500Y143500D02*Y144000D01*
X186500D02*Y133500D01*
X191000Y129000D01*
X213500D01*
X208000Y136500D02*X201500Y143000D01*
X198500Y134000D02*X196500Y136000D01*
X186500Y127000D02*X203500D01*
X225500Y110000D01*
X205000Y109500D02*Y102500D01*
X203500Y127000D03*
X213500Y129000D02*X217000Y125500D01*
Y125000D02*X230000Y112500D01*
X235000Y118000D02*X222000Y131500D01*
X225000Y110000D02*X225500D01*
X215000Y110500D02*Y100500D01*
X225500Y134000D02*X239000Y121500D01*
X242000Y127000D02*X232500Y136500D01*
X242000Y124000D02*Y127000D01*
X232500Y136500D02*X208000D01*
X225500Y134000D02*X198500D01*
X222000Y131500D02*X197000D01*
G54D47*X286000Y145000D02*X280500Y120000D01*
G54D40*X276000Y145000D02*Y96500D01*
G54D48*G36*
X265500Y33000D02*Y24000D01*
X274500D01*
Y33000D01*
X265500D01*
G37*
G54D49*X260000Y38500D03*
G54D48*G36*
X291800Y31700D02*Y25700D01*
X297800D01*
Y31700D01*
X291800D01*
G37*
G54D50*X294800Y18700D03*
G54D49*X250000Y28500D03*
G54D51*X226500Y17500D03*
Y37500D03*
X280500Y50500D03*
X300500D03*
G54D52*X325000Y273500D03*
G54D48*G36*
X301400Y277100D02*Y269900D01*
X308600D01*
Y277100D01*
X301400D01*
G37*
G54D52*X295000Y273500D03*
G54D53*Y258500D03*
X315000Y298500D03*
G54D48*G36*
X311600Y291900D02*Y285100D01*
X318400D01*
Y291900D01*
X311600D01*
G37*
G54D52*X285000Y273500D03*
G54D48*G36*
X261400Y277100D02*Y269900D01*
X268600D01*
Y277100D01*
X261400D01*
G37*
G36*
X271600Y301900D02*Y295100D01*
X278400D01*
Y301900D01*
X271600D01*
G37*
G54D53*X275000Y288500D03*
G54D48*G36*
X331600Y221900D02*Y215100D01*
X338400D01*
Y221900D01*
X331600D01*
G37*
G36*
X291600D02*Y215100D01*
X298400D01*
Y221900D01*
X291600D01*
G37*
G36*
X251600D02*Y215100D01*
X258400D01*
Y221900D01*
X251600D01*
G37*
G54D52*X255000Y273500D03*
X245000D03*
G54D53*X255000Y258500D03*
G54D48*G36*
X231600Y291900D02*Y285100D01*
X238400D01*
Y291900D01*
X231600D01*
G37*
G54D53*X235000Y298500D03*
G54D48*G36*
X236600Y215900D02*Y209100D01*
X243400D01*
Y215900D01*
X236600D01*
G37*
G36*
X281600D02*Y209100D01*
X288400D01*
Y215900D01*
X281600D01*
G37*
G36*
X218500Y156500D02*Y150500D01*
X224500D01*
Y156500D01*
X218500D01*
G37*
G54D50*X221500Y143500D03*
X211500Y153500D03*
Y143500D03*
X201500Y153500D03*
Y143500D03*
X191500Y153500D03*
Y143500D03*
X181500Y153500D03*
Y143500D03*
X171500Y153500D03*
Y143500D03*
G54D53*X240000Y172500D03*
G54D48*G36*
X258900Y186100D02*Y178900D01*
X266100D01*
Y186100D01*
X258900D01*
G37*
G54D52*X262500Y192500D03*
Y202500D03*
G54D53*X285000Y172500D03*
G54D48*G36*
X267500Y73000D02*Y67000D01*
X273500D01*
Y73000D01*
X267500D01*
G37*
G54D50*X280500Y70000D03*
G54D48*G36*
X267500Y93000D02*Y87000D01*
X273500D01*
Y93000D01*
X267500D01*
G37*
G54D50*X280500Y90000D03*
X290500D03*
X300500D03*
X310500D03*
X320500D03*
X330500D03*
Y120000D03*
X320500D03*
X325500Y145000D03*
X310500Y120000D03*
Y70000D03*
G54D48*G36*
X312500Y148000D02*Y142000D01*
X318500D01*
Y148000D01*
X312500D01*
G37*
G54D50*X300500Y120000D03*
G54D48*G36*
X297500Y73000D02*Y67000D01*
X303500D01*
Y73000D01*
X297500D01*
G37*
G54D50*X290500Y120000D03*
X280500D03*
X270500D03*
G54D48*G36*
X273000Y148000D02*Y142000D01*
X279000D01*
Y148000D01*
X273000D01*
G37*
G54D50*X286000Y145000D03*
G54D48*G36*
X160500Y57500D02*Y51500D01*
X166500D01*
Y57500D01*
X160500D01*
G37*
G54D50*X183500Y54500D03*
X155000Y80000D03*
X165000D03*
G54D51*X168000Y40000D03*
G54D54*X169000Y17500D03*
X159000D03*
G54D51*X179000Y40000D03*
G54D54*Y17500D03*
G54D51*X199000Y40000D03*
G54D48*G36*
X195500Y21000D02*Y14000D01*
X202500D01*
Y21000D01*
X195500D01*
G37*
G54D54*X189000Y17500D03*
G54D48*G36*
X82000Y37000D02*Y31000D01*
X88000D01*
Y37000D01*
X82000D01*
G37*
G54D50*X105000Y34000D03*
Y14000D03*
X85000D03*
G54D48*G36*
X107100Y56400D02*Y49600D01*
X113900D01*
Y56400D01*
X107100D01*
G37*
G36*
X102000Y83000D02*Y77000D01*
X108000D01*
Y83000D01*
X102000D01*
G37*
G54D50*X115000Y80000D03*
X125000D03*
X135000D03*
X145000D03*
G54D51*X148000Y40000D03*
G54D54*X149000Y17500D03*
G54D55*X20000Y20000D03*
G54D50*X33622Y75000D03*
G54D48*G36*
X20000Y51000D02*Y44000D01*
X27000D01*
Y51000D01*
X20000D01*
G37*
G54D54*X23500Y57500D03*
G54D48*G36*
X9500Y51000D02*Y44000D01*
X16500D01*
Y51000D01*
X9500D01*
G37*
G54D54*X13000Y57500D03*
G54D50*X41496Y75000D03*
X49370D03*
X175000Y80000D03*
X185000D03*
X195000D03*
X205000D03*
X215000D03*
X225000D03*
X235000D03*
Y110000D03*
X225000D03*
X215000D03*
X205000D03*
X195000D03*
X185000D03*
X175000D03*
X165000D03*
X155000D03*
X145000D03*
X135000D03*
X125000D03*
X115000D03*
X105000D03*
G54D51*X68000Y100000D03*
G54D48*G36*
X81100Y122900D02*Y116100D01*
X87900D01*
Y122900D01*
X81100D01*
G37*
G36*
X46500Y143500D02*Y136500D01*
X53500D01*
Y143500D01*
X46500D01*
G37*
G36*
X36500D02*Y136500D01*
X43500D01*
Y143500D01*
X36500D01*
G37*
G54D54*X50000Y150000D03*
X40000D03*
G54D55*X20000D03*
G54D51*X68000Y80000D03*
G54D53*X70500Y53000D03*
X84500Y79500D03*
G54D48*G36*
X7000Y78000D02*Y72000D01*
X13000D01*
Y78000D01*
X7000D01*
G37*
G54D50*X10000Y82874D03*
X17874Y75000D03*
Y82874D03*
X25748Y75000D03*
Y82874D03*
X33622D03*
X41496D03*
X49370D03*
G54D48*G36*
X121400Y206100D02*Y198900D01*
X128600D01*
Y206100D01*
X121400D01*
G37*
G54D52*X125000Y192500D03*
Y182500D03*
G54D48*G36*
X101600Y175900D02*Y169100D01*
X108400D01*
Y175900D01*
X101600D01*
G37*
G54D53*X105000Y212500D03*
G54D55*X20000Y180000D03*
G54D48*G36*
X5000Y250000D02*Y240000D01*
X15000D01*
Y250000D01*
X5000D01*
G37*
G54D56*X10000Y265000D03*
G54D48*G36*
X5000Y210000D02*Y200000D01*
X15000D01*
Y210000D01*
X5000D01*
G37*
G54D56*X10000Y225000D03*
G54D48*G36*
X61400Y277100D02*Y269900D01*
X68600D01*
Y277100D01*
X61400D01*
G37*
G54D52*X55000Y273500D03*
X45000D03*
G54D48*G36*
X101400Y277100D02*Y269900D01*
X108600D01*
Y277100D01*
X101400D01*
G37*
G54D52*X95000Y273500D03*
X85000D03*
G54D48*G36*
X141400Y277100D02*Y269900D01*
X148600D01*
Y277100D01*
X141400D01*
G37*
G54D52*X175000Y273500D03*
X165000D03*
X135000D03*
X125000D03*
G54D48*G36*
X71600Y291900D02*Y285100D01*
X78400D01*
Y291900D01*
X71600D01*
G37*
G54D53*X115000Y288500D03*
G54D48*G36*
X111600Y301900D02*Y295100D01*
X118400D01*
Y301900D01*
X111600D01*
G37*
G54D53*X155000Y298500D03*
G54D48*G36*
X191600Y301900D02*Y295100D01*
X198400D01*
Y301900D01*
X191600D01*
G37*
G36*
X151600Y291900D02*Y285100D01*
X158400D01*
Y291900D01*
X151600D01*
G37*
G54D53*X195000Y288500D03*
G54D48*G36*
X181400Y277100D02*Y269900D01*
X188600D01*
Y277100D01*
X181400D01*
G37*
G36*
X221400D02*Y269900D01*
X228600D01*
Y277100D01*
X221400D01*
G37*
G54D52*X215000Y273500D03*
X205000D03*
G54D48*G36*
X40000Y383500D02*Y373500D01*
X50000D01*
Y383500D01*
X40000D01*
G37*
G54D56*X65000Y378500D03*
G54D48*G36*
X80000Y383500D02*Y373500D01*
X90000D01*
Y383500D01*
X80000D01*
G37*
G54D56*X105000Y378500D03*
G54D48*G36*
X120000Y383500D02*Y373500D01*
X130000D01*
Y383500D01*
X120000D01*
G37*
G54D56*X145000Y378500D03*
G54D48*G36*
X160000Y383500D02*Y373500D01*
X170000D01*
Y383500D01*
X160000D01*
G37*
G54D55*X20000Y370000D03*
G54D48*G36*
X31600Y301900D02*Y295100D01*
X38400D01*
Y301900D01*
X31600D01*
G37*
G54D53*X75000Y298500D03*
G54D56*X185000Y378500D03*
G54D48*G36*
X200000Y383500D02*Y373500D01*
X210000D01*
Y383500D01*
X200000D01*
G37*
G54D56*X225000Y378500D03*
G54D48*G36*
X280000Y383500D02*Y373500D01*
X290000D01*
Y383500D01*
X280000D01*
G37*
G54D56*X305000Y378500D03*
G54D48*G36*
X320000Y383500D02*Y373500D01*
X330000D01*
Y383500D01*
X320000D01*
G37*
G54D56*X345000Y378500D03*
G54D48*G36*
X240000Y383500D02*Y373500D01*
X250000D01*
Y383500D01*
X240000D01*
G37*
G54D56*X265000Y378500D03*
G54D55*X370000Y370000D03*
G54D48*G36*
X211600Y221900D02*Y215100D01*
X218400D01*
Y221900D01*
X211600D01*
G37*
G54D53*X215000Y258500D03*
X175000D03*
X135000D03*
X95000D03*
X55000D03*
G54D48*G36*
X171600Y221900D02*Y215100D01*
X178400D01*
Y221900D01*
X171600D01*
G37*
G36*
X131600D02*Y215100D01*
X138400D01*
Y221900D01*
X131600D01*
G37*
G36*
X91600D02*Y215100D01*
X98400D01*
Y221900D01*
X91600D01*
G37*
G36*
X51600D02*Y215100D01*
X58400D01*
Y221900D01*
X51600D01*
G37*
G36*
X144100Y215900D02*Y209100D01*
X150900D01*
Y215900D01*
X144100D01*
G37*
G36*
X218500Y186500D02*Y180500D01*
X224500D01*
Y186500D01*
X218500D01*
G37*
G54D50*X221500Y173500D03*
X211500Y183500D03*
Y173500D03*
X201500Y183500D03*
Y173500D03*
X191500Y183500D03*
X181500D03*
X171500D03*
X191500Y173500D03*
X181500D03*
X171500D03*
G54D53*X147500Y172500D03*
G54D55*X370000Y180000D03*
G54D56*X380000Y245000D03*
G54D48*G36*
X375000Y230000D02*Y220000D01*
X385000D01*
Y230000D01*
X375000D01*
G37*
G54D56*X380000Y205000D03*
G54D48*G36*
X341400Y277100D02*Y269900D01*
X348600D01*
Y277100D01*
X341400D01*
G37*
G54D52*X335000Y273500D03*
G54D53*Y258500D03*
X355000Y288500D03*
G54D48*G36*
X375000Y270000D02*Y260000D01*
X385000D01*
Y270000D01*
X375000D01*
G37*
G54D55*X370000Y20000D03*
G54D57*X335000Y54000D03*
X354000Y41900D03*
X335000Y30000D03*
G54D50*X340500Y90000D03*
Y120000D03*
G54D48*G36*
X371500Y93500D02*Y86500D01*
X378500D01*
Y93500D01*
X371500D01*
G37*
G54D54*X375000Y100000D03*
Y110000D03*
Y120000D03*
G54D55*X370000Y150000D03*
G54D58*X239000Y117500D03*
X242000Y124000D03*
X304500Y193000D03*
X177000Y121000D03*
G54D43*G54D50*G54D45*G54D50*G54D59*G54D60*G54D61*G54D60*G54D61*G54D60*G54D61*G54D60*G54D61*G54D45*G54D62*G54D45*G54D62*G54D45*G54D62*G54D45*G54D62*G54D45*G54D62*G54D59*G54D62*G54D59*G54D62*G54D59*G54D62*G54D61*G54D62*G54D59*G54D62*G54D63*G54D64*G54D62*G54D64*G54D62*G54D59*G54D61*G54D62*G54D63*G54D59*G54D61*G54D64*G54D60*G54D61*G54D63*G54D65*G54D60*G54D61*G54D60*G54D65*G54D63*G54D61*G54D65*G54D63*G54D61*G54D63*G54D65*G54D60*G54D61*G54D65*G54D63*G54D66*G54D62*G54D63*M02*
