G04 start of page 8 for group -4062 idx -4062 *
G04 Title: (unknown), soldermask *
G04 Creator: pcb 20110918 *
G04 CreationDate: Mon 12 May 2014 07:18:58 GMT UTC *
G04 For: ksarkies *
G04 Format: Gerber/RS-274X *
G04 PCB-Dimensions: 390000 390000 *
G04 PCB-Coordinate-Origin: lower left *
%MOIN*%
%FSLAX25Y25*%
%LNBOTTOMMASK*%
%ADD125C,0.1110*%
%ADD124C,0.1000*%
%ADD123C,0.0700*%
%ADD122C,0.0740*%
%ADD121C,0.0780*%
%ADD120C,0.1100*%
%ADD119C,0.0960*%
%ADD118C,0.0660*%
%ADD117C,0.0001*%
G54D117*G36*
X291500Y32000D02*Y25400D01*
X298100D01*
Y32000D01*
X291500D01*
G37*
G54D118*X294800Y18700D03*
G54D117*G36*
X265200Y33300D02*Y23700D01*
X274800D01*
Y33300D01*
X265200D01*
G37*
G54D119*X260000Y38500D03*
X250000Y28500D03*
G54D120*X226500Y17500D03*
Y37500D03*
X280500Y50500D03*
X300500D03*
G54D121*X325000Y273500D03*
G54D117*G36*
X301100Y277400D02*Y269600D01*
X308900D01*
Y277400D01*
X301100D01*
G37*
G54D121*X295000Y273500D03*
G54D122*Y258500D03*
X315000Y298500D03*
G54D117*G36*
X311300Y292200D02*Y284800D01*
X318700D01*
Y292200D01*
X311300D01*
G37*
G54D121*X285000Y273500D03*
G54D117*G36*
X261100Y277400D02*Y269600D01*
X268900D01*
Y277400D01*
X261100D01*
G37*
G36*
X271300Y302200D02*Y294800D01*
X278700D01*
Y302200D01*
X271300D01*
G37*
G54D122*X275000Y288500D03*
G54D117*G36*
X331300Y222200D02*Y214800D01*
X338700D01*
Y222200D01*
X331300D01*
G37*
G36*
X291300D02*Y214800D01*
X298700D01*
Y222200D01*
X291300D01*
G37*
G36*
X251300D02*Y214800D01*
X258700D01*
Y222200D01*
X251300D01*
G37*
G54D121*X255000Y273500D03*
X245000D03*
G54D122*X255000Y258500D03*
G54D117*G36*
X231300Y292200D02*Y284800D01*
X238700D01*
Y292200D01*
X231300D01*
G37*
G54D122*X235000Y298500D03*
G54D117*G36*
X236300Y216200D02*Y208800D01*
X243700D01*
Y216200D01*
X236300D01*
G37*
G36*
X281300D02*Y208800D01*
X288700D01*
Y216200D01*
X281300D01*
G37*
G36*
X218200Y156800D02*Y150200D01*
X224800D01*
Y156800D01*
X218200D01*
G37*
G54D118*X221500Y143500D03*
X211500Y153500D03*
Y143500D03*
X201500Y153500D03*
Y143500D03*
X191500Y153500D03*
Y143500D03*
X181500Y153500D03*
Y143500D03*
X171500Y153500D03*
Y143500D03*
G54D122*X240000Y172500D03*
G54D117*G36*
X258600Y186400D02*Y178600D01*
X266400D01*
Y186400D01*
X258600D01*
G37*
G54D121*X262500Y192500D03*
Y202500D03*
G54D122*X285000Y172500D03*
G54D117*G36*
X267200Y73300D02*Y66700D01*
X273800D01*
Y73300D01*
X267200D01*
G37*
G54D118*X280500Y70000D03*
G54D117*G36*
X267200Y93300D02*Y86700D01*
X273800D01*
Y93300D01*
X267200D01*
G37*
G54D118*X280500Y90000D03*
X290500D03*
X300500D03*
X310500D03*
X320500D03*
X330500D03*
Y120000D03*
X320500D03*
X325500Y145000D03*
X310500Y120000D03*
Y70000D03*
G54D117*G36*
X312200Y148300D02*Y141700D01*
X318800D01*
Y148300D01*
X312200D01*
G37*
G54D118*X300500Y120000D03*
G54D117*G36*
X297200Y73300D02*Y66700D01*
X303800D01*
Y73300D01*
X297200D01*
G37*
G54D118*X290500Y120000D03*
X280500D03*
X270500D03*
G54D117*G36*
X272700Y148300D02*Y141700D01*
X279300D01*
Y148300D01*
X272700D01*
G37*
G54D118*X286000Y145000D03*
G54D117*G36*
X160200Y57800D02*Y51200D01*
X166800D01*
Y57800D01*
X160200D01*
G37*
G54D118*X183500Y54500D03*
X155000Y80000D03*
X165000D03*
G54D120*X168000Y40000D03*
G54D123*X169000Y17500D03*
X159000D03*
G54D120*X179000Y40000D03*
G54D123*Y17500D03*
G54D120*X199000Y40000D03*
G54D117*G36*
X195500Y21000D02*Y14000D01*
X202500D01*
Y21000D01*
X195500D01*
G37*
G54D123*X189000Y17500D03*
G54D117*G36*
X81500Y37500D02*Y30500D01*
X88500D01*
Y37500D01*
X81500D01*
G37*
G54D123*X105000Y34000D03*
Y14000D03*
X85000D03*
G54D117*G36*
X106800Y56700D02*Y49300D01*
X114200D01*
Y56700D01*
X106800D01*
G37*
G36*
X101700Y83300D02*Y76700D01*
X108300D01*
Y83300D01*
X101700D01*
G37*
G54D118*X115000Y80000D03*
X125000D03*
X135000D03*
X145000D03*
G54D120*X148000Y40000D03*
G54D117*G36*
X20500Y45500D02*Y38500D01*
X27500D01*
Y45500D01*
X20500D01*
G37*
G54D123*X24000Y52000D03*
G54D117*G36*
X9500Y45500D02*Y38500D01*
X16500D01*
Y45500D01*
X9500D01*
G37*
G54D123*X13000Y52000D03*
G54D120*X68000Y80000D03*
G54D122*X70500Y53000D03*
X84500Y79500D03*
G54D123*X149000Y17500D03*
G54D118*X175000Y80000D03*
X185000D03*
X195000D03*
X205000D03*
X215000D03*
X225000D03*
X235000D03*
Y110000D03*
X225000D03*
X215000D03*
X205000D03*
X195000D03*
X185000D03*
X175000D03*
X165000D03*
X155000D03*
X145000D03*
X135000D03*
X125000D03*
X115000D03*
X105000D03*
G54D120*X68000Y100000D03*
G54D117*G36*
X80800Y123200D02*Y115800D01*
X88200D01*
Y123200D01*
X80800D01*
G37*
G36*
X36500Y149500D02*Y142500D01*
X43500D01*
Y149500D01*
X36500D01*
G37*
G54D123*X40000Y156000D03*
G54D117*G36*
X47500Y149500D02*Y142500D01*
X54500D01*
Y149500D01*
X47500D01*
G37*
G54D123*X51000Y156000D03*
G54D117*G36*
X45700Y126300D02*Y119700D01*
X52300D01*
Y126300D01*
X45700D01*
G37*
G54D118*X41126Y123000D03*
X33252D03*
X25378D03*
X17504D03*
X9630D03*
X49000Y115126D03*
X41126D03*
X33252D03*
X25378D03*
X17504D03*
X9630D03*
G54D117*G36*
X5000Y210000D02*Y200000D01*
X15000D01*
Y210000D01*
X5000D01*
G37*
G54D124*X10000Y225000D03*
G54D117*G36*
X5000Y250000D02*Y240000D01*
X15000D01*
Y250000D01*
X5000D01*
G37*
G54D124*X10000Y265000D03*
G54D121*X45000Y273500D03*
G54D117*G36*
X31300Y302200D02*Y294800D01*
X38700D01*
Y302200D01*
X31300D01*
G37*
G36*
X141100Y277400D02*Y269600D01*
X148900D01*
Y277400D01*
X141100D01*
G37*
G54D121*X165000Y273500D03*
G54D122*X155000Y298500D03*
G54D117*G36*
X151300Y292200D02*Y284800D01*
X158700D01*
Y292200D01*
X151300D01*
G37*
G54D121*X135000Y273500D03*
X125000D03*
G54D122*X135000Y258500D03*
G54D117*G36*
X171300Y222200D02*Y214800D01*
X178700D01*
Y222200D01*
X171300D01*
G37*
G36*
X131300D02*Y214800D01*
X138700D01*
Y222200D01*
X131300D01*
G37*
G36*
X143800Y216200D02*Y208800D01*
X151200D01*
Y216200D01*
X143800D01*
G37*
G54D122*X147500Y172500D03*
G54D117*G36*
X61100Y277400D02*Y269600D01*
X68900D01*
Y277400D01*
X61100D01*
G37*
G54D121*X55000Y273500D03*
G54D117*G36*
X101100Y277400D02*Y269600D01*
X108900D01*
Y277400D01*
X101100D01*
G37*
G54D121*X95000Y273500D03*
X85000D03*
G54D117*G36*
X71300Y292200D02*Y284800D01*
X78700D01*
Y292200D01*
X71300D01*
G37*
G54D122*X75000Y298500D03*
X115000Y288500D03*
G54D117*G36*
X111300Y302200D02*Y294800D01*
X118700D01*
Y302200D01*
X111300D01*
G37*
G36*
X121100Y206400D02*Y198600D01*
X128900D01*
Y206400D01*
X121100D01*
G37*
G54D121*X125000Y192500D03*
Y182500D03*
G54D117*G36*
X101300Y176200D02*Y168800D01*
X108700D01*
Y176200D01*
X101300D01*
G37*
G54D122*X105000Y212500D03*
G54D117*G36*
X91300Y222200D02*Y214800D01*
X98700D01*
Y222200D01*
X91300D01*
G37*
G54D122*X95000Y258500D03*
X55000D03*
G54D117*G36*
X51300Y222200D02*Y214800D01*
X58700D01*
Y222200D01*
X51300D01*
G37*
G36*
X181100Y277400D02*Y269600D01*
X188900D01*
Y277400D01*
X181100D01*
G37*
G36*
X221100D02*Y269600D01*
X228900D01*
Y277400D01*
X221100D01*
G37*
G54D121*X215000Y273500D03*
X205000D03*
G54D117*G36*
X211300Y222200D02*Y214800D01*
X218700D01*
Y222200D01*
X211300D01*
G37*
G54D122*X215000Y258500D03*
X175000D03*
G54D121*Y273500D03*
G54D117*G36*
X191300Y302200D02*Y294800D01*
X198700D01*
Y302200D01*
X191300D01*
G37*
G54D122*X195000Y288500D03*
G54D117*G36*
X218200Y186800D02*Y180200D01*
X224800D01*
Y186800D01*
X218200D01*
G37*
G54D118*X211500Y183500D03*
X201500D03*
X191500D03*
X181500D03*
X171500D03*
X221500Y173500D03*
X211500D03*
X201500D03*
X191500D03*
X181500D03*
X171500D03*
G54D117*G36*
X40000Y383500D02*Y373500D01*
X50000D01*
Y383500D01*
X40000D01*
G37*
G54D124*X65000Y378500D03*
G54D117*G36*
X80000Y383500D02*Y373500D01*
X90000D01*
Y383500D01*
X80000D01*
G37*
G54D124*X105000Y378500D03*
G54D117*G36*
X120000Y383500D02*Y373500D01*
X130000D01*
Y383500D01*
X120000D01*
G37*
G54D124*X145000Y378500D03*
G54D117*G36*
X160000Y383500D02*Y373500D01*
X170000D01*
Y383500D01*
X160000D01*
G37*
G54D124*X185000Y378500D03*
G54D117*G36*
X200000Y383500D02*Y373500D01*
X210000D01*
Y383500D01*
X200000D01*
G37*
G54D124*X225000Y378500D03*
G54D117*G36*
X240000Y383500D02*Y373500D01*
X250000D01*
Y383500D01*
X240000D01*
G37*
G54D124*X265000Y378500D03*
G54D117*G36*
X280000Y383500D02*Y373500D01*
X290000D01*
Y383500D01*
X280000D01*
G37*
G54D124*X305000Y378500D03*
G54D117*G36*
X320000Y383500D02*Y373500D01*
X330000D01*
Y383500D01*
X320000D01*
G37*
G54D124*X345000Y378500D03*
G54D117*G36*
X371500Y93500D02*Y86500D01*
X378500D01*
Y93500D01*
X371500D01*
G37*
G54D123*X375000Y100000D03*
Y110000D03*
Y120000D03*
G54D124*X380000Y205000D03*
G54D117*G36*
X375000Y270000D02*Y260000D01*
X385000D01*
Y270000D01*
X375000D01*
G37*
G54D124*X380000Y245000D03*
G54D117*G36*
X375000Y230000D02*Y220000D01*
X385000D01*
Y230000D01*
X375000D01*
G37*
G36*
X341100Y277400D02*Y269600D01*
X348900D01*
Y277400D01*
X341100D01*
G37*
G54D121*X335000Y273500D03*
G54D122*Y258500D03*
X355000Y288500D03*
G54D125*X335000Y54000D03*
X354000Y41900D03*
X335000Y30000D03*
G54D118*X340500Y90000D03*
Y120000D03*
M02*
