G04 start of page 9 for group -4079 idx -4079 *
G04 Title: (unknown), topsilk *
G04 Creator: pcb 20110918 *
G04 CreationDate: Mon 12 May 2014 07:18:58 GMT UTC *
G04 For: ksarkies *
G04 Format: Gerber/RS-274X *
G04 PCB-Dimensions: 390000 390000 *
G04 PCB-Coordinate-Origin: lower left *
%MOIN*%
%FSLAX25Y25*%
%LNTOPSILK*%
%ADD132C,0.0300*%
%ADD131C,0.0100*%
%ADD130C,0.0200*%
%ADD129C,0.0082*%
%ADD128C,0.0060*%
%ADD127C,0.0078*%
%ADD126C,0.0001*%
G54D126*G36*
X75000Y155000D02*X77577D01*
X77660Y154968D01*
X77707Y154892D01*
X77756Y154653D01*
X77800Y154431D01*
X78191Y152299D01*
X78238Y152211D01*
X78321Y152153D01*
X78424Y152109D01*
X79214Y151838D01*
X79964Y151480D01*
X79970D01*
X80057Y151442D01*
X80154Y151428D01*
X80252Y151459D01*
X82025Y152678D01*
X82216Y152803D01*
X82417Y152939D01*
X82503Y152964D01*
X82585Y152928D01*
X82916Y152598D01*
X83420Y152098D01*
X83578Y151935D01*
X84077Y151437D01*
X84239Y151280D01*
X84407Y151106D01*
X84446Y151021D01*
X84424Y150932D01*
X84288Y150731D01*
X84159Y150541D01*
X82970Y148805D01*
X82938Y148713D01*
X82953Y148616D01*
X82998Y148517D01*
X83681Y146911D01*
X83718Y146820D01*
X83781Y146742D01*
X83871Y146695D01*
X85910Y146314D01*
X86134Y146271D01*
X86377Y146228D01*
X86452Y146181D01*
X86481Y146098D01*
Y143521D01*
X86452Y143432D01*
X86377Y143385D01*
X86134Y143342D01*
X85910Y143299D01*
X83931Y142930D01*
X83843Y142882D01*
X83789Y142799D01*
X83761Y142739D01*
Y142728D01*
X83046Y140955D01*
X83041Y140943D01*
X83024Y140900D01*
X83007Y140799D01*
X83035Y140705D01*
X84164Y139073D01*
X84288Y138882D01*
X84429Y138681D01*
X84448Y138595D01*
X84407Y138513D01*
X84239Y138334D01*
X84077Y138177D01*
X82759Y136859D01*
X82585Y136691D01*
X82503Y136650D01*
X82417Y136668D01*
X82216Y136810D01*
X82025Y136934D01*
X80431Y138031D01*
X80332Y138060D01*
X80235Y138041D01*
X79904Y137857D01*
X79710Y137748D01*
X79363Y137570D01*
X79278Y137564D01*
X79216Y137624D01*
X79070Y137981D01*
X78982Y138188D01*
X77599Y141546D01*
X77511Y141752D01*
X77414Y141985D01*
X77410Y142080D01*
X77463Y142153D01*
X77686Y142284D01*
X77827Y142392D01*
X78363Y142838D01*
X78778Y143402D01*
X79045Y144061D01*
X79139Y144791D01*
X79081Y145366D01*
X78916Y145900D01*
X78653Y146385D01*
X78304Y146807D01*
X77884Y147156D01*
X77400Y147420D01*
X76866Y147585D01*
X76292Y147643D01*
X75717Y147585D01*
X75182Y147420D01*
X74699Y147156D01*
X74277Y146807D01*
X73929Y146385D01*
X73667Y145900D01*
X73502Y145366D01*
X73443Y144791D01*
X73536Y144061D01*
X73803Y143402D01*
X74217Y142838D01*
X74756Y142392D01*
X74892Y142284D01*
X75114Y142153D01*
X75168Y142080D01*
X75163Y141985D01*
X75066Y141752D01*
X74978Y141546D01*
X73595Y138188D01*
X73509Y137981D01*
X73361Y137624D01*
X73300Y137564D01*
X73216Y137570D01*
X72874Y137748D01*
X72673Y137857D01*
X72342Y138041D01*
X72243Y138060D01*
X72146Y138031D01*
X70552Y136934D01*
X70367Y136810D01*
X70161Y136668D01*
X70074Y136650D01*
X69992Y136691D01*
X69818Y136859D01*
X69661Y137021D01*
X69163Y137520D01*
X69000Y137678D01*
X68500Y138177D01*
X68338Y138334D01*
X68170Y138513D01*
X68131Y138595D01*
X68153Y138681D01*
X68289Y138882D01*
X68420Y139073D01*
X69542Y140705D01*
X69570Y140799D01*
X69553Y140900D01*
X69531Y140960D01*
X68821Y142734D01*
X68788Y142799D01*
X68734Y142882D01*
X68648Y142930D01*
X66667Y143299D01*
X66445Y143342D01*
X66206Y143385D01*
X66127Y143435D01*
X66098Y143521D01*
Y146098D01*
X66127Y146181D01*
X66206Y146228D01*
X66445Y146277D01*
X66667Y146314D01*
X68707Y146695D01*
X68796Y146742D01*
X68859Y146825D01*
X68896Y146911D01*
X69585Y148517D01*
X69624Y148616D01*
X69641Y148713D01*
X69613Y148805D01*
X68420Y150546D01*
X68289Y150731D01*
X68153Y150932D01*
X68131Y151021D01*
X68170Y151106D01*
X68338Y151280D01*
X68500Y151437D01*
X69992Y152928D01*
X70074Y152964D01*
X70161Y152945D01*
X70367Y152809D01*
X70552Y152678D01*
X72325Y151459D01*
X72423Y151430D01*
X72521Y151448D01*
X72607Y151480D01*
X72618Y151485D01*
X73364Y151839D01*
X74154Y152114D01*
X74257Y152153D01*
X74341Y152211D01*
X74386Y152299D01*
X74784Y154431D01*
X74821Y154653D01*
X74870Y154892D01*
X74917Y154968D01*
X75000Y155000D01*
G37*
G54D127*X24280Y251720D02*Y247800D01*
X22320Y249760D02*X26240D01*
X24280Y261520D02*Y257600D01*
X24180Y214220D02*Y210300D01*
X22220Y212260D02*X26140D01*
X24180Y224020D02*Y220100D01*
G54D128*X27000Y219800D02*X29400D01*
X28200D02*Y215000D01*
X30840Y215600D02*X31440Y215000D01*
X30840Y219200D02*Y215600D01*
Y219200D02*X31440Y219800D01*
X32640D01*
X33240Y219200D01*
Y215600D01*
X32640Y215000D02*X33240Y215600D01*
X31440Y215000D02*X32640D01*
X30840Y216200D02*X33240Y218600D01*
X10500Y32200D02*X13500Y37000D01*
X10500D02*X13500Y32200D01*
X21800Y37200D02*X24200D01*
X24800Y36600D01*
Y35400D01*
X24200Y34800D02*X24800Y35400D01*
X22400Y34800D02*X24200D01*
X22400Y37200D02*Y32400D01*
X23360Y34800D02*X24800Y32400D01*
X38500Y140900D02*X40900D01*
X41500Y140300D01*
Y139100D01*
X40900Y138500D02*X41500Y139100D01*
X39100Y138500D02*X40900D01*
X39100Y140900D02*Y136100D01*
X40060Y138500D02*X41500Y136100D01*
X49100Y136300D02*X52100Y141100D01*
X49100D02*X52100Y136300D01*
G54D127*X362400Y263920D02*X366320D01*
X364360Y265880D02*Y261960D01*
G54D128*X328000Y364400D02*X330400D01*
X329200Y365600D02*Y363200D01*
X334000Y366800D02*X336400D01*
X335200D02*Y362000D01*
X337840Y366200D02*X338440Y366800D01*
X340240D01*
X340840Y366200D01*
Y365000D01*
X337840Y362000D02*X340840Y365000D01*
X337840Y362000D02*X340840D01*
X344440Y364400D02*X346840D01*
X288000D02*X290400D01*
X289200Y365600D02*Y363200D01*
X294000Y366800D02*X296400D01*
X295200D02*Y362000D01*
X297840Y366200D02*X298440Y366800D01*
X299640D01*
X300240Y366200D01*
X299640Y362000D02*X300240Y362600D01*
X298440Y362000D02*X299640D01*
X297840Y362600D02*X298440Y362000D01*
Y364640D02*X299640D01*
X300240Y366200D02*Y365240D01*
Y364040D02*Y362600D01*
Y364040D02*X299640Y364640D01*
X300240Y365240D02*X299640Y364640D01*
X303840Y364400D02*X306240D01*
G54D129*X362500Y224020D02*X366620D01*
X364560Y226080D02*Y221960D01*
G54D128*X355000Y218800D02*X357400D01*
X356200D02*Y214000D01*
X358840Y217840D02*X359800Y218800D01*
Y214000D01*
X358840D02*X360640D01*
G54D127*X364280Y206420D02*Y202500D01*
X364180Y246220D02*Y242300D01*
G54D128*X248000Y364400D02*X250400D01*
X249200Y365600D02*Y363200D01*
X254000Y366800D02*X256400D01*
X255200D02*Y362000D01*
X257840Y363800D02*X260240Y366800D01*
X257840Y363800D02*X260840D01*
X260240Y366800D02*Y362000D01*
X264440Y364400D02*X266840D01*
X208000D02*X210400D01*
X209200Y365600D02*Y363200D01*
X214000Y366800D02*X216400D01*
X215200D02*Y362000D01*
X217840Y366800D02*X220240D01*
X217840D02*Y364400D01*
X218440Y365000D01*
X219640D01*
X220240Y364400D01*
Y362600D01*
X219640Y362000D02*X220240Y362600D01*
X218440Y362000D02*X219640D01*
X217840Y362600D02*X218440Y362000D01*
X223840Y364400D02*X226240D01*
X168000D02*X170400D01*
X169200Y365600D02*Y363200D01*
X174000Y366800D02*X176400D01*
X175200D02*Y362000D01*
X179640Y366800D02*X180240Y366200D01*
X178440Y366800D02*X179640D01*
X177840Y366200D02*X178440Y366800D01*
X177840Y366200D02*Y362600D01*
X178440Y362000D01*
X179640Y364640D02*X180240Y364040D01*
X177840Y364640D02*X179640D01*
X178440Y362000D02*X179640D01*
X180240Y362600D01*
Y364040D02*Y362600D01*
X183840Y364400D02*X186240D01*
X127000D02*X129400D01*
X128200Y365600D02*Y363200D01*
X133000Y366800D02*X135400D01*
X134200D02*Y362000D01*
X137440D02*X139840Y366800D01*
X136840D02*X139840D01*
X143440Y364400D02*X145840D01*
X89000D02*X91400D01*
X90200Y365600D02*Y363200D01*
X95000Y366800D02*X97400D01*
X96200D02*Y362000D01*
X98840Y362600D02*X99440Y362000D01*
X98840Y363560D02*Y362600D01*
Y363560D02*X99680Y364400D01*
X100400D01*
X101240Y363560D01*
Y362600D01*
X100640Y362000D02*X101240Y362600D01*
X99440Y362000D02*X100640D01*
X98840Y365240D02*X99680Y364400D01*
X98840Y366200D02*Y365240D01*
Y366200D02*X99440Y366800D01*
X100640D01*
X101240Y366200D01*
Y365240D01*
X100400Y364400D02*X101240Y365240D01*
X104840Y364400D02*X107240D01*
X48000D02*X50400D01*
X49200Y365600D02*Y363200D01*
X54000Y366800D02*X56400D01*
X55200D02*Y362000D01*
X58440D02*X60240Y364400D01*
Y366200D02*Y364400D01*
X59640Y366800D02*X60240Y366200D01*
X58440Y366800D02*X59640D01*
X57840Y366200D02*X58440Y366800D01*
X57840Y366200D02*Y365000D01*
X58440Y364400D01*
X60240D01*
X63840D02*X66240D01*
X93200Y164840D02*X95120D01*
X95600Y164360D01*
Y163400D01*
X95120Y162920D02*X95600Y163400D01*
X93680Y162920D02*X95120D01*
X93680Y164840D02*Y161000D01*
X94448Y162920D02*X95600Y161000D01*
X97232D02*X98672D01*
X96752Y161480D02*X97232Y161000D01*
X96752Y162440D02*Y161480D01*
Y162440D02*X97232Y162920D01*
X98192D01*
X98672Y162440D01*
X96752Y161960D02*X98672D01*
Y162440D02*Y161960D01*
X100304Y162440D02*Y161000D01*
Y162440D02*X100784Y162920D01*
X101264D01*
X101744Y162440D01*
Y161000D01*
Y162440D02*X102224Y162920D01*
X102704D01*
X103184Y162440D01*
Y161000D01*
X99824Y162920D02*X100304Y162440D01*
X104336D02*Y161480D01*
Y162440D02*X104816Y162920D01*
X105776D01*
X106256Y162440D01*
Y161480D01*
X105776Y161000D02*X106256Y161480D01*
X104816Y161000D02*X105776D01*
X104336Y161480D02*X104816Y161000D01*
X107888Y164840D02*Y161480D01*
X108368Y161000D01*
X107408Y163400D02*X108368D01*
X109808Y161000D02*X111248D01*
X109328Y161480D02*X109808Y161000D01*
X109328Y162440D02*Y161480D01*
Y162440D02*X109808Y162920D01*
X110768D01*
X111248Y162440D01*
X109328Y161960D02*X111248D01*
Y162440D02*Y161960D01*
X114608Y164840D02*Y161000D01*
X114128Y164840D02*X116048D01*
X116528Y164360D01*
Y163400D01*
X116048Y162920D02*X116528Y163400D01*
X114608Y162920D02*X116048D01*
X117680Y162440D02*Y161480D01*
Y162440D02*X118160Y162920D01*
X119120D01*
X119600Y162440D01*
Y161480D01*
X119120Y161000D02*X119600Y161480D01*
X118160Y161000D02*X119120D01*
X117680Y161480D02*X118160Y161000D01*
X120752Y162920D02*Y161480D01*
X121232Y161000D01*
X121712D01*
X122192Y161480D01*
Y162920D02*Y161480D01*
X122672Y161000D01*
X123152D01*
X123632Y161480D01*
Y162920D02*Y161480D01*
X125264Y161000D02*X126704D01*
X124784Y161480D02*X125264Y161000D01*
X124784Y162440D02*Y161480D01*
Y162440D02*X125264Y162920D01*
X126224D01*
X126704Y162440D01*
X124784Y161960D02*X126704D01*
Y162440D02*Y161960D01*
X128336Y162440D02*Y161000D01*
Y162440D02*X128816Y162920D01*
X129776D01*
X127856D02*X128336Y162440D01*
X134576Y164840D02*X135056Y164360D01*
X133136Y164840D02*X134576D01*
X132656Y164360D02*X133136Y164840D01*
X132656Y164360D02*Y163400D01*
X133136Y162920D01*
X134576D01*
X135056Y162440D01*
Y161480D01*
X134576Y161000D02*X135056Y161480D01*
X133136Y161000D02*X134576D01*
X132656Y161480D02*X133136Y161000D01*
X136208Y162920D02*Y161480D01*
X136688Y161000D01*
X137168D01*
X137648Y161480D01*
Y162920D02*Y161480D01*
X138128Y161000D01*
X138608D01*
X139088Y161480D01*
Y162920D02*Y161480D01*
X140240Y163880D02*Y163784D01*
Y162440D02*Y161000D01*
X141680Y164840D02*Y161480D01*
X142160Y161000D01*
X141200Y163400D02*X142160D01*
X143600Y162920D02*X145040D01*
X143120Y162440D02*X143600Y162920D01*
X143120Y162440D02*Y161480D01*
X143600Y161000D01*
X145040D01*
X146192Y164840D02*Y161000D01*
Y162440D02*X146672Y162920D01*
X147632D01*
X148112Y162440D01*
Y161000D01*
X98200Y157340D02*Y153500D01*
Y157340D02*X99640Y155420D01*
X101080Y157340D01*
Y153500D01*
X103672Y155420D02*X104152Y154940D01*
X102712Y155420D02*X103672D01*
X102232Y154940D02*X102712Y155420D01*
X102232Y154940D02*Y153980D01*
X102712Y153500D01*
X104152Y155420D02*Y153980D01*
X104632Y153500D01*
X102712D02*X103672D01*
X104152Y153980D01*
X106264Y153500D02*X107704D01*
X108184Y153980D01*
X107704Y154460D02*X108184Y153980D01*
X106264Y154460D02*X107704D01*
X105784Y154940D02*X106264Y154460D01*
X105784Y154940D02*X106264Y155420D01*
X107704D01*
X108184Y154940D01*
X105784Y153980D02*X106264Y153500D01*
X109816Y157340D02*Y153980D01*
X110296Y153500D01*
X109336Y155900D02*X110296D01*
X111736Y153500D02*X113176D01*
X111256Y153980D02*X111736Y153500D01*
X111256Y154940D02*Y153980D01*
Y154940D02*X111736Y155420D01*
X112696D01*
X113176Y154940D01*
X111256Y154460D02*X113176D01*
Y154940D02*Y154460D01*
X114808Y154940D02*Y153500D01*
Y154940D02*X115288Y155420D01*
X116248D01*
X114328D02*X114808Y154940D01*
X119128Y157340D02*X121048D01*
X121528Y156860D01*
Y155900D01*
X121048Y155420D02*X121528Y155900D01*
X119608Y155420D02*X121048D01*
X119608Y157340D02*Y153500D01*
X120376Y155420D02*X121528Y153500D01*
X123160D02*X124600D01*
X122680Y153980D02*X123160Y153500D01*
X122680Y154940D02*Y153980D01*
Y154940D02*X123160Y155420D01*
X124120D01*
X124600Y154940D01*
X122680Y154460D02*X124600D01*
Y154940D02*Y154460D01*
X126232Y155420D02*X127672D01*
X125752Y154940D02*X126232Y155420D01*
X125752Y154940D02*Y153980D01*
X126232Y153500D01*
X127672D01*
X129304D02*X130744D01*
X128824Y153980D02*X129304Y153500D01*
X128824Y154940D02*Y153980D01*
Y154940D02*X129304Y155420D01*
X130264D01*
X130744Y154940D01*
X128824Y154460D02*X130744D01*
Y154940D02*Y154460D01*
X131896Y156380D02*Y156284D01*
Y154940D02*Y153500D01*
X132856Y155420D02*X133816Y153500D01*
X134776Y155420D02*X133816Y153500D01*
X136408D02*X137848D01*
X135928Y153980D02*X136408Y153500D01*
X135928Y154940D02*Y153980D01*
Y154940D02*X136408Y155420D01*
X137368D01*
X137848Y154940D01*
X135928Y154460D02*X137848D01*
Y154940D02*Y154460D01*
X139480Y154940D02*Y153500D01*
Y154940D02*X139960Y155420D01*
X140920D01*
X139000D02*X139480Y154940D01*
X88200Y149840D02*Y146000D01*
Y147920D02*X90120Y149840D01*
X88200Y147920D02*X90120Y146000D01*
X91272D02*X91752D01*
X94632Y149840D02*Y147920D01*
X95112Y146000D01*
X96072Y147920D01*
X97032Y146000D01*
X97512Y147920D01*
Y149840D02*Y147920D01*
X98664Y146000D02*X99144D01*
X103944Y149840D02*X104424Y149360D01*
X102504Y149840D02*X103944D01*
X102024Y149360D02*X102504Y149840D01*
X102024Y149360D02*Y148400D01*
X102504Y147920D01*
X103944D01*
X104424Y147440D01*
Y146480D01*
X103944Y146000D02*X104424Y146480D01*
X102504Y146000D02*X103944D01*
X102024Y146480D02*X102504Y146000D01*
X107016Y147920D02*X107496Y147440D01*
X106056Y147920D02*X107016D01*
X105576Y147440D02*X106056Y147920D01*
X105576Y147440D02*Y146480D01*
X106056Y146000D01*
X107496Y147920D02*Y146480D01*
X107976Y146000D01*
X106056D02*X107016D01*
X107496Y146480D01*
X109608Y147440D02*Y146000D01*
Y147440D02*X110088Y147920D01*
X111048D01*
X109128D02*X109608Y147440D01*
X112200Y149840D02*Y146000D01*
Y147440D02*X113640Y146000D01*
X112200Y147440D02*X113160Y148400D01*
X114792Y148880D02*Y148784D01*
Y147440D02*Y146000D01*
X116232D02*X117672D01*
X115752Y146480D02*X116232Y146000D01*
X115752Y147440D02*Y146480D01*
Y147440D02*X116232Y147920D01*
X117192D01*
X117672Y147440D01*
X115752Y146960D02*X117672D01*
Y147440D02*Y146960D01*
X119304Y146000D02*X120744D01*
X121224Y146480D01*
X120744Y146960D02*X121224Y146480D01*
X119304Y146960D02*X120744D01*
X118824Y147440D02*X119304Y146960D01*
X118824Y147440D02*X119304Y147920D01*
X120744D01*
X121224Y147440D01*
X118824Y146480D02*X119304Y146000D01*
X85700Y142340D02*X86660Y138500D01*
X87620Y142340D01*
X89252Y138500D02*X90692D01*
X88772Y138980D02*X89252Y138500D01*
X88772Y139940D02*Y138980D01*
Y139940D02*X89252Y140420D01*
X90212D01*
X90692Y139940D01*
X88772Y139460D02*X90692D01*
Y139940D02*Y139460D01*
X92324Y139940D02*Y138500D01*
Y139940D02*X92804Y140420D01*
X93764D01*
X91844D02*X92324Y139940D01*
X95396Y138500D02*X96836D01*
X97316Y138980D01*
X96836Y139460D02*X97316Y138980D01*
X95396Y139460D02*X96836D01*
X94916Y139940D02*X95396Y139460D01*
X94916Y139940D02*X95396Y140420D01*
X96836D01*
X97316Y139940D01*
X94916Y138980D02*X95396Y138500D01*
X98468Y141380D02*Y141284D01*
Y139940D02*Y138500D01*
X99428Y139940D02*Y138980D01*
Y139940D02*X99908Y140420D01*
X100868D01*
X101348Y139940D01*
Y138980D01*
X100868Y138500D02*X101348Y138980D01*
X99908Y138500D02*X100868D01*
X99428Y138980D02*X99908Y138500D01*
X102980Y139940D02*Y138500D01*
Y139940D02*X103460Y140420D01*
X103940D01*
X104420Y139940D01*
Y138500D01*
X102500Y140420D02*X102980Y139940D01*
X107300Y138980D02*X107780Y138500D01*
X107300Y141860D02*Y138980D01*
Y141860D02*X107780Y142340D01*
X108740D01*
X109220Y141860D01*
Y138980D01*
X108740Y138500D02*X109220Y138980D01*
X107780Y138500D02*X108740D01*
X107300Y139460D02*X109220Y141380D01*
X110372Y138500D02*X110852D01*
X112004Y138980D02*X112484Y138500D01*
X112004Y141860D02*Y138980D01*
Y141860D02*X112484Y142340D01*
X113444D01*
X113924Y141860D01*
Y138980D01*
X113444Y138500D02*X113924Y138980D01*
X112484Y138500D02*X113444D01*
X112004Y139460D02*X113924Y141380D01*
X118200Y142340D02*Y138500D01*
X120120D01*
X121272Y141380D02*Y141284D01*
Y139940D02*Y138500D01*
X122712Y140420D02*X124152D01*
X122232Y139940D02*X122712Y140420D01*
X122232Y139940D02*Y138980D01*
X122712Y138500D01*
X124152D01*
X125784D02*X127224D01*
X125304Y138980D02*X125784Y138500D01*
X125304Y139940D02*Y138980D01*
Y139940D02*X125784Y140420D01*
X126744D01*
X127224Y139940D01*
X125304Y139460D02*X127224D01*
Y139940D02*Y139460D01*
X128856Y139940D02*Y138500D01*
Y139940D02*X129336Y140420D01*
X129816D01*
X130296Y139940D01*
Y138500D01*
X128376Y140420D02*X128856Y139940D01*
X131928Y140420D02*X133368D01*
X131448Y139940D02*X131928Y140420D01*
X131448Y139940D02*Y138980D01*
X131928Y138500D01*
X133368D01*
X135000D02*X136440D01*
X134520Y138980D02*X135000Y138500D01*
X134520Y139940D02*Y138980D01*
Y139940D02*X135000Y140420D01*
X135960D01*
X136440Y139940D01*
X134520Y139460D02*X136440D01*
Y139940D02*Y139460D01*
X139800Y140420D02*X141240D01*
X139320Y139940D02*X139800Y140420D01*
X139320Y139940D02*Y138980D01*
X139800Y138500D01*
X141240D01*
X142872Y140420D02*X144312D01*
X142392Y139940D02*X142872Y140420D01*
X142392Y139940D02*Y138980D01*
X142872Y138500D01*
X144312D01*
X145464Y140420D02*X147384D01*
X148536Y142340D02*Y138500D01*
Y138980D02*X149016Y138500D01*
X149976D01*
X150456Y138980D01*
Y139940D02*Y138980D01*
X149976Y140420D02*X150456Y139940D01*
X149016Y140420D02*X149976D01*
X148536Y139940D02*X149016Y140420D01*
X151608D02*Y138980D01*
X152088Y138500D01*
X153528Y140420D02*Y137540D01*
X153048Y137060D02*X153528Y137540D01*
X152088Y137060D02*X153048D01*
X151608Y137540D02*X152088Y137060D01*
Y138500D02*X153048D01*
X153528Y138980D01*
X154680Y140420D02*X156600D01*
X158232Y138500D02*X159672D01*
X160152Y138980D01*
X159672Y139460D02*X160152Y138980D01*
X158232Y139460D02*X159672D01*
X157752Y139940D02*X158232Y139460D01*
X157752Y139940D02*X158232Y140420D01*
X159672D01*
X160152Y139940D01*
X157752Y138980D02*X158232Y138500D01*
X162744Y140420D02*X163224Y139940D01*
X161784Y140420D02*X162744D01*
X161304Y139940D02*X161784Y140420D01*
X161304Y139940D02*Y138980D01*
X161784Y138500D01*
X163224Y140420D02*Y138980D01*
X163704Y138500D01*
X161784D02*X162744D01*
X163224Y138980D01*
X125200Y149000D02*X126000Y149800D01*
Y145800D01*
X125200D02*X126700D01*
X127900Y149300D02*X128400Y149800D01*
X129900D01*
X130400Y149300D01*
Y148300D01*
X127900Y145800D02*X130400Y148300D01*
X127900Y145800D02*X130400D01*
X131600Y146300D02*X134600Y149300D01*
X135800Y146300D02*X136300Y145800D01*
X135800Y149300D02*Y146300D01*
Y149300D02*X136300Y149800D01*
X137300D01*
X137800Y149300D01*
Y146300D01*
X137300Y145800D02*X137800Y146300D01*
X136300Y145800D02*X137300D01*
X135800Y146800D02*X137800Y148800D01*
X139000Y149800D02*X141000D01*
X139000D02*Y147800D01*
X139500Y148300D01*
X140500D01*
X141000Y147800D01*
Y146300D01*
X140500Y145800D02*X141000Y146300D01*
X139500Y145800D02*X140500D01*
X139000Y146300D02*X139500Y145800D01*
X142200Y146300D02*X145200Y149300D01*
X146400D02*X146900Y149800D01*
X148400D01*
X148900Y149300D01*
Y148300D01*
X146400Y145800D02*X148900Y148300D01*
X146400Y145800D02*X148900D01*
X150100Y146300D02*X150600Y145800D01*
X150100Y149300D02*Y146300D01*
Y149300D02*X150600Y149800D01*
X151600D01*
X152100Y149300D01*
Y146300D01*
X151600Y145800D02*X152100Y146300D01*
X150600Y145800D02*X151600D01*
X150100Y146800D02*X152100Y148800D01*
X153300Y149000D02*X154100Y149800D01*
Y145800D01*
X153300D02*X154800D01*
X156000Y147300D02*X158000Y149800D01*
X156000Y147300D02*X158500D01*
X158000Y149800D02*Y145800D01*
X95000Y132800D02*Y131300D01*
X95500Y130800D01*
X96000D01*
X96500Y131300D01*
Y132800D02*Y131300D01*
X97000Y130800D01*
X97500D01*
X98000Y131300D01*
Y132800D02*Y131300D01*
X99200Y132800D02*Y131300D01*
X99700Y130800D01*
X100200D01*
X100700Y131300D01*
Y132800D02*Y131300D01*
X101200Y130800D01*
X101700D01*
X102200Y131300D01*
Y132800D02*Y131300D01*
X103400Y132800D02*Y131300D01*
X103900Y130800D01*
X104400D01*
X104900Y131300D01*
Y132800D02*Y131300D01*
X105400Y130800D01*
X105900D01*
X106400Y131300D01*
Y132800D02*Y131300D01*
X107600Y130800D02*X108100D01*
X109800Y133800D02*Y133700D01*
Y132300D02*Y129800D01*
X109300Y129300D02*X109800Y129800D01*
X110800Y133800D02*Y133700D01*
Y132300D02*Y130800D01*
X113300Y132800D02*X113800Y132300D01*
X112300Y132800D02*X113300D01*
X111800Y132300D02*X112300Y132800D01*
X111800Y132300D02*Y131300D01*
X112300Y130800D01*
X113300D01*
X113800Y131300D01*
X111800Y129800D02*X112300Y129300D01*
X113300D01*
X113800Y129800D01*
Y132800D02*Y129800D01*
X116500Y132800D02*X117000Y132300D01*
X115500Y132800D02*X116500D01*
X115000Y132300D02*X115500Y132800D01*
X115000Y132300D02*Y131300D01*
X115500Y130800D01*
X116500D01*
X117000Y131300D01*
X115000Y129800D02*X115500Y129300D01*
X116500D01*
X117000Y129800D01*
Y132800D02*Y129800D01*
X118700Y130800D02*X120200D01*
X118200Y131300D02*X118700Y130800D01*
X118200Y132300D02*Y131300D01*
Y132300D02*X118700Y132800D01*
X119700D01*
X120200Y132300D01*
X118200Y131800D02*X120200D01*
Y132300D02*Y131800D01*
X121900Y132300D02*Y130800D01*
Y132300D02*X122400Y132800D01*
X123400D01*
X121400D02*X121900Y132300D01*
X125100Y133800D02*Y133700D01*
Y132300D02*Y129800D01*
X124600Y129300D02*X125100Y129800D01*
X126100Y132800D02*Y131300D01*
X126600Y130800D01*
X127600D01*
X128100Y131300D01*
Y132800D02*Y131300D01*
X129300Y133800D02*Y133700D01*
Y132300D02*Y130800D01*
X130800Y132800D02*X132300D01*
X130300Y132300D02*X130800Y132800D01*
X130300Y132300D02*Y131300D01*
X130800Y130800D01*
X132300D01*
X134000D02*X135500D01*
X133500Y131300D02*X134000Y130800D01*
X133500Y132300D02*Y131300D01*
Y132300D02*X134000Y132800D01*
X135000D01*
X135500Y132300D01*
X133500Y131800D02*X135500D01*
Y132300D02*Y131800D01*
X136700Y130800D02*X137200D01*
X138400Y133800D02*Y133700D01*
Y132300D02*Y130800D01*
X139900Y132300D02*Y130800D01*
Y132300D02*X140400Y132800D01*
X140900D01*
X141400Y132300D01*
Y130800D01*
X139400Y132800D02*X139900Y132300D01*
X143100Y134300D02*Y130800D01*
Y134300D02*X143600Y134800D01*
X144100D01*
X142600Y132800D02*X143600D01*
X145100Y132300D02*Y131300D01*
Y132300D02*X145600Y132800D01*
X146600D01*
X147100Y132300D01*
Y131300D01*
X146600Y130800D02*X147100Y131300D01*
X145600Y130800D02*X146600D01*
X145100Y131300D02*X145600Y130800D01*
G54D130*X163500Y59500D02*X183500D01*
Y49500D02*X163500D01*
X183500D02*G75*G03X183500Y59500I0J5000D01*G01*
X163500D02*G75*G03X163500Y49500I0J-5000D01*G01*
G54D131*X100000Y75000D02*X240000D01*
Y115000D02*Y75000D01*
X100000Y115000D02*X240000D01*
X100000Y90000D02*Y75000D01*
Y115000D02*Y100000D01*
Y90000D02*G75*G03X100000Y100000I0J5000D01*G01*
X168000Y45000D02*Y44500D01*
X148000Y45000D02*X168000D01*
X148000D02*Y44500D01*
Y35500D02*Y35000D01*
X168000D01*
Y35500D02*Y35000D01*
X179000Y35500D02*Y35000D01*
X199000D01*
Y35500D02*Y35000D01*
Y45000D02*Y44500D01*
X179000Y45000D02*X199000D01*
X179000D02*Y44500D01*
X145000Y13500D02*X203000D01*
X145000Y21500D02*Y13500D01*
Y21500D02*X203000D01*
Y13500D01*
G54D130*X240000Y16500D02*X280000D01*
X240000Y34500D02*Y16500D01*
Y34500D02*X280000D01*
Y16500D01*
X240000D02*X280000D01*
X240000Y22500D02*Y16500D01*
Y22500D02*X280000D01*
Y16500D01*
G54D131*X267000Y22500D02*Y16500D01*
X253000Y22500D02*Y16500D01*
G54D132*X260000Y38500D02*Y34500D01*
G54D131*X231000Y17500D02*X231500D01*
Y37500D02*Y17500D01*
X231000Y37500D02*X231500D01*
X221500D02*X222000D01*
X221500D02*Y17500D01*
X222000D01*
X166500Y158500D02*X226500D01*
X166500D02*Y138500D01*
X226500D01*
Y158500D02*Y138500D01*
X216500Y158500D02*Y148500D01*
X226500D01*
X294800Y39700D02*Y35700D01*
X292800Y37700D02*X296800D01*
X294800Y11700D02*Y7700D01*
Y33700D02*G75*G03X294800Y33700I0J-10000D01*G01*
G54D128*X352000Y57200D02*Y700D01*
X318000Y57200D02*X352000D01*
X318000D02*Y700D01*
X352000D01*
X347000Y4200D02*Y700D01*
X323000Y4200D02*Y700D01*
Y30000D02*X347000D01*
X323000Y29900D02*Y26700D01*
X347000Y29900D02*Y26700D01*
Y23200D02*Y20200D01*
X323000Y23200D02*Y20200D01*
Y16700D02*Y13700D01*
X347000Y16700D02*Y13700D01*
Y10200D02*Y7200D01*
X323000Y10200D02*Y7200D01*
X331500Y30000D02*Y6800D01*
X338500Y30000D02*Y6500D01*
X345500Y45000D02*X344500Y44000D01*
X334500Y50500D02*Y39500D01*
X340000Y38000D02*Y32500D01*
X337000Y38500D02*X337500D01*
X339500Y48500D02*X346000D01*
Y41500D01*
X342500Y45000D02*X345500D01*
X342500D02*Y38000D01*
X349500D01*
X352000Y40500D01*
X345500Y45000D02*X344500Y46000D01*
X335500Y50500D02*Y39500D01*
X340000Y32500D02*X337000Y31000D01*
X339500Y43500D02*Y42500D01*
X335500Y49500D02*X336500D01*
X333500D02*X334500D01*
X332000D02*X332500D01*
X330500D02*X331000D01*
X330500D02*Y48500D01*
Y47500D02*Y46500D01*
Y45500D02*Y44500D01*
Y43500D02*Y42500D01*
Y41500D02*Y40500D01*
Y39500D02*Y38500D01*
X339500Y45500D02*Y44500D01*
Y39500D02*Y38500D01*
Y41500D02*Y40500D01*
X337500Y49500D02*X338000D01*
X339000D02*X339500D01*
Y48500D01*
Y47500D02*Y46500D01*
X332500Y38500D02*X333000D01*
X338000Y47000D02*Y40000D01*
X335000Y3200D02*G75*G03X338500Y6700I0J3500D01*G01*
X331500Y7200D02*G75*G03X335500Y3200I4000J0D01*G01*
X334500Y39500D02*G75*G03X335000Y39000I500J0D01*G01*
Y39002D02*G75*G03X335500Y39502I0J500D01*G01*
X340000Y33000D02*G75*G03X339500Y32500I0J-500D01*G01*
Y32501D02*G75*G03X340001Y32000I501J0D01*G01*
X340000Y38000D02*G75*G03X339000Y39000I-1000J0D01*G01*
X340500Y32500D02*G75*G03X340000Y33000I-500J0D01*G01*
X339999Y32000D02*G75*G03X340500Y32501I0J501D01*G01*
X339500Y48501D02*G75*G03X338000Y47001I0J-1500D01*G01*
Y40000D02*G75*G03X339000Y39000I1000J0D01*G01*
G54D131*X259500Y70000D02*X263500D01*
X261500Y72000D02*Y68000D01*
X287500Y70000D02*X291500D01*
X265500D02*G75*G03X265500Y70000I10000J0D01*G01*
Y85000D02*X345500D01*
Y125000D02*Y85000D01*
X265500Y125000D02*X345500D01*
X265500Y100000D02*Y85000D01*
Y125000D02*Y110000D01*
Y100000D02*G75*G03X265500Y110000I0J5000D01*G01*
X289500Y70000D02*X293500D01*
X291500Y72000D02*Y68000D01*
X317500Y70000D02*X321500D01*
X295500D02*G75*G03X295500Y70000I10000J0D01*G01*
X280500Y46000D02*Y45500D01*
X300500D01*
Y46000D02*Y45500D01*
Y55500D02*Y55000D01*
X280500Y55500D02*X300500D01*
X280500D02*Y55000D01*
X85000Y29000D02*Y19000D01*
X105000Y29000D02*Y19000D01*
X90000Y14000D02*X100000D01*
X90000Y34000D02*X100000D01*
X90000Y24000D02*G75*G03X90000Y24000I5000J0D01*G01*
X63000Y100000D02*X63500D01*
X63000D02*Y80000D01*
X63500D01*
X72500D02*X73000D01*
Y100000D02*Y80000D01*
X72500Y100000D02*X73000D01*
G54D130*X89500Y109500D02*Y89500D01*
X79500D02*X89500D01*
X79500Y109500D02*Y89500D01*
Y109500D02*X89500D01*
X84500Y119500D02*Y109500D01*
Y89500D02*Y79500D01*
X80500Y48000D02*X100500D01*
X80500Y58000D02*Y48000D01*
Y58000D02*X100500D01*
Y48000D01*
Y53000D02*X110500D01*
X70500D02*X80500D01*
G54D131*X20000Y38000D02*X28000D01*
Y56000D02*Y38000D01*
X20000Y56000D02*X28000D01*
X20000D02*Y38000D01*
X9000D02*X17000D01*
Y56000D02*Y38000D01*
X9000Y56000D02*X17000D01*
X9000D02*Y38000D01*
X3725Y129611D02*X55611D01*
X3725D02*Y65126D01*
X55611D01*
Y129611D02*Y65126D01*
X36000Y142000D02*X44000D01*
Y160000D02*Y142000D01*
X36000Y160000D02*X44000D01*
X36000D02*Y142000D01*
X47000D02*X55000D01*
Y160000D02*Y142000D01*
X47000Y160000D02*X55000D01*
X47000D02*Y142000D01*
X88000Y280500D02*X102000D01*
X87929Y280571D02*G75*G03X102071Y280571I7071J-7071D01*G01*
X42205Y326767D02*X67795D01*
X59922D02*Y310035D01*
X67796D01*
Y326766D02*X67795Y326767D01*
X42205Y310035D02*X50079D01*
Y326767D01*
X42205Y310035D02*Y360232D01*
X67796Y310035D02*Y360231D01*
X67795Y360232D01*
X42205D02*X67795D01*
X35000Y368500D02*Y388500D01*
X75000Y368500D02*X35000D01*
X75000Y388500D02*Y368500D01*
X35000Y388500D02*X75000D01*
Y368500D02*Y388500D01*
X115000Y368500D02*X75000D01*
X115000Y388500D02*Y368500D01*
X75000Y388500D02*X115000D01*
Y368500D02*Y388500D01*
X155000Y368500D02*X115000D01*
X155000Y388500D02*Y368500D01*
X115000Y388500D02*X155000D01*
G54D130*X85000Y293500D02*X105000D01*
Y283500D01*
X85000D01*
Y293500D01*
X75000Y288500D02*X85000D01*
X105000D02*X115000D01*
X45000Y303500D02*X65000D01*
Y293500D01*
X45000D01*
Y303500D01*
X35000Y298500D02*X45000D01*
X65000D02*X75000D01*
G54D131*X371000Y86000D02*X379000D01*
Y124000D02*Y86000D01*
X371000Y124000D02*X379000D01*
X371000D02*Y86000D01*
G54D130*X325000Y293500D02*X345000D01*
Y283500D01*
X325000D01*
Y293500D01*
X315000Y288500D02*X325000D01*
X345000D02*X355000D01*
G54D131*X288000Y280500D02*X302000D01*
X287929Y280571D02*G75*G03X302071Y280571I7071J-7071D01*G01*
X248000Y280500D02*X262000D01*
X247929Y280571D02*G75*G03X262071Y280571I7071J-7071D01*G01*
G54D130*X290000Y248500D02*Y228500D01*
Y248500D02*X300000D01*
Y228500D01*
X290000D02*X300000D01*
X295000D02*Y218500D01*
Y258500D02*Y248500D01*
X245000Y293500D02*X265000D01*
Y283500D01*
X245000D01*
Y293500D01*
X235000Y288500D02*X245000D01*
X265000D02*X275000D01*
X250000Y248500D02*Y228500D01*
Y248500D02*X260000D01*
Y228500D01*
X250000D02*X260000D01*
X255000D02*Y218500D01*
Y258500D02*Y248500D01*
X245000Y202500D02*Y182500D01*
X235000D02*X245000D01*
X235000Y202500D02*Y182500D01*
Y202500D02*X245000D01*
X240000Y212500D02*Y202500D01*
Y182500D02*Y172500D01*
G54D131*X269500Y199500D02*Y185500D01*
X269571Y199571D02*G75*G03X269571Y185429I-7071J-7071D01*G01*
G54D130*X290000Y202500D02*Y182500D01*
X280000D02*X290000D01*
X280000Y202500D02*Y182500D01*
Y202500D02*X290000D01*
X285000Y212500D02*Y202500D01*
Y182500D02*Y172500D01*
G54D131*X314704Y205295D02*Y179705D01*
X297972Y187578D02*X314704D01*
X297972D02*Y179704D01*
X314703D02*X314704Y179705D01*
X297972Y205295D02*Y197421D01*
X314704D01*
X297972Y205295D02*X348169D01*
X297972Y179704D02*X348168D01*
X348169Y179705D01*
Y205295D02*Y179705D01*
X304500Y145000D02*X308500D01*
X306500Y147000D02*Y143000D01*
X332500Y145000D02*X336500D01*
X310500D02*G75*G03X310500Y145000I10000J0D01*G01*
X265000D02*X269000D01*
X267000Y147000D02*Y143000D01*
X293000Y145000D02*X297000D01*
X271000D02*G75*G03X271000Y145000I10000J0D01*G01*
X370000Y275000D02*X390000D01*
X370000D02*Y235000D01*
X390000D01*
Y275000D02*Y235000D01*
X370000D02*X390000D01*
X370000D02*Y195000D01*
X390000D01*
Y235000D02*Y195000D01*
X328000Y280500D02*X342000D01*
X327929Y280571D02*G75*G03X342071Y280571I7071J-7071D01*G01*
G54D130*X330000Y248500D02*Y228500D01*
Y248500D02*X340000D01*
Y228500D01*
X330000D02*X340000D01*
X335000D02*Y218500D01*
Y258500D02*Y248500D01*
X100000Y202500D02*Y182500D01*
Y202500D02*X110000D01*
Y182500D01*
X100000D02*X110000D01*
X105000D02*Y172500D01*
Y212500D02*Y202500D01*
X130000Y248500D02*Y228500D01*
Y248500D02*X140000D01*
Y228500D01*
X130000D02*X140000D01*
X135000D02*Y218500D01*
Y258500D02*Y248500D01*
X152500Y202500D02*Y182500D01*
X142500D02*X152500D01*
X142500Y202500D02*Y182500D01*
Y202500D02*X152500D01*
X147500Y212500D02*Y202500D01*
Y182500D02*Y172500D01*
G54D131*X208000Y280500D02*X222000D01*
X207929Y280571D02*G75*G03X222071Y280571I7071J-7071D01*G01*
G54D130*X210000Y248500D02*Y228500D01*
Y248500D02*X220000D01*
Y228500D01*
X210000D02*X220000D01*
X215000D02*Y218500D01*
Y258500D02*Y248500D01*
X205000Y303500D02*X225000D01*
Y293500D01*
X205000D01*
Y303500D01*
X195000Y298500D02*X205000D01*
X225000D02*X235000D01*
G54D131*X166500Y188500D02*X226500D01*
X166500D02*Y168500D01*
X226500D01*
Y188500D02*Y168500D01*
X216500Y188500D02*Y178500D01*
X226500D01*
X322205Y326767D02*X347795D01*
X339922D02*Y310035D01*
X347796D01*
Y326766D02*X347795Y326767D01*
X322205Y310035D02*X330079D01*
Y326767D01*
X322205Y310035D02*Y360232D01*
X347796Y310035D02*Y360231D01*
X347795Y360232D01*
X322205D02*X347795D01*
G54D130*X285000Y303500D02*X305000D01*
Y293500D01*
X285000D01*
Y303500D01*
X275000Y298500D02*X285000D01*
X305000D02*X315000D01*
G54D131*X282205Y326767D02*X307795D01*
X299922D02*Y310035D01*
X307796D01*
Y326766D02*X307795Y326767D01*
X282205Y310035D02*X290079D01*
Y326767D01*
X282205Y310035D02*Y360232D01*
X307796Y310035D02*Y360231D01*
X307795Y360232D01*
X282205D02*X307795D01*
X242205Y326767D02*X267795D01*
X259922D02*Y310035D01*
X267796D01*
Y326766D02*X267795Y326767D01*
X242205Y310035D02*X250079D01*
Y326767D01*
X242205Y310035D02*Y360232D01*
X267796Y310035D02*Y360231D01*
X267795Y360232D01*
X242205D02*X267795D01*
X202205Y326767D02*X227795D01*
X219922D02*Y310035D01*
X227796D01*
Y326766D02*X227795Y326767D01*
X202205Y310035D02*X210079D01*
Y326767D01*
X202205Y310035D02*Y360232D01*
X227796Y310035D02*Y360231D01*
X227795Y360232D01*
X202205D02*X227795D01*
X162205Y326767D02*X187795D01*
X179922D02*Y310035D01*
X187796D01*
Y326766D02*X187795Y326767D01*
X162205Y310035D02*X170079D01*
Y326767D01*
X162205Y310035D02*Y360232D01*
X187796Y310035D02*Y360231D01*
X187795Y360232D01*
X162205D02*X187795D01*
X122205Y326767D02*X147795D01*
X139922D02*Y310035D01*
X147796D01*
Y326766D02*X147795Y326767D01*
X122205Y310035D02*X130079D01*
Y326767D01*
X122205Y310035D02*Y360232D01*
X147796Y310035D02*Y360231D01*
X147795Y360232D01*
X122205D02*X147795D01*
X82205Y326767D02*X107795D01*
X99922D02*Y310035D01*
X107796D01*
Y326766D02*X107795Y326767D01*
X82205Y310035D02*X90079D01*
Y326767D01*
X82205Y310035D02*Y360232D01*
X107796Y310035D02*Y360231D01*
X107795Y360232D01*
X82205D02*X107795D01*
X128000Y280500D02*X142000D01*
X127929Y280571D02*G75*G03X142071Y280571I7071J-7071D01*G01*
X168000Y280500D02*X182000D01*
X167929Y280571D02*G75*G03X182071Y280571I7071J-7071D01*G01*
G54D130*X170000Y248500D02*Y228500D01*
Y248500D02*X180000D01*
Y228500D01*
X170000D02*X180000D01*
X175000D02*Y218500D01*
Y258500D02*Y248500D01*
X125000Y303500D02*X145000D01*
Y293500D01*
X125000D01*
Y303500D01*
X115000Y298500D02*X125000D01*
X145000D02*X155000D01*
X165000Y293500D02*X185000D01*
Y283500D01*
X165000D01*
Y293500D01*
X155000Y288500D02*X165000D01*
X185000D02*X195000D01*
G54D131*X155000Y368500D02*Y388500D01*
X195000Y368500D02*X155000D01*
X195000Y388500D02*Y368500D01*
X155000Y388500D02*X195000D01*
Y368500D02*Y388500D01*
X235000Y368500D02*X195000D01*
X235000Y388500D02*Y368500D01*
X195000Y388500D02*X235000D01*
X275000Y368500D02*Y388500D01*
X315000Y368500D02*X275000D01*
X315000Y388500D02*Y368500D01*
X275000Y388500D02*X315000D01*
Y368500D02*Y388500D01*
X355000Y368500D02*X315000D01*
X355000Y388500D02*Y368500D01*
X315000Y388500D02*X355000D01*
X235000Y368500D02*Y388500D01*
X275000Y368500D02*X235000D01*
X275000Y388500D02*Y368500D01*
X235000Y388500D02*X275000D01*
X0Y195000D02*X20000D01*
Y235000D02*Y195000D01*
X0Y235000D02*X20000D01*
X0D02*Y195000D01*
Y235000D02*X20000D01*
Y275000D02*Y235000D01*
X0Y275000D02*X20000D01*
X0D02*Y235000D01*
G54D130*X50000Y248500D02*Y228500D01*
Y248500D02*X60000D01*
Y228500D01*
X50000D02*X60000D01*
X55000D02*Y218500D01*
Y258500D02*Y248500D01*
G54D131*X48000Y280500D02*X62000D01*
X47929Y280571D02*G75*G03X62071Y280571I7071J-7071D01*G01*
X118000Y199500D02*Y185500D01*
X117929Y185429D02*G75*G03X117929Y199571I7071J7071D01*G01*
X72796Y205295D02*Y179705D01*
Y197422D02*X89528D01*
Y205296D02*Y197422D01*
X72797Y205296D02*X72796Y205295D01*
X89528Y187579D02*Y179705D01*
X72796Y187579D02*X89528D01*
X39331Y179705D02*X89528D01*
X39332Y205296D02*X89528D01*
X39332D02*X39331Y205295D01*
Y179705D01*
G54D130*X90000Y248500D02*Y228500D01*
Y248500D02*X100000D01*
Y228500D01*
X90000D02*X100000D01*
X95000D02*Y218500D01*
Y258500D02*Y248500D01*
G54D128*X370000Y92000D02*Y90700D01*
X369300Y90000D02*X370000Y90700D01*
X366700Y90000D02*X369300D01*
X366700D02*X366000Y90700D01*
Y92000D02*Y90700D01*
X366500Y93200D02*X369500D01*
X366500D02*X366000Y93700D01*
Y94700D02*Y93700D01*
Y94700D02*X366500Y95200D01*
X369500D01*
X370000Y94700D02*X369500Y95200D01*
X370000Y94700D02*Y93700D01*
X369500Y93200D02*X370000Y93700D01*
X366000Y96400D02*X370000D01*
X366000D02*X370000Y98900D01*
X366000D02*X370000D01*
X366000Y100100D02*X370000D01*
X366000D02*X370000Y102600D01*
X366000D02*X370000D01*
X366800Y103800D02*X366000Y104600D01*
X370000D01*
Y105300D02*Y103800D01*
X366000Y108500D02*Y106500D01*
X368000D01*
X367500Y107000D01*
Y108000D02*Y107000D01*
Y108000D02*X368000Y108500D01*
X369500D01*
X370000Y108000D02*X369500Y108500D01*
X370000Y108000D02*Y107000D01*
X369500Y106500D02*X370000Y107000D01*
X385000Y264300D02*Y263000D01*
X385700Y265000D02*X385000Y264300D01*
X385700Y265000D02*X388300D01*
X389000Y264300D01*
Y263000D01*
X385500Y261800D02*X388500D01*
X389000Y261300D01*
Y260300D01*
X388500Y259800D01*
X385500D02*X388500D01*
X385000Y260300D02*X385500Y259800D01*
X385000Y261300D02*Y260300D01*
X385500Y261800D02*X385000Y261300D01*
Y258600D02*X389000D01*
X385000Y256100D01*
X389000D01*
X385000Y254900D02*X389000D01*
X385000Y252400D01*
X389000D01*
X388200Y251200D02*X389000Y250400D01*
X385000D02*X389000D01*
X385000Y251200D02*Y249700D01*
Y248000D02*X389000Y246000D01*
Y248500D02*Y246000D01*
X385000Y224300D02*Y223000D01*
X385700Y225000D02*X385000Y224300D01*
X385700Y225000D02*X388300D01*
X389000Y224300D01*
Y223000D01*
X385500Y221800D02*X388500D01*
X389000Y221300D01*
Y220300D01*
X388500Y219800D01*
X385500D02*X388500D01*
X385000Y220300D02*X385500Y219800D01*
X385000Y221300D02*Y220300D01*
X385500Y221800D02*X385000Y221300D01*
Y218600D02*X389000D01*
X385000Y216100D01*
X389000D01*
X385000Y214900D02*X389000D01*
X385000Y212400D01*
X389000D01*
X388500Y211200D02*X389000Y210700D01*
Y209200D01*
X388500Y208700D01*
X387500D02*X388500D01*
X385000Y211200D02*X387500Y208700D01*
X385000Y211200D02*Y208700D01*
X350500Y207500D02*X353500D01*
X354000Y207000D01*
Y206000D01*
X353500Y205500D01*
X351000D02*X353500D01*
X350000Y206500D02*X351000Y205500D01*
X350000Y207000D02*Y206500D01*
X350500Y207500D02*X350000Y207000D01*
X351500Y206500D02*X350000Y205500D01*
X353500Y204300D02*X354000Y203800D01*
Y202300D01*
X353500Y201800D01*
X352500D02*X353500D01*
X350000Y204300D02*X352500Y201800D01*
X350000Y204300D02*Y201800D01*
X352500Y31800D02*Y30500D01*
X353200Y32500D02*X352500Y31800D01*
X353200Y32500D02*X355800D01*
X356500Y31800D01*
Y30500D01*
X353000Y29300D02*X356000D01*
X356500Y28800D01*
Y27800D01*
X356000Y27300D01*
X353000D02*X356000D01*
X352500Y27800D02*X353000Y27300D01*
X352500Y28800D02*Y27800D01*
X353000Y29300D02*X352500Y28800D01*
Y26100D02*X356500D01*
X352500Y23600D01*
X356500D01*
X352500Y22400D02*X356500D01*
X352500Y19900D01*
X356500D01*
X355700Y18700D02*X356500Y17900D01*
X352500D02*X356500D01*
X352500Y18700D02*Y17200D01*
X356000Y16000D02*X356500Y15500D01*
Y14500D01*
X356000Y14000D01*
X352500Y14500D02*X353000Y14000D01*
X352500Y15500D02*Y14500D01*
X353000Y16000D02*X352500Y15500D01*
X354700D02*Y14500D01*
X355200Y14000D02*X356000D01*
X353000D02*X354200D01*
X354700Y14500D01*
X355200Y14000D02*X354700Y14500D01*
X330700Y152500D02*X332000D01*
X330000Y153200D02*X330700Y152500D01*
X330000Y155800D02*Y153200D01*
Y155800D02*X330700Y156500D01*
X332000D01*
X333200Y155700D02*X334000Y156500D01*
Y152500D01*
X333200D02*X334700D01*
X335900Y153000D02*X336400Y152500D01*
X335900Y156000D02*Y153000D01*
Y156000D02*X336400Y156500D01*
X337400D01*
X337900Y156000D01*
Y153000D01*
X337400Y152500D02*X337900Y153000D01*
X336400Y152500D02*X337400D01*
X335900Y153500D02*X337900Y155500D01*
X100000Y74000D02*Y70500D01*
X100500Y70000D01*
X101500D01*
X102000Y70500D01*
Y74000D02*Y70500D01*
X103200Y73200D02*X104000Y74000D01*
Y70000D01*
X103200D02*X104700D01*
X72500Y69500D02*Y67550D01*
X71450Y66500D02*X72500Y67550D01*
X67550Y66500D02*X71450D01*
X67550D02*X66500Y67550D01*
Y69500D02*Y67550D01*
Y73550D02*X67250Y74300D01*
X66500Y73550D02*Y72050D01*
X67250Y71300D02*X66500Y72050D01*
X67250Y71300D02*X71750D01*
X72500Y72050D01*
X69200Y73550D02*X69950Y74300D01*
X69200Y73550D02*Y71300D01*
X72500Y73550D02*Y72050D01*
Y73550D02*X71750Y74300D01*
X69950D02*X71750D01*
X91500Y120000D02*Y118000D01*
X91000Y117500D01*
X90000D02*X91000D01*
X89500Y118000D02*X90000Y117500D01*
X89500Y119500D02*Y118000D01*
X87500Y119500D02*X91500D01*
X89500Y118700D02*X87500Y117500D01*
X91000Y116300D02*X91500Y115800D01*
Y114300D01*
X91000Y113800D01*
X90000D02*X91000D01*
X87500Y116300D02*X90000Y113800D01*
X87500Y116300D02*Y113800D01*
X90700Y112600D02*X91500Y111800D01*
X87500D02*X91500D01*
X87500Y112600D02*Y111100D01*
Y41500D02*X89500D01*
X87500D02*X87000Y42000D01*
Y43000D02*Y42000D01*
X87500Y43500D02*X87000Y43000D01*
X87500Y43500D02*X89000D01*
Y45500D02*Y41500D01*
X88200Y43500D02*X87000Y45500D01*
X85800Y42000D02*X85300Y41500D01*
X83800D02*X85300D01*
X83800D02*X83300Y42000D01*
Y43000D02*Y42000D01*
X85800Y45500D02*X83300Y43000D01*
Y45500D02*X85800D01*
X82100Y42000D02*X81600Y41500D01*
X80100D02*X81600D01*
X80100D02*X79600Y42000D01*
Y43000D02*Y42000D01*
X82100Y45500D02*X79600Y43000D01*
Y45500D02*X82100D01*
X114000Y22000D02*X113500Y21500D01*
X114000Y23500D02*Y22000D01*
X113500Y24000D02*X114000Y23500D01*
X112500Y24000D02*X113500D01*
X112500D02*X112000Y23500D01*
Y22000D01*
X111500Y21500D01*
X110500D02*X111500D01*
X110000Y22000D02*X110500Y21500D01*
X110000Y23500D02*Y22000D01*
X110500Y24000D02*X110000Y23500D01*
X113200Y20300D02*X114000Y19500D01*
X110000D02*X114000D01*
X110000Y20300D02*Y18800D01*
X158500Y54500D02*X161000Y58500D01*
X158500D02*X161000Y54500D01*
X162200Y57700D02*X163000Y58500D01*
Y54500D01*
X162200D02*X163700D01*
X150550Y25500D02*X152500D01*
X149500Y26550D02*X150550Y25500D01*
X149500Y30450D02*Y26550D01*
Y30450D02*X150550Y31500D01*
X152500D01*
X154300Y27750D02*X157300Y31500D01*
X154300Y27750D02*X158050D01*
X157300Y31500D02*Y25500D01*
X194500Y29500D02*X196450D01*
X197500Y28450D02*X196450Y29500D01*
X197500Y28450D02*Y24550D01*
X196450Y23500D01*
X194500D02*X196450D01*
X189700D02*X192700D01*
Y26500D02*Y23500D01*
Y26500D02*X191950Y25750D01*
X190450D02*X191950D01*
X190450D02*X189700Y26500D01*
Y28750D02*Y26500D01*
X190450Y29500D02*X189700Y28750D01*
X190450Y29500D02*X191950D01*
X192700Y28750D02*X191950Y29500D01*
X222000Y49950D02*Y48000D01*
X223050Y51000D02*X222000Y49950D01*
X223050Y51000D02*X226950D01*
X228000Y49950D01*
Y48000D01*
X227250Y46200D02*X228000Y45450D01*
Y43950D01*
X227250Y43200D01*
X222000Y43950D02*X222750Y43200D01*
X222000Y45450D02*Y43950D01*
X222750Y46200D02*X222000Y45450D01*
X225300D02*Y43950D01*
X226050Y43200D02*X227250D01*
X222750D02*X224550D01*
X225300Y43950D01*
X226050Y43200D02*X225300Y43950D01*
X197000Y12500D02*X198300D01*
X199000Y11800D02*X198300Y12500D01*
X199000Y11800D02*Y9200D01*
X198300Y8500D01*
X197000D02*X198300D01*
X195800Y12000D02*Y9000D01*
X195300Y8500D01*
X194300D02*X195300D01*
X194300D02*X193800Y9000D01*
Y12000D02*Y9000D01*
X194300Y12500D02*X193800Y12000D01*
X194300Y12500D02*X195300D01*
X195800Y12000D02*X195300Y12500D01*
X192600D02*Y8500D01*
X190100Y12500D01*
Y8500D01*
X188900Y12500D02*Y8500D01*
X186400Y12500D01*
Y8500D01*
X185200Y9300D02*X184400Y8500D01*
Y12500D02*Y8500D01*
X183700Y12500D02*X185200D01*
X182500Y11000D02*X180500Y8500D01*
X180000Y11000D02*X182500D01*
X180500Y12500D02*Y8500D01*
X305300Y36500D02*Y35200D01*
X306000Y37200D02*X305300Y36500D01*
X306000Y37200D02*X308600D01*
X309300Y36500D01*
Y35200D01*
X308500Y34000D02*X309300Y33200D01*
X305300D02*X309300D01*
X305300Y34000D02*Y32500D01*
X293200Y57500D02*X294500D01*
X292500Y58200D02*X293200Y57500D01*
X292500Y60800D02*Y58200D01*
Y60800D02*X293200Y61500D01*
X294500D01*
X296200Y57500D02*X297700Y59500D01*
Y61000D02*Y59500D01*
X297200Y61500D02*X297700Y61000D01*
X296200Y61500D02*X297200D01*
X295700Y61000D02*X296200Y61500D01*
X295700Y61000D02*Y60000D01*
X296200Y59500D01*
X297700D01*
X311000Y55000D02*X312950D01*
X314000Y53950D02*X312950Y55000D01*
X314000Y53950D02*Y50050D01*
X312950Y49000D01*
X311000D02*X312950D01*
X309200Y49750D02*X308450Y49000D01*
X306200D02*X308450D01*
X306200D02*X305450Y49750D01*
Y51250D02*Y49750D01*
X309200Y55000D02*X305450Y51250D01*
Y55000D02*X309200D01*
X280000Y13000D02*Y9500D01*
Y13000D02*X279500Y13500D01*
X278500D02*X279500D01*
X278500D02*X278000Y13000D01*
Y9500D01*
X276800Y10000D02*X276300Y9500D01*
X274800D02*X276300D01*
X274800D02*X274300Y10000D01*
Y11000D02*Y10000D01*
X276800Y13500D02*X274300Y11000D01*
Y13500D02*X276800D01*
X265700Y57500D02*X267000D01*
X265000Y58200D02*X265700Y57500D01*
X265000Y60800D02*Y58200D01*
Y60800D02*X265700Y61500D01*
X267000D01*
X268700Y57500D02*X270700Y61500D01*
X268200D02*X270700D01*
X265500Y84000D02*Y80500D01*
X266000Y80000D01*
X267000D01*
X267500Y80500D01*
Y84000D02*Y80500D01*
X268700Y83500D02*X269200Y84000D01*
X270200D01*
X270700Y83500D01*
X270200Y80000D02*X270700Y80500D01*
X269200Y80000D02*X270200D01*
X268700Y80500D02*X269200Y80000D01*
Y82200D02*X270200D01*
X270700Y83500D02*Y82700D01*
Y81700D02*Y80500D01*
Y81700D02*X270200Y82200D01*
X270700Y82700D02*X270200Y82200D01*
X29000Y41000D02*Y40200D01*
Y41000D02*X32500D01*
X33000Y40500D02*X32500Y41000D01*
X33000Y40500D02*Y40000D01*
X32500Y39500D02*X33000Y40000D01*
X32000Y39500D02*X32500D01*
X29500Y42200D02*X29000Y42700D01*
Y43700D02*Y42700D01*
Y43700D02*X29500Y44200D01*
X33000Y43700D02*X32500Y44200D01*
X33000Y43700D02*Y42700D01*
X32500Y42200D02*X33000Y42700D01*
X30800Y43700D02*Y42700D01*
X29500Y44200D02*X30300D01*
X31300D02*X32500D01*
X31300D02*X30800Y43700D01*
X30300Y44200D02*X30800Y43700D01*
X3500Y41000D02*Y40200D01*
Y41000D02*X7000D01*
X7500Y40500D02*X7000Y41000D01*
X7500Y40500D02*Y40000D01*
X7000Y39500D02*X7500Y40000D01*
X6500Y39500D02*X7000D01*
X6000Y42200D02*X3500Y44200D01*
X6000Y44700D02*Y42200D01*
X3500Y44200D02*X7500D01*
X-500Y81500D02*X1500D01*
X-500D02*X-1000Y82000D01*
Y83000D02*Y82000D01*
X-500Y83500D02*X-1000Y83000D01*
X-500Y83500D02*X1000D01*
Y85500D02*Y81500D01*
X200Y83500D02*X-1000Y85500D01*
X-2200D02*Y81500D01*
X-4200D02*X-2200D01*
X-3700Y83300D02*X-2200D01*
X-5400Y82300D02*X-6200Y81500D01*
Y85500D02*Y81500D01*
X-6900Y85500D02*X-5400D01*
X5000Y207000D02*Y205700D01*
X4300Y205000D02*X5000Y205700D01*
X1700Y205000D02*X4300D01*
X1700D02*X1000Y205700D01*
Y207000D02*Y205700D01*
X1500Y208200D02*X4500D01*
X1500D02*X1000Y208700D01*
Y209700D02*Y208700D01*
Y209700D02*X1500Y210200D01*
X4500D01*
X5000Y209700D02*X4500Y210200D01*
X5000Y209700D02*Y208700D01*
X4500Y208200D02*X5000Y208700D01*
X1000Y211400D02*X5000D01*
X1000D02*X5000Y213900D01*
X1000D02*X5000D01*
X1000Y215100D02*X5000D01*
X1000D02*X5000Y217600D01*
X1000D02*X5000D01*
X1800Y218800D02*X1000Y219600D01*
X5000D01*
Y220300D02*Y218800D01*
Y247000D02*Y245700D01*
X4300Y245000D02*X5000Y245700D01*
X1700Y245000D02*X4300D01*
X1700D02*X1000Y245700D01*
Y247000D02*Y245700D01*
X1500Y248200D02*X4500D01*
X1500D02*X1000Y248700D01*
Y249700D02*Y248700D01*
Y249700D02*X1500Y250200D01*
X4500D01*
X5000Y249700D02*X4500Y250200D01*
X5000Y249700D02*Y248700D01*
X4500Y248200D02*X5000Y248700D01*
X1000Y251400D02*X5000D01*
X1000D02*X5000Y253900D01*
X1000D02*X5000D01*
X1000Y255100D02*X5000D01*
X1000D02*X5000Y257600D01*
X1000D02*X5000D01*
X1800Y258800D02*X1000Y259600D01*
X5000D01*
Y260300D02*Y258800D01*
X1000Y263000D02*X1500Y263500D01*
X1000Y263000D02*Y262000D01*
X1500Y261500D02*X1000Y262000D01*
X1500Y261500D02*X4500D01*
X5000Y262000D01*
X2800Y263000D02*X3300Y263500D01*
X2800Y263000D02*Y261500D01*
X5000Y263000D02*Y262000D01*
Y263000D02*X4500Y263500D01*
X3300D02*X4500D01*
X33941Y180689D02*X36941D01*
X33941D02*X33441Y181189D01*
Y182189D02*Y181189D01*
Y182189D02*X33941Y182689D01*
X36441D01*
X37441Y181689D02*X36441Y182689D01*
X37441Y181689D02*Y181189D01*
X36941Y180689D02*X37441Y181189D01*
X35941Y181689D02*X37441Y182689D01*
X34241Y183889D02*X33441Y184689D01*
X37441D01*
Y185389D02*Y183889D01*
X30500Y144000D02*Y143200D01*
Y144000D02*X34000D01*
X34500Y143500D02*X34000Y144000D01*
X34500Y143500D02*Y143000D01*
X34000Y142500D02*X34500Y143000D01*
X33500Y142500D02*X34000D01*
X31300Y145200D02*X30500Y146000D01*
X34500D01*
Y146700D02*Y145200D01*
X56000Y144000D02*Y143200D01*
Y144000D02*X59500D01*
X60000Y143500D02*X59500Y144000D01*
X60000Y143500D02*Y143000D01*
X59500Y142500D02*X60000Y143000D01*
X59000Y142500D02*X59500D01*
X56500Y145200D02*X56000Y145700D01*
Y147200D02*Y145700D01*
Y147200D02*X56500Y147700D01*
X57500D01*
X60000Y145200D02*X57500Y147700D01*
X60000D02*Y145200D01*
X91000Y189500D02*Y187500D01*
Y189500D02*X91500Y190000D01*
X92500D01*
X93000Y189500D02*X92500Y190000D01*
X93000Y189500D02*Y188000D01*
X91000D02*X95000D01*
X93000Y188800D02*X95000Y190000D01*
X91800Y191200D02*X91000Y192000D01*
X95000D01*
Y192700D02*Y191200D01*
X161500Y197500D02*Y195500D01*
X161000Y195000D01*
X160000D02*X161000D01*
X159500Y195500D02*X160000Y195000D01*
X159500Y197000D02*Y195500D01*
X157500Y197000D02*X161500D01*
X159500Y196200D02*X157500Y195000D01*
X160700Y193800D02*X161500Y193000D01*
X157500D02*X161500D01*
X157500Y193800D02*Y192300D01*
X160700Y191100D02*X161500Y190300D01*
X157500D02*X161500D01*
X157500Y191100D02*Y189600D01*
X131500Y202500D02*X134500D01*
X131500D02*X131000Y203000D01*
Y204000D02*Y203000D01*
Y204000D02*X131500Y204500D01*
X134000D01*
X135000Y203500D02*X134000Y204500D01*
X135000Y203500D02*Y203000D01*
X134500Y202500D02*X135000Y203000D01*
X133500Y203500D02*X135000Y204500D01*
X131800Y205700D02*X131000Y206500D01*
X135000D01*
Y207200D02*Y205700D01*
X131800Y208400D02*X131000Y209200D01*
X135000D01*
Y209900D02*Y208400D01*
X65000Y267000D02*Y264000D01*
Y267000D02*X65500Y267500D01*
X66500D01*
X67000Y267000D01*
Y264500D01*
X66000Y263500D02*X67000Y264500D01*
X65500Y263500D02*X66000D01*
X65000Y264000D02*X65500Y263500D01*
X66000Y265000D02*X67000Y263500D01*
X68200Y267000D02*X68700Y267500D01*
X70200D01*
X70700Y267000D01*
Y266000D01*
X68200Y263500D02*X70700Y266000D01*
X68200Y263500D02*X70700D01*
X71900Y264000D02*X72400Y263500D01*
X71900Y267000D02*Y264000D01*
Y267000D02*X72400Y267500D01*
X73400D01*
X73900Y267000D01*
Y264000D01*
X73400Y263500D02*X73900Y264000D01*
X72400Y263500D02*X73400D01*
X71900Y264500D02*X73900Y266500D01*
X105000Y267000D02*Y264000D01*
Y267000D02*X105500Y267500D01*
X106500D01*
X107000Y267000D01*
Y264500D01*
X106000Y263500D02*X107000Y264500D01*
X105500Y263500D02*X106000D01*
X105000Y264000D02*X105500Y263500D01*
X106000Y265000D02*X107000Y263500D01*
X108200Y266700D02*X109000Y267500D01*
Y263500D01*
X108200D02*X109700D01*
X111400D02*X112900Y265500D01*
Y267000D02*Y265500D01*
X112400Y267500D02*X112900Y267000D01*
X111400Y267500D02*X112400D01*
X110900Y267000D02*X111400Y267500D01*
X110900Y267000D02*Y266000D01*
X111400Y265500D01*
X112900D01*
X123000Y235500D02*Y233500D01*
Y235500D02*X123500Y236000D01*
X124500D01*
X125000Y235500D02*X124500Y236000D01*
X125000Y235500D02*Y234000D01*
X123000D02*X127000D01*
X125000Y234800D02*X127000Y236000D01*
X123800Y237200D02*X123000Y238000D01*
X127000D01*
Y238700D02*Y237200D01*
X126500Y239900D02*X127000Y240400D01*
X125700Y239900D02*X126500D01*
X125700D02*X125000Y240600D01*
Y241200D02*Y240600D01*
Y241200D02*X125700Y241900D01*
X126500D01*
X127000Y241400D02*X126500Y241900D01*
X127000Y241400D02*Y240400D01*
X124300Y239900D02*X125000Y240600D01*
X123500Y239900D02*X124300D01*
X123500D02*X123000Y240400D01*
Y241400D02*Y240400D01*
Y241400D02*X123500Y241900D01*
X124300D01*
X125000Y241200D02*X124300Y241900D01*
X82500Y235500D02*Y233500D01*
Y235500D02*X83000Y236000D01*
X84000D01*
X84500Y235500D02*X84000Y236000D01*
X84500Y235500D02*Y234000D01*
X82500D02*X86500D01*
X84500Y234800D02*X86500Y236000D01*
X83300Y237200D02*X82500Y238000D01*
X86500D01*
Y238700D02*Y237200D01*
Y240400D02*X84500Y241900D01*
X83000D02*X84500D01*
X82500Y241400D02*X83000Y241900D01*
X82500Y241400D02*Y240400D01*
X83000Y239900D02*X82500Y240400D01*
X83000Y239900D02*X84000D01*
X84500Y240400D01*
Y241900D02*Y240400D01*
X42500Y235500D02*Y233500D01*
Y235500D02*X43000Y236000D01*
X44000D01*
X44500Y235500D02*X44000Y236000D01*
X44500Y235500D02*Y234000D01*
X42500D02*X46500D01*
X44500Y234800D02*X46500Y236000D01*
X43000Y237200D02*X42500Y237700D01*
Y239200D02*Y237700D01*
Y239200D02*X43000Y239700D01*
X44000D01*
X46500Y237200D02*X44000Y239700D01*
X46500D02*Y237200D01*
X46000Y240900D02*X46500Y241400D01*
X43000Y240900D02*X46000D01*
X43000D02*X42500Y241400D01*
Y242400D02*Y241400D01*
Y242400D02*X43000Y242900D01*
X46000D01*
X46500Y242400D02*X46000Y242900D01*
X46500Y242400D02*Y241400D01*
X45500Y240900D02*X43500Y242900D01*
X224500Y193500D02*X225800D01*
X226500Y192800D02*X225800Y193500D01*
X226500Y192800D02*Y190200D01*
X225800Y189500D01*
X224500D02*X225800D01*
X223300Y193000D02*Y190000D01*
X222800Y189500D01*
X221800D02*X222800D01*
X221800D02*X221300Y190000D01*
Y193000D02*Y190000D01*
X221800Y193500D02*X221300Y193000D01*
X221800Y193500D02*X222800D01*
X223300Y193000D02*X222800Y193500D01*
X220100D02*Y189500D01*
X217600Y193500D01*
Y189500D01*
X216400Y193500D02*Y189500D01*
X213900Y193500D01*
Y189500D01*
X212700Y190300D02*X211900Y189500D01*
Y193500D02*Y189500D01*
X211200Y193500D02*X212700D01*
X210000Y190000D02*X209500Y189500D01*
X208000D02*X209500D01*
X208000D02*X207500Y190000D01*
Y191000D02*Y190000D01*
X210000Y193500D02*X207500Y191000D01*
Y193500D02*X210000D01*
X224500Y163500D02*X225800D01*
X226500Y162800D02*X225800Y163500D01*
X226500Y162800D02*Y160200D01*
X225800Y159500D01*
X224500D02*X225800D01*
X223300Y163000D02*Y160000D01*
X222800Y159500D01*
X221800D02*X222800D01*
X221800D02*X221300Y160000D01*
Y163000D02*Y160000D01*
X221800Y163500D02*X221300Y163000D01*
X221800Y163500D02*X222800D01*
X223300Y163000D02*X222800Y163500D01*
X220100D02*Y159500D01*
X217600Y163500D01*
Y159500D01*
X216400Y163500D02*Y159500D01*
X213900Y163500D01*
Y159500D01*
X212700Y160300D02*X211900Y159500D01*
Y163500D02*Y159500D01*
X211200Y163500D02*X212700D01*
X210000Y160300D02*X209200Y159500D01*
Y163500D02*Y159500D01*
X208500Y163500D02*X210000D01*
X251000Y197000D02*Y195000D01*
X250500Y194500D01*
X249500D02*X250500D01*
X249000Y195000D02*X249500Y194500D01*
X249000Y196500D02*Y195000D01*
X247000Y196500D02*X251000D01*
X249000Y195700D02*X247000Y194500D01*
X250200Y193300D02*X251000Y192500D01*
X247000D02*X251000D01*
X247000Y193300D02*Y191800D01*
X250500Y190600D02*X251000Y190100D01*
Y188600D01*
X250500Y188100D01*
X249500D02*X250500D01*
X247000Y190600D02*X249500Y188100D01*
X247000Y190600D02*Y188100D01*
X253000Y182500D02*X256000D01*
X256500Y182000D01*
Y181000D01*
X256000Y180500D01*
X253500D02*X256000D01*
X252500Y181500D02*X253500Y180500D01*
X252500Y182000D02*Y181500D01*
X253000Y182500D02*X252500Y182000D01*
X254000Y181500D02*X252500Y180500D01*
X255700Y179300D02*X256500Y178500D01*
X252500D02*X256500D01*
X252500Y179300D02*Y177800D01*
X256000Y176600D02*X256500Y176100D01*
Y174600D01*
X256000Y174100D01*
X255000D02*X256000D01*
X252500Y176600D02*X255000Y174100D01*
X252500Y176600D02*Y174100D01*
X279000Y197500D02*Y195500D01*
X278500Y195000D01*
X277500D02*X278500D01*
X277000Y195500D02*X277500Y195000D01*
X277000Y197000D02*Y195500D01*
X275000Y197000D02*X279000D01*
X277000Y196200D02*X275000Y195000D01*
X278500Y193800D02*X279000Y193300D01*
Y191800D01*
X278500Y191300D01*
X277500D02*X278500D01*
X275000Y193800D02*X277500Y191300D01*
X275000Y193800D02*Y191300D01*
X290700Y152500D02*X292000D01*
X290000Y153200D02*X290700Y152500D01*
X290000Y155800D02*Y153200D01*
Y155800D02*X290700Y156500D01*
X292000D01*
X293200Y153000D02*X293700Y152500D01*
X293200Y153800D02*Y153000D01*
Y153800D02*X293900Y154500D01*
X294500D01*
X295200Y153800D01*
Y153000D01*
X294700Y152500D02*X295200Y153000D01*
X293700Y152500D02*X294700D01*
X293200Y155200D02*X293900Y154500D01*
X293200Y156000D02*Y155200D01*
Y156000D02*X293700Y156500D01*
X294700D01*
X295200Y156000D01*
Y155200D01*
X294500Y154500D02*X295200Y155200D01*
X345000Y267000D02*Y264000D01*
Y267000D02*X345500Y267500D01*
X346500D01*
X347000Y267000D01*
Y264500D01*
X346000Y263500D02*X347000Y264500D01*
X345500Y263500D02*X346000D01*
X345000Y264000D02*X345500Y263500D01*
X346000Y265000D02*X347000Y263500D01*
X348200Y266700D02*X349000Y267500D01*
Y263500D01*
X348200D02*X349700D01*
X350900Y267000D02*X351400Y267500D01*
X352400D01*
X352900Y267000D01*
X352400Y263500D02*X352900Y264000D01*
X351400Y263500D02*X352400D01*
X350900Y264000D02*X351400Y263500D01*
Y265700D02*X352400D01*
X352900Y267000D02*Y266200D01*
Y265200D02*Y264000D01*
Y265200D02*X352400Y265700D01*
X352900Y266200D02*X352400Y265700D01*
X323000Y235000D02*Y233000D01*
Y235000D02*X323500Y235500D01*
X324500D01*
X325000Y235000D02*X324500Y235500D01*
X325000Y235000D02*Y233500D01*
X323000D02*X327000D01*
X325000Y234300D02*X327000Y235500D01*
X323800Y236700D02*X323000Y237500D01*
X327000D01*
Y238200D02*Y236700D01*
X323500Y239400D02*X323000Y239900D01*
Y240900D02*Y239900D01*
Y240900D02*X323500Y241400D01*
X327000Y240900D02*X326500Y241400D01*
X327000Y240900D02*Y239900D01*
X326500Y239400D02*X327000Y239900D01*
X324800Y240900D02*Y239900D01*
X323500Y241400D02*X324300D01*
X325300D02*X326500D01*
X325300D02*X324800Y240900D01*
X324300Y241400D02*X324800Y240900D01*
X282500Y236000D02*Y234000D01*
Y236000D02*X283000Y236500D01*
X284000D01*
X284500Y236000D02*X284000Y236500D01*
X284500Y236000D02*Y234500D01*
X282500D02*X286500D01*
X284500Y235300D02*X286500Y236500D01*
X283300Y237700D02*X282500Y238500D01*
X286500D01*
Y239200D02*Y237700D01*
X285000Y240400D02*X282500Y242400D01*
X285000Y242900D02*Y240400D01*
X282500Y242400D02*X286500D01*
X305000Y267000D02*Y264000D01*
Y267000D02*X305500Y267500D01*
X306500D01*
X307000Y267000D01*
Y264500D01*
X306000Y263500D02*X307000Y264500D01*
X305500Y263500D02*X306000D01*
X305000Y264000D02*X305500Y263500D01*
X306000Y265000D02*X307000Y263500D01*
X308200Y266700D02*X309000Y267500D01*
Y263500D01*
X308200D02*X309700D01*
X310900Y265000D02*X312900Y267500D01*
X310900Y265000D02*X313400D01*
X312900Y267500D02*Y263500D01*
X265000Y267000D02*Y264000D01*
Y267000D02*X265500Y267500D01*
X266500D01*
X267000Y267000D01*
Y264500D01*
X266000Y263500D02*X267000Y264500D01*
X265500Y263500D02*X266000D01*
X265000Y264000D02*X265500Y263500D01*
X266000Y265000D02*X267000Y263500D01*
X268200Y266700D02*X269000Y267500D01*
Y263500D01*
X268200D02*X269700D01*
X270900Y267500D02*X272900D01*
X270900D02*Y265500D01*
X271400Y266000D01*
X272400D01*
X272900Y265500D01*
Y264000D01*
X272400Y263500D02*X272900Y264000D01*
X271400Y263500D02*X272400D01*
X270900Y264000D02*X271400Y263500D01*
X250000Y302500D02*X252000D01*
X252500Y302000D01*
Y301000D01*
X252000Y300500D02*X252500Y301000D01*
X250500Y300500D02*X252000D01*
X250500Y302500D02*Y298500D01*
X251300Y300500D02*X252500Y298500D01*
X253700Y302500D02*X255700D01*
X253700D02*Y300500D01*
X254200Y301000D01*
X255200D01*
X255700Y300500D01*
Y299000D01*
X255200Y298500D02*X255700Y299000D01*
X254200Y298500D02*X255200D01*
X253700Y299000D02*X254200Y298500D01*
X212500Y289500D02*X214500D01*
X215000Y289000D01*
Y288000D01*
X214500Y287500D02*X215000Y288000D01*
X213000Y287500D02*X214500D01*
X213000Y289500D02*Y285500D01*
X213800Y287500D02*X215000Y285500D01*
X217700Y289500D02*X218200Y289000D01*
X216700Y289500D02*X217700D01*
X216200Y289000D02*X216700Y289500D01*
X216200Y289000D02*Y286000D01*
X216700Y285500D01*
X217700Y287700D02*X218200Y287200D01*
X216200Y287700D02*X217700D01*
X216700Y285500D02*X217700D01*
X218200Y286000D01*
Y287200D02*Y286000D01*
X170000Y302500D02*X172000D01*
X172500Y302000D01*
Y301000D01*
X172000Y300500D02*X172500Y301000D01*
X170500Y300500D02*X172000D01*
X170500Y302500D02*Y298500D01*
X171300Y300500D02*X172500Y298500D01*
X174200D02*X176200Y302500D01*
X173700D02*X176200D01*
X270000Y357500D02*Y354500D01*
Y357500D02*X270500Y358000D01*
X271500D01*
X272000Y357500D01*
Y355000D01*
X271000Y354000D02*X272000Y355000D01*
X270500Y354000D02*X271000D01*
X270000Y354500D02*X270500Y354000D01*
X271000Y355500D02*X272000Y354000D01*
X273200Y358000D02*X275200D01*
X273200D02*Y356000D01*
X273700Y356500D01*
X274700D01*
X275200Y356000D01*
Y354500D01*
X274700Y354000D02*X275200Y354500D01*
X273700Y354000D02*X274700D01*
X273200Y354500D02*X273700Y354000D01*
X285700Y383500D02*X287000D01*
X285000Y384200D02*X285700Y383500D01*
X285000Y386800D02*Y384200D01*
Y386800D02*X285700Y387500D01*
X287000D01*
X288200Y387000D02*Y384000D01*
Y387000D02*X288700Y387500D01*
X289700D01*
X290200Y387000D01*
Y384000D01*
X289700Y383500D02*X290200Y384000D01*
X288700Y383500D02*X289700D01*
X288200Y384000D02*X288700Y383500D01*
X291400Y387500D02*Y383500D01*
Y387500D02*X293900Y383500D01*
Y387500D02*Y383500D01*
X295100Y387500D02*Y383500D01*
Y387500D02*X297600Y383500D01*
Y387500D02*Y383500D01*
X298800Y385000D02*X300800Y387500D01*
X298800Y385000D02*X301300D01*
X300800Y387500D02*Y383500D01*
X145000Y267000D02*Y264000D01*
Y267000D02*X145500Y267500D01*
X146500D01*
X147000Y267000D01*
Y264500D01*
X146000Y263500D02*X147000Y264500D01*
X145500Y263500D02*X146000D01*
X145000Y264000D02*X145500Y263500D01*
X146000Y265000D02*X147000Y263500D01*
X148200Y266700D02*X149000Y267500D01*
Y263500D01*
X148200D02*X149700D01*
X150900Y264000D02*X151400Y263500D01*
X150900Y264800D02*Y264000D01*
Y264800D02*X151600Y265500D01*
X152200D01*
X152900Y264800D01*
Y264000D01*
X152400Y263500D02*X152900Y264000D01*
X151400Y263500D02*X152400D01*
X150900Y266200D02*X151600Y265500D01*
X150900Y267000D02*Y266200D01*
Y267000D02*X151400Y267500D01*
X152400D01*
X152900Y267000D01*
Y266200D01*
X152200Y265500D02*X152900Y266200D01*
X185000Y267000D02*Y264000D01*
Y267000D02*X185500Y267500D01*
X186500D01*
X187000Y267000D01*
Y264500D01*
X186000Y263500D02*X187000Y264500D01*
X185500Y263500D02*X186000D01*
X185000Y264000D02*X185500Y263500D01*
X186000Y265000D02*X187000Y263500D01*
X188200Y266700D02*X189000Y267500D01*
Y263500D01*
X188200D02*X189700D01*
X191400D02*X193400Y267500D01*
X190900D02*X193400D01*
X225000Y267000D02*Y264000D01*
Y267000D02*X225500Y267500D01*
X226500D01*
X227000Y267000D01*
Y264500D01*
X226000Y263500D02*X227000Y264500D01*
X225500Y263500D02*X226000D01*
X225000Y264000D02*X225500Y263500D01*
X226000Y265000D02*X227000Y263500D01*
X228200Y266700D02*X229000Y267500D01*
Y263500D01*
X228200D02*X229700D01*
X232400Y267500D02*X232900Y267000D01*
X231400Y267500D02*X232400D01*
X230900Y267000D02*X231400Y267500D01*
X230900Y267000D02*Y264000D01*
X231400Y263500D01*
X232400Y265700D02*X232900Y265200D01*
X230900Y265700D02*X232400D01*
X231400Y263500D02*X232400D01*
X232900Y264000D01*
Y265200D02*Y264000D01*
X242500Y235500D02*Y233500D01*
Y235500D02*X243000Y236000D01*
X244000D01*
X244500Y235500D02*X244000Y236000D01*
X244500Y235500D02*Y234000D01*
X242500D02*X246500D01*
X244500Y234800D02*X246500Y236000D01*
X243300Y237200D02*X242500Y238000D01*
X246500D01*
Y238700D02*Y237200D01*
X242500Y241900D02*Y239900D01*
X244500D01*
X244000Y240400D01*
Y241400D02*Y240400D01*
Y241400D02*X244500Y241900D01*
X246000D01*
X246500Y241400D02*X246000Y241900D01*
X246500Y241400D02*Y240400D01*
X246000Y239900D02*X246500Y240400D01*
X203000Y235500D02*Y233500D01*
Y235500D02*X203500Y236000D01*
X204500D01*
X205000Y235500D02*X204500Y236000D01*
X205000Y235500D02*Y234000D01*
X203000D02*X207000D01*
X205000Y234800D02*X207000Y236000D01*
X203800Y237200D02*X203000Y238000D01*
X207000D01*
Y238700D02*Y237200D01*
X203000Y241400D02*X203500Y241900D01*
X203000Y241400D02*Y240400D01*
X203500Y239900D02*X203000Y240400D01*
X203500Y239900D02*X206500D01*
X207000Y240400D01*
X204800Y241400D02*X205300Y241900D01*
X204800Y241400D02*Y239900D01*
X207000Y241400D02*Y240400D01*
Y241400D02*X206500Y241900D01*
X205300D02*X206500D01*
X162500Y235500D02*Y233500D01*
Y235500D02*X163000Y236000D01*
X164000D01*
X164500Y235500D02*X164000Y236000D01*
X164500Y235500D02*Y234000D01*
X162500D02*X166500D01*
X164500Y234800D02*X166500Y236000D01*
X163300Y237200D02*X162500Y238000D01*
X166500D01*
Y238700D02*Y237200D01*
Y240400D02*X162500Y242400D01*
Y239900D01*
X325700Y383500D02*X327000D01*
X325000Y384200D02*X325700Y383500D01*
X325000Y386800D02*Y384200D01*
Y386800D02*X325700Y387500D01*
X327000D01*
X328200Y387000D02*Y384000D01*
Y387000D02*X328700Y387500D01*
X329700D01*
X330200Y387000D01*
Y384000D01*
X329700Y383500D02*X330200Y384000D01*
X328700Y383500D02*X329700D01*
X328200Y384000D02*X328700Y383500D01*
X331400Y387500D02*Y383500D01*
Y387500D02*X333900Y383500D01*
Y387500D02*Y383500D01*
X335100Y387500D02*Y383500D01*
Y387500D02*X337600Y383500D01*
Y387500D02*Y383500D01*
X338800Y387000D02*X339300Y387500D01*
X340300D01*
X340800Y387000D01*
X340300Y383500D02*X340800Y384000D01*
X339300Y383500D02*X340300D01*
X338800Y384000D02*X339300Y383500D01*
Y385700D02*X340300D01*
X340800Y387000D02*Y386200D01*
Y385200D02*Y384000D01*
Y385200D02*X340300Y385700D01*
X340800Y386200D02*X340300Y385700D01*
X245700Y383500D02*X247000D01*
X245000Y384200D02*X245700Y383500D01*
X245000Y386800D02*Y384200D01*
Y386800D02*X245700Y387500D01*
X247000D01*
X248200Y387000D02*Y384000D01*
Y387000D02*X248700Y387500D01*
X249700D01*
X250200Y387000D01*
Y384000D01*
X249700Y383500D02*X250200Y384000D01*
X248700Y383500D02*X249700D01*
X248200Y384000D02*X248700Y383500D01*
X251400Y387500D02*Y383500D01*
Y387500D02*X253900Y383500D01*
Y387500D02*Y383500D01*
X255100Y387500D02*Y383500D01*
Y387500D02*X257600Y383500D01*
Y387500D02*Y383500D01*
X258800Y387500D02*X260800D01*
X258800D02*Y385500D01*
X259300Y386000D01*
X260300D01*
X260800Y385500D01*
Y384000D01*
X260300Y383500D02*X260800Y384000D01*
X259300Y383500D02*X260300D01*
X258800Y384000D02*X259300Y383500D01*
X350000Y358500D02*Y355500D01*
Y358500D02*X350500Y359000D01*
X351500D01*
X352000Y358500D01*
Y356000D01*
X351000Y355000D02*X352000Y356000D01*
X350500Y355000D02*X351000D01*
X350000Y355500D02*X350500Y355000D01*
X351000Y356500D02*X352000Y355000D01*
X353200Y358500D02*X353700Y359000D01*
X354700D01*
X355200Y358500D01*
X354700Y355000D02*X355200Y355500D01*
X353700Y355000D02*X354700D01*
X353200Y355500D02*X353700Y355000D01*
Y357200D02*X354700D01*
X355200Y358500D02*Y357700D01*
Y356700D02*Y355500D01*
Y356700D02*X354700Y357200D01*
X355200Y357700D02*X354700Y357200D01*
X309000Y358500D02*Y355500D01*
Y358500D02*X309500Y359000D01*
X310500D01*
X311000Y358500D01*
Y356000D01*
X310000Y355000D02*X311000Y356000D01*
X309500Y355000D02*X310000D01*
X309000Y355500D02*X309500Y355000D01*
X310000Y356500D02*X311000Y355000D01*
X312200Y356500D02*X314200Y359000D01*
X312200Y356500D02*X314700D01*
X314200Y359000D02*Y355000D01*
X293000Y288500D02*X295000D01*
X295500Y288000D01*
Y287000D01*
X295000Y286500D02*X295500Y287000D01*
X293500Y286500D02*X295000D01*
X293500Y288500D02*Y284500D01*
X294300Y286500D02*X295500Y284500D01*
X296700Y286000D02*X298700Y288500D01*
X296700Y286000D02*X299200D01*
X298700Y288500D02*Y284500D01*
X330000Y302500D02*X332000D01*
X332500Y302000D01*
Y301000D01*
X332000Y300500D02*X332500Y301000D01*
X330500Y300500D02*X332000D01*
X330500Y302500D02*Y298500D01*
X331300Y300500D02*X332500Y298500D01*
X333700Y302000D02*X334200Y302500D01*
X335200D01*
X335700Y302000D01*
X335200Y298500D02*X335700Y299000D01*
X334200Y298500D02*X335200D01*
X333700Y299000D02*X334200Y298500D01*
Y300700D02*X335200D01*
X335700Y302000D02*Y301200D01*
Y300200D02*Y299000D01*
Y300200D02*X335200Y300700D01*
X335700Y301200D02*X335200Y300700D01*
X110000Y357500D02*Y354500D01*
Y357500D02*X110500Y358000D01*
X111500D01*
X112000Y357500D01*
Y355000D01*
X111000Y354000D02*X112000Y355000D01*
X110500Y354000D02*X111000D01*
X110000Y354500D02*X110500Y354000D01*
X111000Y355500D02*X112000Y354000D01*
X113700D02*X115200Y356000D01*
Y357500D02*Y356000D01*
X114700Y358000D02*X115200Y357500D01*
X113700Y358000D02*X114700D01*
X113200Y357500D02*X113700Y358000D01*
X113200Y357500D02*Y356500D01*
X113700Y356000D01*
X115200D01*
X90000Y302500D02*X92000D01*
X92500Y302000D01*
Y301000D01*
X92000Y300500D02*X92500Y301000D01*
X90500Y300500D02*X92000D01*
X90500Y302500D02*Y298500D01*
X91300Y300500D02*X92500Y298500D01*
X94200D02*X95700Y300500D01*
Y302000D02*Y300500D01*
X95200Y302500D02*X95700Y302000D01*
X94200Y302500D02*X95200D01*
X93700Y302000D02*X94200Y302500D01*
X93700Y302000D02*Y301000D01*
X94200Y300500D01*
X95700D01*
X133000Y291000D02*X135000D01*
X135500Y290500D01*
Y289500D01*
X135000Y289000D02*X135500Y289500D01*
X133500Y289000D02*X135000D01*
X133500Y291000D02*Y287000D01*
X134300Y289000D02*X135500Y287000D01*
X136700Y287500D02*X137200Y287000D01*
X136700Y288300D02*Y287500D01*
Y288300D02*X137400Y289000D01*
X138000D01*
X138700Y288300D01*
Y287500D01*
X138200Y287000D02*X138700Y287500D01*
X137200Y287000D02*X138200D01*
X136700Y289700D02*X137400Y289000D01*
X136700Y290500D02*Y289700D01*
Y290500D02*X137200Y291000D01*
X138200D01*
X138700Y290500D01*
Y289700D01*
X138000Y289000D02*X138700Y289700D01*
X85700Y383500D02*X87000D01*
X85000Y384200D02*X85700Y383500D01*
X85000Y386800D02*Y384200D01*
Y386800D02*X85700Y387500D01*
X87000D01*
X88200Y387000D02*Y384000D01*
Y387000D02*X88700Y387500D01*
X89700D01*
X90200Y387000D01*
Y384000D01*
X89700Y383500D02*X90200Y384000D01*
X88700Y383500D02*X89700D01*
X88200Y384000D02*X88700Y383500D01*
X91400Y387500D02*Y383500D01*
Y387500D02*X93900Y383500D01*
Y387500D02*Y383500D01*
X95100Y387500D02*Y383500D01*
Y387500D02*X97600Y383500D01*
Y387500D02*Y383500D01*
X99300D02*X100800Y385500D01*
Y387000D02*Y385500D01*
X100300Y387500D02*X100800Y387000D01*
X99300Y387500D02*X100300D01*
X98800Y387000D02*X99300Y387500D01*
X98800Y387000D02*Y386000D01*
X99300Y385500D01*
X100800D01*
X125700Y383500D02*X127000D01*
X125000Y384200D02*X125700Y383500D01*
X125000Y386800D02*Y384200D01*
Y386800D02*X125700Y387500D01*
X127000D01*
X128200Y387000D02*Y384000D01*
Y387000D02*X128700Y387500D01*
X129700D01*
X130200Y387000D01*
Y384000D01*
X129700Y383500D02*X130200Y384000D01*
X128700Y383500D02*X129700D01*
X128200Y384000D02*X128700Y383500D01*
X131400Y387500D02*Y383500D01*
Y387500D02*X133900Y383500D01*
Y387500D02*Y383500D01*
X135100Y387500D02*Y383500D01*
Y387500D02*X137600Y383500D01*
Y387500D02*Y383500D01*
X138800Y384000D02*X139300Y383500D01*
X138800Y384800D02*Y384000D01*
Y384800D02*X139500Y385500D01*
X140100D01*
X140800Y384800D01*
Y384000D01*
X140300Y383500D02*X140800Y384000D01*
X139300Y383500D02*X140300D01*
X138800Y386200D02*X139500Y385500D01*
X138800Y387000D02*Y386200D01*
Y387000D02*X139300Y387500D01*
X140300D01*
X140800Y387000D01*
Y386200D01*
X140100Y385500D02*X140800Y386200D01*
X69000Y356500D02*Y353500D01*
Y356500D02*X69500Y357000D01*
X70500D01*
X71000Y356500D01*
Y354000D01*
X70000Y353000D02*X71000Y354000D01*
X69500Y353000D02*X70000D01*
X69000Y353500D02*X69500Y353000D01*
X70000Y354500D02*X71000Y353000D01*
X72200Y356200D02*X73000Y357000D01*
Y353000D01*
X72200D02*X73700D01*
X74900Y353500D02*X75400Y353000D01*
X74900Y356500D02*Y353500D01*
Y356500D02*X75400Y357000D01*
X76400D01*
X76900Y356500D01*
Y353500D01*
X76400Y353000D02*X76900Y353500D01*
X75400Y353000D02*X76400D01*
X74900Y354000D02*X76900Y356000D01*
X52000Y290500D02*X54000D01*
X54500Y290000D01*
Y289000D01*
X54000Y288500D02*X54500Y289000D01*
X52500Y288500D02*X54000D01*
X52500Y290500D02*Y286500D01*
X53300Y288500D02*X54500Y286500D01*
X55700Y289700D02*X56500Y290500D01*
Y286500D01*
X55700D02*X57200D01*
X58400Y287000D02*X58900Y286500D01*
X58400Y290000D02*Y287000D01*
Y290000D02*X58900Y290500D01*
X59900D01*
X60400Y290000D01*
Y287000D01*
X59900Y286500D02*X60400Y287000D01*
X58900Y286500D02*X59900D01*
X58400Y287500D02*X60400Y289500D01*
X45700Y383500D02*X47000D01*
X45000Y384200D02*X45700Y383500D01*
X45000Y386800D02*Y384200D01*
Y386800D02*X45700Y387500D01*
X47000D01*
X48200Y387000D02*Y384000D01*
Y387000D02*X48700Y387500D01*
X49700D01*
X50200Y387000D01*
Y384000D01*
X49700Y383500D02*X50200Y384000D01*
X48700Y383500D02*X49700D01*
X48200Y384000D02*X48700Y383500D01*
X51400Y387500D02*Y383500D01*
Y387500D02*X53900Y383500D01*
Y387500D02*Y383500D01*
X55100Y387500D02*Y383500D01*
Y387500D02*X57600Y383500D01*
Y387500D02*Y383500D01*
X58800Y386700D02*X59600Y387500D01*
Y383500D01*
X58800D02*X60300D01*
X61500Y384000D02*X62000Y383500D01*
X61500Y387000D02*Y384000D01*
Y387000D02*X62000Y387500D01*
X63000D01*
X63500Y387000D01*
Y384000D01*
X63000Y383500D02*X63500Y384000D01*
X62000Y383500D02*X63000D01*
X61500Y384500D02*X63500Y386500D01*
X229000Y358500D02*Y355500D01*
Y358500D02*X229500Y359000D01*
X230500D01*
X231000Y358500D01*
Y356000D01*
X230000Y355000D02*X231000Y356000D01*
X229500Y355000D02*X230000D01*
X229000Y355500D02*X229500Y355000D01*
X230000Y356500D02*X231000Y355000D01*
X233700Y359000D02*X234200Y358500D01*
X232700Y359000D02*X233700D01*
X232200Y358500D02*X232700Y359000D01*
X232200Y358500D02*Y355500D01*
X232700Y355000D01*
X233700Y357200D02*X234200Y356700D01*
X232200Y357200D02*X233700D01*
X232700Y355000D02*X233700D01*
X234200Y355500D01*
Y356700D02*Y355500D01*
X190000Y357500D02*Y354500D01*
Y357500D02*X190500Y358000D01*
X191500D01*
X192000Y357500D01*
Y355000D01*
X191000Y354000D02*X192000Y355000D01*
X190500Y354000D02*X191000D01*
X190000Y354500D02*X190500Y354000D01*
X191000Y355500D02*X192000Y354000D01*
X193700D02*X195700Y358000D01*
X193200D02*X195700D01*
X150000Y358500D02*Y355500D01*
Y358500D02*X150500Y359000D01*
X151500D01*
X152000Y358500D01*
Y356000D01*
X151000Y355000D02*X152000Y356000D01*
X150500Y355000D02*X151000D01*
X150000Y355500D02*X150500Y355000D01*
X151000Y356500D02*X152000Y355000D01*
X153200Y355500D02*X153700Y355000D01*
X153200Y356300D02*Y355500D01*
Y356300D02*X153900Y357000D01*
X154500D01*
X155200Y356300D01*
Y355500D01*
X154700Y355000D02*X155200Y355500D01*
X153700Y355000D02*X154700D01*
X153200Y357700D02*X153900Y357000D01*
X153200Y358500D02*Y357700D01*
Y358500D02*X153700Y359000D01*
X154700D01*
X155200Y358500D01*
Y357700D01*
X154500Y357000D02*X155200Y357700D01*
X165700Y383500D02*X167000D01*
X165000Y384200D02*X165700Y383500D01*
X165000Y386800D02*Y384200D01*
Y386800D02*X165700Y387500D01*
X167000D01*
X168200Y387000D02*Y384000D01*
Y387000D02*X168700Y387500D01*
X169700D01*
X170200Y387000D01*
Y384000D01*
X169700Y383500D02*X170200Y384000D01*
X168700Y383500D02*X169700D01*
X168200Y384000D02*X168700Y383500D01*
X171400Y387500D02*Y383500D01*
Y387500D02*X173900Y383500D01*
Y387500D02*Y383500D01*
X175100Y387500D02*Y383500D01*
Y387500D02*X177600Y383500D01*
Y387500D02*Y383500D01*
X179300D02*X181300Y387500D01*
X178800D02*X181300D01*
X205700Y383500D02*X207000D01*
X205000Y384200D02*X205700Y383500D01*
X205000Y386800D02*Y384200D01*
Y386800D02*X205700Y387500D01*
X207000D01*
X208200Y387000D02*Y384000D01*
Y387000D02*X208700Y387500D01*
X209700D01*
X210200Y387000D01*
Y384000D01*
X209700Y383500D02*X210200Y384000D01*
X208700Y383500D02*X209700D01*
X208200Y384000D02*X208700Y383500D01*
X211400Y387500D02*Y383500D01*
Y387500D02*X213900Y383500D01*
Y387500D02*Y383500D01*
X215100Y387500D02*Y383500D01*
Y387500D02*X217600Y383500D01*
Y387500D02*Y383500D01*
X220300Y387500D02*X220800Y387000D01*
X219300Y387500D02*X220300D01*
X218800Y387000D02*X219300Y387500D01*
X218800Y387000D02*Y384000D01*
X219300Y383500D01*
X220300Y385700D02*X220800Y385200D01*
X218800Y385700D02*X220300D01*
X219300Y383500D02*X220300D01*
X220800Y384000D01*
Y385200D02*Y384000D01*
M02*
