G04 start of page 9 for group -4079 idx -4079 *
G04 Title: (unknown), topsilk *
G04 Creator: pcb 20110918 *
G04 CreationDate: Tue 29 Apr 2014 11:30:52 GMT UTC *
G04 For: ksarkies *
G04 Format: Gerber/RS-274X *
G04 PCB-Dimensions: 390000 390000 *
G04 PCB-Coordinate-Origin: lower left *
%MOIN*%
%FSLAX25Y25*%
%LNTOPSILK*%
%ADD123C,0.0060*%
%ADD122C,0.0300*%
%ADD121C,0.0200*%
%ADD120C,0.0100*%
G54D120*X288000Y280500D02*X302000D01*
X287929Y280571D02*G75*G03X302071Y280571I7071J-7071D01*G01*
G54D121*X290000Y248500D02*Y228500D01*
Y248500D02*X300000D01*
Y228500D01*
X290000D02*X300000D01*
X295000D02*Y218500D01*
Y258500D02*Y248500D01*
X285000Y303500D02*X305000D01*
Y293500D01*
X285000D01*
Y303500D01*
X275000Y298500D02*X285000D01*
X305000D02*X315000D01*
X290000Y202500D02*Y182500D01*
X280000D02*X290000D01*
X280000Y202500D02*Y182500D01*
Y202500D02*X290000D01*
X285000Y212500D02*Y202500D01*
Y182500D02*Y172500D01*
G54D120*X371000Y101000D02*X379000D01*
Y139000D02*Y101000D01*
X371000Y139000D02*X379000D01*
X371000D02*Y101000D01*
X304500Y145000D02*X308500D01*
X306500Y147000D02*Y143000D01*
X332500Y145000D02*X336500D01*
X310500D02*G75*G03X310500Y145000I10000J0D01*G01*
X368000Y260000D02*X388000D01*
X368000D02*Y220000D01*
X388000D01*
Y260000D02*Y220000D01*
X368000D02*X388000D01*
X368000D02*Y180000D01*
X388000D01*
Y220000D02*Y180000D01*
X314704Y205295D02*Y179705D01*
X297972Y187578D02*X314704D01*
X297972D02*Y179704D01*
X314703D02*X314704Y179705D01*
X297972Y205295D02*Y197421D01*
X314704D01*
X297972Y205295D02*X348169D01*
X297972Y179704D02*X348168D01*
X348169Y179705D01*
Y205295D02*Y179705D01*
X328000Y280500D02*X342000D01*
X327929Y280571D02*G75*G03X342071Y280571I7071J-7071D01*G01*
G54D121*X325000Y293500D02*X345000D01*
Y283500D01*
X325000D01*
Y293500D01*
X315000Y288500D02*X325000D01*
X345000D02*X355000D01*
G54D120*X322205Y326767D02*X347795D01*
X339922D02*Y310035D01*
X347796D01*
Y326766D02*X347795Y326767D01*
X322205Y310035D02*X330079D01*
Y326767D01*
X322205Y310035D02*Y360232D01*
X347796Y310035D02*Y360231D01*
X347795Y360232D01*
X322205D02*X347795D01*
X315000Y368500D02*Y388500D01*
X355000Y368500D02*X315000D01*
X355000Y388500D02*Y368500D01*
X315000Y388500D02*X355000D01*
G54D121*X330000Y248500D02*Y228500D01*
Y248500D02*X340000D01*
Y228500D01*
X330000D02*X340000D01*
X335000D02*Y218500D01*
Y258500D02*Y248500D01*
G54D120*X242205Y326767D02*X267795D01*
X259922D02*Y310035D01*
X267796D01*
Y326766D02*X267795Y326767D01*
X242205Y310035D02*X250079D01*
Y326767D01*
X242205Y310035D02*Y360232D01*
X267796Y310035D02*Y360231D01*
X267795Y360232D01*
X242205D02*X267795D01*
X202205Y326767D02*X227795D01*
X219922D02*Y310035D01*
X227796D01*
Y326766D02*X227795Y326767D01*
X202205Y310035D02*X210079D01*
Y326767D01*
X202205Y310035D02*Y360232D01*
X227796Y310035D02*Y360231D01*
X227795Y360232D01*
X202205D02*X227795D01*
X162205Y326767D02*X187795D01*
X179922D02*Y310035D01*
X187796D01*
Y326766D02*X187795Y326767D01*
X162205Y310035D02*X170079D01*
Y326767D01*
X162205Y310035D02*Y360232D01*
X187796Y310035D02*Y360231D01*
X187795Y360232D01*
X162205D02*X187795D01*
G54D121*X205000Y303500D02*X225000D01*
Y293500D01*
X205000D01*
Y303500D01*
X195000Y298500D02*X205000D01*
X225000D02*X235000D01*
X165000Y293500D02*X185000D01*
Y283500D01*
X165000D01*
Y293500D01*
X155000Y288500D02*X165000D01*
X185000D02*X195000D01*
G54D120*Y368500D02*Y388500D01*
X235000Y368500D02*X195000D01*
X235000Y388500D02*Y368500D01*
X195000Y388500D02*X235000D01*
G54D121*X170000Y248500D02*Y228500D01*
Y248500D02*X180000D01*
Y228500D01*
X170000D02*X180000D01*
X175000D02*Y218500D01*
Y258500D02*Y248500D01*
X130000D02*Y228500D01*
Y248500D02*X140000D01*
Y228500D01*
X130000D02*X140000D01*
X135000D02*Y218500D01*
Y258500D02*Y248500D01*
X90000D02*Y228500D01*
Y248500D02*X100000D01*
Y228500D01*
X90000D02*X100000D01*
X95000D02*Y218500D01*
Y258500D02*Y248500D01*
G54D120*X122205Y326767D02*X147795D01*
X139922D02*Y310035D01*
X147796D01*
Y326766D02*X147795Y326767D01*
X122205Y310035D02*X130079D01*
Y326767D01*
X122205Y310035D02*Y360232D01*
X147796Y310035D02*Y360231D01*
X147795Y360232D01*
X122205D02*X147795D01*
G54D121*X85000Y293500D02*X105000D01*
Y283500D01*
X85000D01*
Y293500D01*
X75000Y288500D02*X85000D01*
X105000D02*X115000D01*
X125000Y303500D02*X145000D01*
Y293500D01*
X125000D01*
Y303500D01*
X115000Y298500D02*X125000D01*
X145000D02*X155000D01*
X45000Y303500D02*X65000D01*
Y293500D01*
X45000D01*
Y303500D01*
X35000Y298500D02*X45000D01*
X65000D02*X75000D01*
G54D120*X82205Y326767D02*X107795D01*
X99922D02*Y310035D01*
X107796D01*
Y326766D02*X107795Y326767D01*
X82205Y310035D02*X90079D01*
Y326767D01*
X82205Y310035D02*Y360232D01*
X107796Y310035D02*Y360231D01*
X107795Y360232D01*
X82205D02*X107795D01*
X42205Y326767D02*X67795D01*
X59922D02*Y310035D01*
X67796D01*
Y326766D02*X67795Y326767D01*
X42205Y310035D02*X50079D01*
Y326767D01*
X42205Y310035D02*Y360232D01*
X67796Y310035D02*Y360231D01*
X67795Y360232D01*
X42205D02*X67795D01*
X35000Y368500D02*Y388500D01*
X75000Y368500D02*X35000D01*
X75000Y388500D02*Y368500D01*
X35000Y388500D02*X75000D01*
Y368500D02*Y388500D01*
X115000Y368500D02*X75000D01*
X115000Y388500D02*Y368500D01*
X75000Y388500D02*X115000D01*
Y368500D02*Y388500D01*
X155000Y368500D02*X115000D01*
X155000Y388500D02*Y368500D01*
X115000Y388500D02*X155000D01*
Y368500D02*Y388500D01*
X195000Y368500D02*X155000D01*
X195000Y388500D02*Y368500D01*
X155000Y388500D02*X195000D01*
X248000Y280500D02*X262000D01*
X247929Y280571D02*G75*G03X262071Y280571I7071J-7071D01*G01*
G54D121*X250000Y248500D02*Y228500D01*
Y248500D02*X260000D01*
Y228500D01*
X250000D02*X260000D01*
X255000D02*Y218500D01*
Y258500D02*Y248500D01*
X210000D02*Y228500D01*
Y248500D02*X220000D01*
Y228500D01*
X210000D02*X220000D01*
X215000D02*Y218500D01*
Y258500D02*Y248500D01*
G54D120*X282205Y326767D02*X307795D01*
X299922D02*Y310035D01*
X307796D01*
Y326766D02*X307795Y326767D01*
X282205Y310035D02*X290079D01*
Y326767D01*
X282205Y310035D02*Y360232D01*
X307796Y310035D02*Y360231D01*
X307795Y360232D01*
X282205D02*X307795D01*
X275000Y368500D02*Y388500D01*
X315000Y368500D02*X275000D01*
X315000Y388500D02*Y368500D01*
X275000Y388500D02*X315000D01*
G54D121*X245000Y293500D02*X265000D01*
Y283500D01*
X245000D01*
Y293500D01*
X235000Y288500D02*X245000D01*
X265000D02*X275000D01*
G54D120*X166500Y188500D02*X226500D01*
X166500D02*Y168500D01*
X226500D01*
Y188500D02*Y168500D01*
X216500Y188500D02*Y178500D01*
X226500D01*
X166500Y158500D02*X226500D01*
X166500D02*Y138500D01*
X226500D01*
Y158500D02*Y138500D01*
X216500Y158500D02*Y148500D01*
X226500D01*
X118000Y199500D02*Y185500D01*
X117929Y185429D02*G75*G03X117929Y199571I7071J7071D01*G01*
G54D121*X100000Y202500D02*Y182500D01*
Y202500D02*X110000D01*
Y182500D01*
X100000D02*X110000D01*
X105000D02*Y172500D01*
Y212500D02*Y202500D01*
X152500D02*Y182500D01*
X142500D02*X152500D01*
X142500Y202500D02*Y182500D01*
Y202500D02*X152500D01*
X147500Y212500D02*Y202500D01*
Y182500D02*Y172500D01*
G54D120*X235000Y368500D02*Y388500D01*
X275000Y368500D02*X235000D01*
X275000Y388500D02*Y368500D01*
X235000Y388500D02*X275000D01*
G54D121*X245000Y202500D02*Y182500D01*
X235000D02*X245000D01*
X235000Y202500D02*Y182500D01*
Y202500D02*X245000D01*
X240000Y212500D02*Y202500D01*
Y182500D02*Y172500D01*
G54D120*X269500Y199500D02*Y185500D01*
X269571Y199571D02*G75*G03X269571Y185429I-7071J-7071D01*G01*
X265000Y145000D02*X269000D01*
X267000Y147000D02*Y143000D01*
X293000Y145000D02*X297000D01*
X271000D02*G75*G03X271000Y145000I10000J0D01*G01*
G54D121*X50000Y248500D02*Y228500D01*
Y248500D02*X60000D01*
Y228500D01*
X50000D02*X60000D01*
X55000D02*Y218500D01*
Y258500D02*Y248500D01*
G54D120*X72796Y205295D02*Y179705D01*
Y197422D02*X89528D01*
Y205296D02*Y197422D01*
X72797Y205296D02*X72796Y205295D01*
X89528Y187579D02*Y179705D01*
X72796Y187579D02*X89528D01*
X39331Y179705D02*X89528D01*
X39332Y205296D02*X89528D01*
X39332D02*X39331Y205295D01*
Y179705D01*
X19500Y137000D02*X27500D01*
Y155000D02*Y137000D01*
X19500Y155000D02*X27500D01*
X19500D02*Y137000D01*
X9000D02*X17000D01*
Y155000D02*Y137000D01*
X9000Y155000D02*X17000D01*
X9000D02*Y137000D01*
X85000Y29000D02*Y19000D01*
X105000Y29000D02*Y19000D01*
X90000Y14000D02*X100000D01*
X90000Y34000D02*X100000D01*
X90000Y24000D02*G75*G03X90000Y24000I5000J0D01*G01*
X63000Y100000D02*X63500D01*
X63000D02*Y80000D01*
X63500D01*
X72500D02*X73000D01*
Y100000D02*Y80000D01*
X72500Y100000D02*X73000D01*
G54D121*X89500Y109500D02*Y89500D01*
X79500D02*X89500D01*
X79500Y109500D02*Y89500D01*
Y109500D02*X89500D01*
X84500Y119500D02*Y109500D01*
Y89500D02*Y79500D01*
X80500Y48000D02*X100500D01*
X80500Y58000D02*Y48000D01*
Y58000D02*X100500D01*
Y48000D01*
Y53000D02*X110500D01*
X70500D02*X80500D01*
X163500Y59500D02*X183500D01*
Y49500D02*X163500D01*
X183500D02*G75*G03X183500Y59500I0J5000D01*G01*
X163500D02*G75*G03X163500Y49500I0J-5000D01*G01*
G54D120*X100000Y75000D02*X240000D01*
Y115000D02*Y75000D01*
X100000Y115000D02*X240000D01*
X100000Y90000D02*Y75000D01*
Y115000D02*Y100000D01*
Y90000D02*G75*G03X100000Y100000I0J5000D01*G01*
X168000Y45000D02*Y44500D01*
X148000Y45000D02*X168000D01*
X148000D02*Y44500D01*
Y35500D02*Y35000D01*
X168000D01*
Y35500D02*Y35000D01*
X179000Y35500D02*Y35000D01*
X199000D01*
Y35500D02*Y35000D01*
Y45000D02*Y44500D01*
X179000Y45000D02*X199000D01*
X179000D02*Y44500D01*
X145000Y13500D02*X203000D01*
X145000Y21500D02*Y13500D01*
Y21500D02*X203000D01*
Y13500D01*
X3389Y68389D02*X55275D01*
Y132874D02*Y68389D01*
X3389Y132874D02*X55275D01*
X3389D02*Y68389D01*
X19500Y43500D02*X27500D01*
Y61500D02*Y43500D01*
X19500Y61500D02*X27500D01*
X19500D02*Y43500D01*
X9000D02*X17000D01*
Y61500D02*Y43500D01*
X9000Y61500D02*X17000D01*
X9000D02*Y43500D01*
G54D121*X240000Y16500D02*X280000D01*
X240000Y34500D02*Y16500D01*
Y34500D02*X280000D01*
Y16500D01*
X240000D02*X280000D01*
X240000Y22500D02*Y16500D01*
Y22500D02*X280000D01*
Y16500D01*
G54D120*X267000Y22500D02*Y16500D01*
X253000Y22500D02*Y16500D01*
G54D122*X260000Y38500D02*Y34500D01*
G54D120*X294500Y40000D02*Y36000D01*
X292500Y38000D02*X296500D01*
X294500Y12000D02*Y8000D01*
Y34000D02*G75*G03X294500Y34000I0J-10000D01*G01*
G54D123*X352000Y57200D02*Y700D01*
X318000Y57200D02*X352000D01*
X318000D02*Y700D01*
X352000D01*
X347000Y4200D02*Y700D01*
X323000Y4200D02*Y700D01*
Y30000D02*X347000D01*
X323000Y29900D02*Y26700D01*
X347000Y29900D02*Y26700D01*
Y23200D02*Y20200D01*
X323000Y23200D02*Y20200D01*
Y16700D02*Y13700D01*
X347000Y16700D02*Y13700D01*
Y10200D02*Y7200D01*
X323000Y10200D02*Y7200D01*
X331500Y30000D02*Y6800D01*
X338500Y30000D02*Y6500D01*
X345500Y45000D02*X344500Y44000D01*
X334500Y50500D02*Y39500D01*
X340000Y38000D02*Y32500D01*
X337000Y38500D02*X337500D01*
X339500Y48500D02*X346000D01*
Y41500D01*
X342500Y45000D02*X345500D01*
X342500D02*Y38000D01*
X349500D01*
X352000Y40500D01*
X345500Y45000D02*X344500Y46000D01*
X335500Y50500D02*Y39500D01*
X340000Y32500D02*X337000Y31000D01*
X339500Y43500D02*Y42500D01*
X335500Y49500D02*X336500D01*
X333500D02*X334500D01*
X332000D02*X332500D01*
X330500D02*X331000D01*
X330500D02*Y48500D01*
Y47500D02*Y46500D01*
Y45500D02*Y44500D01*
Y43500D02*Y42500D01*
Y41500D02*Y40500D01*
Y39500D02*Y38500D01*
X339500Y45500D02*Y44500D01*
Y39500D02*Y38500D01*
Y41500D02*Y40500D01*
X337500Y49500D02*X338000D01*
X339000D02*X339500D01*
Y48500D01*
Y47500D02*Y46500D01*
X332500Y38500D02*X333000D01*
X338000Y47000D02*Y40000D01*
X335000Y3200D02*G75*G03X338500Y6700I0J3500D01*G01*
X331500Y7200D02*G75*G03X335500Y3200I4000J0D01*G01*
X334500Y39500D02*G75*G03X335000Y39000I500J0D01*G01*
Y39002D02*G75*G03X335500Y39502I0J500D01*G01*
X340000Y33000D02*G75*G03X339500Y32500I0J-500D01*G01*
Y32501D02*G75*G03X340001Y32000I501J0D01*G01*
X340000Y38000D02*G75*G03X339000Y39000I-1000J0D01*G01*
X340500Y32500D02*G75*G03X340000Y33000I-500J0D01*G01*
X339999Y32000D02*G75*G03X340500Y32501I0J501D01*G01*
X339500Y48501D02*G75*G03X338000Y47001I0J-1500D01*G01*
Y40000D02*G75*G03X339000Y39000I1000J0D01*G01*
G54D120*X259500Y70000D02*X263500D01*
X261500Y72000D02*Y68000D01*
X287500Y70000D02*X291500D01*
X265500D02*G75*G03X265500Y70000I10000J0D01*G01*
Y85000D02*X345500D01*
Y125000D02*Y85000D01*
X265500Y125000D02*X345500D01*
X265500Y100000D02*Y85000D01*
Y125000D02*Y110000D01*
Y100000D02*G75*G03X265500Y110000I0J5000D01*G01*
X289500Y70000D02*X293500D01*
X291500Y72000D02*Y68000D01*
X317500Y70000D02*X321500D01*
X295500D02*G75*G03X295500Y70000I10000J0D01*G01*
X280500Y46000D02*Y45500D01*
X300500D01*
Y46000D02*Y45500D01*
Y55500D02*Y55000D01*
X280500Y55500D02*X300500D01*
X280500D02*Y55000D01*
X231000Y17500D02*X231500D01*
Y37500D02*Y17500D01*
X231000Y37500D02*X231500D01*
X221500D02*X222000D01*
X221500D02*Y17500D01*
X222000D01*
X0Y180000D02*X20000D01*
Y220000D02*Y180000D01*
X0Y220000D02*X20000D01*
X0D02*Y180000D01*
Y220000D02*X20000D01*
Y260000D02*Y220000D01*
X0Y260000D02*X20000D01*
X0D02*Y220000D01*
X128000Y280500D02*X142000D01*
X127929Y280571D02*G75*G03X142071Y280571I7071J-7071D01*G01*
X168000Y280500D02*X182000D01*
X167929Y280571D02*G75*G03X182071Y280571I7071J-7071D01*G01*
X208000Y280500D02*X222000D01*
X207929Y280571D02*G75*G03X222071Y280571I7071J-7071D01*G01*
X48000Y280500D02*X62000D01*
X47929Y280571D02*G75*G03X62071Y280571I7071J-7071D01*G01*
X88000Y280500D02*X102000D01*
X87929Y280571D02*G75*G03X102071Y280571I7071J-7071D01*G01*
G54D123*X5000Y192000D02*Y190700D01*
X4300Y190000D02*X5000Y190700D01*
X1700Y190000D02*X4300D01*
X1700D02*X1000Y190700D01*
Y192000D02*Y190700D01*
X1500Y193200D02*X4500D01*
X1500D02*X1000Y193700D01*
Y194700D02*Y193700D01*
Y194700D02*X1500Y195200D01*
X4500D01*
X5000Y194700D02*X4500Y195200D01*
X5000Y194700D02*Y193700D01*
X4500Y193200D02*X5000Y193700D01*
X1000Y196400D02*X5000D01*
X1000D02*X5000Y198900D01*
X1000D02*X5000D01*
X1000Y200100D02*X5000D01*
X1000D02*X5000Y202600D01*
X1000D02*X5000D01*
X1800Y203800D02*X1000Y204600D01*
X5000D01*
Y205300D02*Y203800D01*
X33941Y180689D02*X36941D01*
X33941D02*X33441Y181189D01*
Y182189D02*Y181189D01*
Y182189D02*X33941Y182689D01*
X36441D01*
X37441Y181689D02*X36441Y182689D01*
X37441Y181689D02*Y181189D01*
X36941Y180689D02*X37441Y181189D01*
X35941Y181689D02*X37441Y182689D01*
X34241Y183889D02*X33441Y184689D01*
X37441D01*
Y185389D02*Y183889D01*
X28500Y139000D02*Y138200D01*
Y139000D02*X32000D01*
X32500Y138500D02*X32000Y139000D01*
X32500Y138500D02*Y138000D01*
X32000Y137500D02*X32500Y138000D01*
X31500Y137500D02*X32000D01*
X29000Y140200D02*X28500Y140700D01*
Y142200D02*Y140700D01*
Y142200D02*X29000Y142700D01*
X30000D01*
X32500Y140200D02*X30000Y142700D01*
X32500D02*Y140200D01*
X3500Y139000D02*Y138200D01*
Y139000D02*X7000D01*
X7500Y138500D02*X7000Y139000D01*
X7500Y138500D02*Y138000D01*
X7000Y137500D02*X7500Y138000D01*
X6500Y137500D02*X7000D01*
X4300Y140200D02*X3500Y141000D01*
X7500D01*
Y141700D02*Y140200D01*
X5000Y232000D02*Y230700D01*
X4300Y230000D02*X5000Y230700D01*
X1700Y230000D02*X4300D01*
X1700D02*X1000Y230700D01*
Y232000D02*Y230700D01*
X1500Y233200D02*X4500D01*
X1500D02*X1000Y233700D01*
Y234700D02*Y233700D01*
Y234700D02*X1500Y235200D01*
X4500D01*
X5000Y234700D02*X4500Y235200D01*
X5000Y234700D02*Y233700D01*
X4500Y233200D02*X5000Y233700D01*
X1000Y236400D02*X5000D01*
X1000D02*X5000Y238900D01*
X1000D02*X5000D01*
X1000Y240100D02*X5000D01*
X1000D02*X5000Y242600D01*
X1000D02*X5000D01*
X1800Y243800D02*X1000Y244600D01*
X5000D01*
Y245300D02*Y243800D01*
X1000Y248000D02*X1500Y248500D01*
X1000Y248000D02*Y247000D01*
X1500Y246500D02*X1000Y247000D01*
X1500Y246500D02*X4500D01*
X5000Y247000D01*
X2800Y248000D02*X3300Y248500D01*
X2800Y248000D02*Y246500D01*
X5000Y248000D02*Y247000D01*
Y248000D02*X4500Y248500D01*
X3300D02*X4500D01*
X224500Y193500D02*X225800D01*
X226500Y192800D02*X225800Y193500D01*
X226500Y192800D02*Y190200D01*
X225800Y189500D01*
X224500D02*X225800D01*
X223300Y193000D02*Y190000D01*
X222800Y189500D01*
X221800D02*X222800D01*
X221800D02*X221300Y190000D01*
Y193000D02*Y190000D01*
X221800Y193500D02*X221300Y193000D01*
X221800Y193500D02*X222800D01*
X223300Y193000D02*X222800Y193500D01*
X220100D02*Y189500D01*
X217600Y193500D01*
Y189500D01*
X216400Y193500D02*Y189500D01*
X213900Y193500D01*
Y189500D01*
X212700Y190300D02*X211900Y189500D01*
Y193500D02*Y189500D01*
X211200Y193500D02*X212700D01*
X210000Y190000D02*X209500Y189500D01*
X208000D02*X209500D01*
X208000D02*X207500Y190000D01*
Y191000D02*Y190000D01*
X210000Y193500D02*X207500Y191000D01*
Y193500D02*X210000D01*
X224500Y163500D02*X225800D01*
X226500Y162800D02*X225800Y163500D01*
X226500Y162800D02*Y160200D01*
X225800Y159500D01*
X224500D02*X225800D01*
X223300Y163000D02*Y160000D01*
X222800Y159500D01*
X221800D02*X222800D01*
X221800D02*X221300Y160000D01*
Y163000D02*Y160000D01*
X221800Y163500D02*X221300Y163000D01*
X221800Y163500D02*X222800D01*
X223300Y163000D02*X222800Y163500D01*
X220100D02*Y159500D01*
X217600Y163500D01*
Y159500D01*
X216400Y163500D02*Y159500D01*
X213900Y163500D01*
Y159500D01*
X212700Y160300D02*X211900Y159500D01*
Y163500D02*Y159500D01*
X211200Y163500D02*X212700D01*
X210000Y160300D02*X209200Y159500D01*
Y163500D02*Y159500D01*
X208500Y163500D02*X210000D01*
X91000Y189500D02*Y187500D01*
Y189500D02*X91500Y190000D01*
X92500D01*
X93000Y189500D02*X92500Y190000D01*
X93000Y189500D02*Y188000D01*
X91000D02*X95000D01*
X93000Y188800D02*X95000Y190000D01*
X91800Y191200D02*X91000Y192000D01*
X95000D01*
Y192700D02*Y191200D01*
X161500Y197500D02*Y195500D01*
X161000Y195000D01*
X160000D02*X161000D01*
X159500Y195500D02*X160000Y195000D01*
X159500Y197000D02*Y195500D01*
X157500Y197000D02*X161500D01*
X159500Y196200D02*X157500Y195000D01*
X160700Y193800D02*X161500Y193000D01*
X157500D02*X161500D01*
X157500Y193800D02*Y192300D01*
X160700Y191100D02*X161500Y190300D01*
X157500D02*X161500D01*
X157500Y191100D02*Y189600D01*
X65000Y267000D02*Y264000D01*
Y267000D02*X65500Y267500D01*
X66500D01*
X67000Y267000D01*
Y264500D01*
X66000Y263500D02*X67000Y264500D01*
X65500Y263500D02*X66000D01*
X65000Y264000D02*X65500Y263500D01*
X66000Y265000D02*X67000Y263500D01*
X68200Y267000D02*X68700Y267500D01*
X70200D01*
X70700Y267000D01*
Y266000D01*
X68200Y263500D02*X70700Y266000D01*
X68200Y263500D02*X70700D01*
X71900Y264000D02*X72400Y263500D01*
X71900Y267000D02*Y264000D01*
Y267000D02*X72400Y267500D01*
X73400D01*
X73900Y267000D01*
Y264000D01*
X73400Y263500D02*X73900Y264000D01*
X72400Y263500D02*X73400D01*
X71900Y264500D02*X73900Y266500D01*
X42500Y235500D02*Y233500D01*
Y235500D02*X43000Y236000D01*
X44000D01*
X44500Y235500D02*X44000Y236000D01*
X44500Y235500D02*Y234000D01*
X42500D02*X46500D01*
X44500Y234800D02*X46500Y236000D01*
X43000Y237200D02*X42500Y237700D01*
Y239200D02*Y237700D01*
Y239200D02*X43000Y239700D01*
X44000D01*
X46500Y237200D02*X44000Y239700D01*
X46500D02*Y237200D01*
X46000Y240900D02*X46500Y241400D01*
X43000Y240900D02*X46000D01*
X43000D02*X42500Y241400D01*
Y242400D02*Y241400D01*
Y242400D02*X43000Y242900D01*
X46000D01*
X46500Y242400D02*X46000Y242900D01*
X46500Y242400D02*Y241400D01*
X45500Y240900D02*X43500Y242900D01*
X82500Y235500D02*Y233500D01*
Y235500D02*X83000Y236000D01*
X84000D01*
X84500Y235500D02*X84000Y236000D01*
X84500Y235500D02*Y234000D01*
X82500D02*X86500D01*
X84500Y234800D02*X86500Y236000D01*
X83300Y237200D02*X82500Y238000D01*
X86500D01*
Y238700D02*Y237200D01*
Y240400D02*X84500Y241900D01*
X83000D02*X84500D01*
X82500Y241400D02*X83000Y241900D01*
X82500Y241400D02*Y240400D01*
X83000Y239900D02*X82500Y240400D01*
X83000Y239900D02*X84000D01*
X84500Y240400D01*
Y241900D02*Y240400D01*
X105000Y267000D02*Y264000D01*
Y267000D02*X105500Y267500D01*
X106500D01*
X107000Y267000D01*
Y264500D01*
X106000Y263500D02*X107000Y264500D01*
X105500Y263500D02*X106000D01*
X105000Y264000D02*X105500Y263500D01*
X106000Y265000D02*X107000Y263500D01*
X108200Y266700D02*X109000Y267500D01*
Y263500D01*
X108200D02*X109700D01*
X111400D02*X112900Y265500D01*
Y267000D02*Y265500D01*
X112400Y267500D02*X112900Y267000D01*
X111400Y267500D02*X112400D01*
X110900Y267000D02*X111400Y267500D01*
X110900Y267000D02*Y266000D01*
X111400Y265500D01*
X112900D01*
X131500Y202500D02*X134500D01*
X131500D02*X131000Y203000D01*
Y204000D02*Y203000D01*
Y204000D02*X131500Y204500D01*
X134000D01*
X135000Y203500D02*X134000Y204500D01*
X135000Y203500D02*Y203000D01*
X134500Y202500D02*X135000Y203000D01*
X133500Y203500D02*X135000Y204500D01*
X131800Y205700D02*X131000Y206500D01*
X135000D01*
Y207200D02*Y205700D01*
X131800Y208400D02*X131000Y209200D01*
X135000D01*
Y209900D02*Y208400D01*
X123000Y235500D02*Y233500D01*
Y235500D02*X123500Y236000D01*
X124500D01*
X125000Y235500D02*X124500Y236000D01*
X125000Y235500D02*Y234000D01*
X123000D02*X127000D01*
X125000Y234800D02*X127000Y236000D01*
X123800Y237200D02*X123000Y238000D01*
X127000D01*
Y238700D02*Y237200D01*
X126500Y239900D02*X127000Y240400D01*
X125700Y239900D02*X126500D01*
X125700D02*X125000Y240600D01*
Y241200D02*Y240600D01*
Y241200D02*X125700Y241900D01*
X126500D01*
X127000Y241400D02*X126500Y241900D01*
X127000Y241400D02*Y240400D01*
X124300Y239900D02*X125000Y240600D01*
X123500Y239900D02*X124300D01*
X123500D02*X123000Y240400D01*
Y241400D02*Y240400D01*
Y241400D02*X123500Y241900D01*
X124300D01*
X125000Y241200D02*X124300Y241900D01*
X145000Y267000D02*Y264000D01*
Y267000D02*X145500Y267500D01*
X146500D01*
X147000Y267000D01*
Y264500D01*
X146000Y263500D02*X147000Y264500D01*
X145500Y263500D02*X146000D01*
X145000Y264000D02*X145500Y263500D01*
X146000Y265000D02*X147000Y263500D01*
X148200Y266700D02*X149000Y267500D01*
Y263500D01*
X148200D02*X149700D01*
X150900Y264000D02*X151400Y263500D01*
X150900Y264800D02*Y264000D01*
Y264800D02*X151600Y265500D01*
X152200D01*
X152900Y264800D01*
Y264000D01*
X152400Y263500D02*X152900Y264000D01*
X151400Y263500D02*X152400D01*
X150900Y266200D02*X151600Y265500D01*
X150900Y267000D02*Y266200D01*
Y267000D02*X151400Y267500D01*
X152400D01*
X152900Y267000D01*
Y266200D01*
X152200Y265500D02*X152900Y266200D01*
X185000Y267000D02*Y264000D01*
Y267000D02*X185500Y267500D01*
X186500D01*
X187000Y267000D01*
Y264500D01*
X186000Y263500D02*X187000Y264500D01*
X185500Y263500D02*X186000D01*
X185000Y264000D02*X185500Y263500D01*
X186000Y265000D02*X187000Y263500D01*
X188200Y266700D02*X189000Y267500D01*
Y263500D01*
X188200D02*X189700D01*
X191400D02*X193400Y267500D01*
X190900D02*X193400D01*
X225000Y267000D02*Y264000D01*
Y267000D02*X225500Y267500D01*
X226500D01*
X227000Y267000D01*
Y264500D01*
X226000Y263500D02*X227000Y264500D01*
X225500Y263500D02*X226000D01*
X225000Y264000D02*X225500Y263500D01*
X226000Y265000D02*X227000Y263500D01*
X228200Y266700D02*X229000Y267500D01*
Y263500D01*
X228200D02*X229700D01*
X232400Y267500D02*X232900Y267000D01*
X231400Y267500D02*X232400D01*
X230900Y267000D02*X231400Y267500D01*
X230900Y267000D02*Y264000D01*
X231400Y263500D01*
X232400Y265700D02*X232900Y265200D01*
X230900Y265700D02*X232400D01*
X231400Y263500D02*X232400D01*
X232900Y264000D01*
Y265200D02*Y264000D01*
X162500Y235500D02*Y233500D01*
Y235500D02*X163000Y236000D01*
X164000D01*
X164500Y235500D02*X164000Y236000D01*
X164500Y235500D02*Y234000D01*
X162500D02*X166500D01*
X164500Y234800D02*X166500Y236000D01*
X163300Y237200D02*X162500Y238000D01*
X166500D01*
Y238700D02*Y237200D01*
Y240400D02*X162500Y242400D01*
Y239900D01*
X203000Y235500D02*Y233500D01*
Y235500D02*X203500Y236000D01*
X204500D01*
X205000Y235500D02*X204500Y236000D01*
X205000Y235500D02*Y234000D01*
X203000D02*X207000D01*
X205000Y234800D02*X207000Y236000D01*
X203800Y237200D02*X203000Y238000D01*
X207000D01*
Y238700D02*Y237200D01*
X203000Y241400D02*X203500Y241900D01*
X203000Y241400D02*Y240400D01*
X203500Y239900D02*X203000Y240400D01*
X203500Y239900D02*X206500D01*
X207000Y240400D01*
X204800Y241400D02*X205300Y241900D01*
X204800Y241400D02*Y239900D01*
X207000Y241400D02*Y240400D01*
Y241400D02*X206500Y241900D01*
X205300D02*X206500D01*
X114000Y22000D02*X113500Y21500D01*
X114000Y23500D02*Y22000D01*
X113500Y24000D02*X114000Y23500D01*
X112500Y24000D02*X113500D01*
X112500D02*X112000Y23500D01*
Y22000D01*
X111500Y21500D01*
X110500D02*X111500D01*
X110000Y22000D02*X110500Y21500D01*
X110000Y23500D02*Y22000D01*
X110500Y24000D02*X110000Y23500D01*
X113200Y20300D02*X114000Y19500D01*
X110000D02*X114000D01*
X110000Y20300D02*Y18800D01*
X158500Y54500D02*X161000Y58500D01*
X158500D02*X161000Y54500D01*
X162200Y57700D02*X163000Y58500D01*
Y54500D01*
X162200D02*X163700D01*
X150550Y25500D02*X152500D01*
X149500Y26550D02*X150550Y25500D01*
X149500Y30450D02*Y26550D01*
Y30450D02*X150550Y31500D01*
X152500D01*
X154300Y27750D02*X157300Y31500D01*
X154300Y27750D02*X158050D01*
X157300Y31500D02*Y25500D01*
X194500Y29500D02*X196450D01*
X197500Y28450D02*X196450Y29500D01*
X197500Y28450D02*Y24550D01*
X196450Y23500D01*
X194500D02*X196450D01*
X189700D02*X192700D01*
Y26500D02*Y23500D01*
Y26500D02*X191950Y25750D01*
X190450D02*X191950D01*
X190450D02*X189700Y26500D01*
Y28750D02*Y26500D01*
X190450Y29500D02*X189700Y28750D01*
X190450Y29500D02*X191950D01*
X192700Y28750D02*X191950Y29500D01*
X100000Y74000D02*Y70500D01*
X100500Y70000D01*
X101500D01*
X102000Y70500D01*
Y74000D02*Y70500D01*
X103200Y73200D02*X104000Y74000D01*
Y70000D01*
X103200D02*X104700D01*
X72500Y69500D02*Y67550D01*
X71450Y66500D02*X72500Y67550D01*
X67550Y66500D02*X71450D01*
X67550D02*X66500Y67550D01*
Y69500D02*Y67550D01*
Y73550D02*X67250Y74300D01*
X66500Y73550D02*Y72050D01*
X67250Y71300D02*X66500Y72050D01*
X67250Y71300D02*X71750D01*
X72500Y72050D01*
X69200Y73550D02*X69950Y74300D01*
X69200Y73550D02*Y71300D01*
X72500Y73550D02*Y72050D01*
Y73550D02*X71750Y74300D01*
X69950D02*X71750D01*
X87500Y41500D02*X89500D01*
X87500D02*X87000Y42000D01*
Y43000D02*Y42000D01*
X87500Y43500D02*X87000Y43000D01*
X87500Y43500D02*X89000D01*
Y45500D02*Y41500D01*
X88200Y43500D02*X87000Y45500D01*
X85800Y42000D02*X85300Y41500D01*
X83800D02*X85300D01*
X83800D02*X83300Y42000D01*
Y43000D02*Y42000D01*
X85800Y45500D02*X83300Y43000D01*
Y45500D02*X85800D01*
X82100Y42000D02*X81600Y41500D01*
X80100D02*X81600D01*
X80100D02*X79600Y42000D01*
Y43000D02*Y42000D01*
X82100Y45500D02*X79600Y43000D01*
Y45500D02*X82100D01*
X197000Y12500D02*X198300D01*
X199000Y11800D02*X198300Y12500D01*
X199000Y11800D02*Y9200D01*
X198300Y8500D01*
X197000D02*X198300D01*
X195800Y12000D02*Y9000D01*
X195300Y8500D01*
X194300D02*X195300D01*
X194300D02*X193800Y9000D01*
Y12000D02*Y9000D01*
X194300Y12500D02*X193800Y12000D01*
X194300Y12500D02*X195300D01*
X195800Y12000D02*X195300Y12500D01*
X192600D02*Y8500D01*
X190100Y12500D01*
Y8500D01*
X188900Y12500D02*Y8500D01*
X186400Y12500D01*
Y8500D01*
X185200Y9300D02*X184400Y8500D01*
Y12500D02*Y8500D01*
X183700Y12500D02*X185200D01*
X182500Y11000D02*X180500Y8500D01*
X180000Y11000D02*X182500D01*
X180500Y12500D02*Y8500D01*
X3500Y46500D02*Y45700D01*
Y46500D02*X7000D01*
X7500Y46000D02*X7000Y46500D01*
X7500Y46000D02*Y45500D01*
X7000Y45000D02*X7500Y45500D01*
X6500Y45000D02*X7000D01*
X6000Y47700D02*X3500Y49700D01*
X6000Y50200D02*Y47700D01*
X3500Y49700D02*X7500D01*
X28500Y46500D02*Y45700D01*
Y46500D02*X32000D01*
X32500Y46000D02*X32000Y46500D01*
X32500Y46000D02*Y45500D01*
X32000Y45000D02*X32500Y45500D01*
X31500Y45000D02*X32000D01*
X29000Y47700D02*X28500Y48200D01*
Y49200D02*Y48200D01*
Y49200D02*X29000Y49700D01*
X32500Y49200D02*X32000Y49700D01*
X32500Y49200D02*Y48200D01*
X32000Y47700D02*X32500Y48200D01*
X30300Y49200D02*Y48200D01*
X29000Y49700D02*X29800D01*
X30800D02*X32000D01*
X30800D02*X30300Y49200D01*
X29800Y49700D02*X30300Y49200D01*
X57500Y116500D02*X59500D01*
X60000Y116000D01*
Y115000D01*
X59500Y114500D02*X60000Y115000D01*
X58000Y114500D02*X59500D01*
X58000Y116500D02*Y112500D01*
X58800Y114500D02*X60000Y112500D01*
X61200Y116500D02*Y112500D01*
Y116500D02*X63200D01*
X61200Y114700D02*X62700D01*
X64400Y115700D02*X65200Y116500D01*
Y112500D01*
X64400D02*X65900D01*
X222000Y49950D02*Y48000D01*
X223050Y51000D02*X222000Y49950D01*
X223050Y51000D02*X226950D01*
X228000Y49950D01*
Y48000D01*
X227250Y46200D02*X228000Y45450D01*
Y43950D01*
X227250Y43200D01*
X222000Y43950D02*X222750Y43200D01*
X222000Y45450D02*Y43950D01*
X222750Y46200D02*X222000Y45450D01*
X225300D02*Y43950D01*
X226050Y43200D02*X227250D01*
X222750D02*X224550D01*
X225300Y43950D01*
X226050Y43200D02*X225300Y43950D01*
X280000Y13000D02*Y9500D01*
Y13000D02*X279500Y13500D01*
X278500D02*X279500D01*
X278500D02*X278000Y13000D01*
Y9500D01*
X276800Y10000D02*X276300Y9500D01*
X274800D02*X276300D01*
X274800D02*X274300Y10000D01*
Y11000D02*Y10000D01*
X276800Y13500D02*X274300Y11000D01*
Y13500D02*X276800D01*
X370000Y107000D02*Y105700D01*
X369300Y105000D02*X370000Y105700D01*
X366700Y105000D02*X369300D01*
X366700D02*X366000Y105700D01*
Y107000D02*Y105700D01*
X366500Y108200D02*X369500D01*
X366500D02*X366000Y108700D01*
Y109700D02*Y108700D01*
Y109700D02*X366500Y110200D01*
X369500D01*
X370000Y109700D02*X369500Y110200D01*
X370000Y109700D02*Y108700D01*
X369500Y108200D02*X370000Y108700D01*
X366000Y111400D02*X370000D01*
X366000D02*X370000Y113900D01*
X366000D02*X370000D01*
X366000Y115100D02*X370000D01*
X366000D02*X370000Y117600D01*
X366000D02*X370000D01*
X366800Y118800D02*X366000Y119600D01*
X370000D01*
Y120300D02*Y118800D01*
X366000Y123500D02*Y121500D01*
X368000D01*
X367500Y122000D01*
Y123000D02*Y122000D01*
Y123000D02*X368000Y123500D01*
X369500D01*
X370000Y123000D02*X369500Y123500D01*
X370000Y123000D02*Y122000D01*
X369500Y121500D02*X370000Y122000D01*
X91500Y120000D02*Y118000D01*
X91000Y117500D01*
X90000D02*X91000D01*
X89500Y118000D02*X90000Y117500D01*
X89500Y119500D02*Y118000D01*
X87500Y119500D02*X91500D01*
X89500Y118700D02*X87500Y117500D01*
X91000Y116300D02*X91500Y115800D01*
Y114300D01*
X91000Y113800D01*
X90000D02*X91000D01*
X87500Y116300D02*X90000Y113800D01*
X87500Y116300D02*Y113800D01*
X90700Y112600D02*X91500Y111800D01*
X87500D02*X91500D01*
X87500Y112600D02*Y111100D01*
X352500Y31800D02*Y30500D01*
X353200Y32500D02*X352500Y31800D01*
X353200Y32500D02*X355800D01*
X356500Y31800D01*
Y30500D01*
X353000Y29300D02*X356000D01*
X356500Y28800D01*
Y27800D01*
X356000Y27300D01*
X353000D02*X356000D01*
X352500Y27800D02*X353000Y27300D01*
X352500Y28800D02*Y27800D01*
X353000Y29300D02*X352500Y28800D01*
Y26100D02*X356500D01*
X352500Y23600D01*
X356500D01*
X352500Y22400D02*X356500D01*
X352500Y19900D01*
X356500D01*
X355700Y18700D02*X356500Y17900D01*
X352500D02*X356500D01*
X352500Y18700D02*Y17200D01*
X356000Y16000D02*X356500Y15500D01*
Y14500D01*
X356000Y14000D01*
X352500Y14500D02*X353000Y14000D01*
X352500Y15500D02*Y14500D01*
X353000Y16000D02*X352500Y15500D01*
X354700D02*Y14500D01*
X355200Y14000D02*X356000D01*
X353000D02*X354200D01*
X354700Y14500D01*
X355200Y14000D02*X354700Y14500D01*
X293200Y57500D02*X294500D01*
X292500Y58200D02*X293200Y57500D01*
X292500Y60800D02*Y58200D01*
Y60800D02*X293200Y61500D01*
X294500D01*
X296200Y57500D02*X297700Y59500D01*
Y61000D02*Y59500D01*
X297200Y61500D02*X297700Y61000D01*
X296200Y61500D02*X297200D01*
X295700Y61000D02*X296200Y61500D01*
X295700Y61000D02*Y60000D01*
X296200Y59500D01*
X297700D01*
X311000Y55000D02*X312950D01*
X314000Y53950D02*X312950Y55000D01*
X314000Y53950D02*Y50050D01*
X312950Y49000D01*
X311000D02*X312950D01*
X309200Y49750D02*X308450Y49000D01*
X306200D02*X308450D01*
X306200D02*X305450Y49750D01*
Y51250D02*Y49750D01*
X309200Y55000D02*X305450Y51250D01*
Y55000D02*X309200D01*
X305000Y36800D02*Y35500D01*
X305700Y37500D02*X305000Y36800D01*
X305700Y37500D02*X308300D01*
X309000Y36800D01*
Y35500D01*
X308200Y34300D02*X309000Y33500D01*
X305000D02*X309000D01*
X305000Y34300D02*Y32800D01*
X265500Y84000D02*Y80500D01*
X266000Y80000D01*
X267000D01*
X267500Y80500D01*
Y84000D02*Y80500D01*
X268700Y83500D02*X269200Y84000D01*
X270200D01*
X270700Y83500D01*
X270200Y80000D02*X270700Y80500D01*
X269200Y80000D02*X270200D01*
X268700Y80500D02*X269200Y80000D01*
Y82200D02*X270200D01*
X270700Y83500D02*Y82700D01*
Y81700D02*Y80500D01*
Y81700D02*X270200Y82200D01*
X270700Y82700D02*X270200Y82200D01*
X265700Y57500D02*X267000D01*
X265000Y58200D02*X265700Y57500D01*
X265000Y60800D02*Y58200D01*
Y60800D02*X265700Y61500D01*
X267000D01*
X268700Y57500D02*X270700Y61500D01*
X268200D02*X270700D01*
X383000Y249300D02*Y248000D01*
X383700Y250000D02*X383000Y249300D01*
X383700Y250000D02*X386300D01*
X387000Y249300D01*
Y248000D01*
X383500Y246800D02*X386500D01*
X387000Y246300D01*
Y245300D01*
X386500Y244800D01*
X383500D02*X386500D01*
X383000Y245300D02*X383500Y244800D01*
X383000Y246300D02*Y245300D01*
X383500Y246800D02*X383000Y246300D01*
Y243600D02*X387000D01*
X383000Y241100D01*
X387000D01*
X383000Y239900D02*X387000D01*
X383000Y237400D01*
X387000D01*
X386200Y236200D02*X387000Y235400D01*
X383000D02*X387000D01*
X383000Y236200D02*Y234700D01*
Y233000D02*X387000Y231000D01*
Y233500D02*Y231000D01*
X383000Y209300D02*Y208000D01*
X383700Y210000D02*X383000Y209300D01*
X383700Y210000D02*X386300D01*
X387000Y209300D01*
Y208000D01*
X383500Y206800D02*X386500D01*
X387000Y206300D01*
Y205300D01*
X386500Y204800D01*
X383500D02*X386500D01*
X383000Y205300D02*X383500Y204800D01*
X383000Y206300D02*Y205300D01*
X383500Y206800D02*X383000Y206300D01*
Y203600D02*X387000D01*
X383000Y201100D01*
X387000D01*
X383000Y199900D02*X387000D01*
X383000Y197400D01*
X387000D01*
X386500Y196200D02*X387000Y195700D01*
Y194200D01*
X386500Y193700D01*
X385500D02*X386500D01*
X383000Y196200D02*X385500Y193700D01*
X383000Y196200D02*Y193700D01*
X330700Y152500D02*X332000D01*
X330000Y153200D02*X330700Y152500D01*
X330000Y155800D02*Y153200D01*
Y155800D02*X330700Y156500D01*
X332000D01*
X333200Y155700D02*X334000Y156500D01*
Y152500D01*
X333200D02*X334700D01*
X335900Y153000D02*X336400Y152500D01*
X335900Y156000D02*Y153000D01*
Y156000D02*X336400Y156500D01*
X337400D01*
X337900Y156000D01*
Y153000D01*
X337400Y152500D02*X337900Y153000D01*
X336400Y152500D02*X337400D01*
X335900Y153500D02*X337900Y155500D01*
X350500Y207500D02*X353500D01*
X354000Y207000D01*
Y206000D01*
X353500Y205500D01*
X351000D02*X353500D01*
X350000Y206500D02*X351000Y205500D01*
X350000Y207000D02*Y206500D01*
X350500Y207500D02*X350000Y207000D01*
X351500Y206500D02*X350000Y205500D01*
X353500Y204300D02*X354000Y203800D01*
Y202300D01*
X353500Y201800D01*
X352500D02*X353500D01*
X350000Y204300D02*X352500Y201800D01*
X350000Y204300D02*Y201800D01*
X345000Y267000D02*Y264000D01*
Y267000D02*X345500Y267500D01*
X346500D01*
X347000Y267000D01*
Y264500D01*
X346000Y263500D02*X347000Y264500D01*
X345500Y263500D02*X346000D01*
X345000Y264000D02*X345500Y263500D01*
X346000Y265000D02*X347000Y263500D01*
X348200Y266700D02*X349000Y267500D01*
Y263500D01*
X348200D02*X349700D01*
X350900Y267000D02*X351400Y267500D01*
X352400D01*
X352900Y267000D01*
X352400Y263500D02*X352900Y264000D01*
X351400Y263500D02*X352400D01*
X350900Y264000D02*X351400Y263500D01*
Y265700D02*X352400D01*
X352900Y267000D02*Y266200D01*
Y265200D02*Y264000D01*
Y265200D02*X352400Y265700D01*
X352900Y266200D02*X352400Y265700D01*
X305000Y267000D02*Y264000D01*
Y267000D02*X305500Y267500D01*
X306500D01*
X307000Y267000D01*
Y264500D01*
X306000Y263500D02*X307000Y264500D01*
X305500Y263500D02*X306000D01*
X305000Y264000D02*X305500Y263500D01*
X306000Y265000D02*X307000Y263500D01*
X308200Y266700D02*X309000Y267500D01*
Y263500D01*
X308200D02*X309700D01*
X310900Y265000D02*X312900Y267500D01*
X310900Y265000D02*X313400D01*
X312900Y267500D02*Y263500D01*
X282500Y236000D02*Y234000D01*
Y236000D02*X283000Y236500D01*
X284000D01*
X284500Y236000D02*X284000Y236500D01*
X284500Y236000D02*Y234500D01*
X282500D02*X286500D01*
X284500Y235300D02*X286500Y236500D01*
X283300Y237700D02*X282500Y238500D01*
X286500D01*
Y239200D02*Y237700D01*
X285000Y240400D02*X282500Y242400D01*
X285000Y242900D02*Y240400D01*
X282500Y242400D02*X286500D01*
X323000Y235000D02*Y233000D01*
Y235000D02*X323500Y235500D01*
X324500D01*
X325000Y235000D02*X324500Y235500D01*
X325000Y235000D02*Y233500D01*
X323000D02*X327000D01*
X325000Y234300D02*X327000Y235500D01*
X323800Y236700D02*X323000Y237500D01*
X327000D01*
Y238200D02*Y236700D01*
X323500Y239400D02*X323000Y239900D01*
Y240900D02*Y239900D01*
Y240900D02*X323500Y241400D01*
X327000Y240900D02*X326500Y241400D01*
X327000Y240900D02*Y239900D01*
X326500Y239400D02*X327000Y239900D01*
X324800Y240900D02*Y239900D01*
X323500Y241400D02*X324300D01*
X325300D02*X326500D01*
X325300D02*X324800Y240900D01*
X324300Y241400D02*X324800Y240900D01*
X253000Y182500D02*X256000D01*
X256500Y182000D01*
Y181000D01*
X256000Y180500D01*
X253500D02*X256000D01*
X252500Y181500D02*X253500Y180500D01*
X252500Y182000D02*Y181500D01*
X253000Y182500D02*X252500Y182000D01*
X254000Y181500D02*X252500Y180500D01*
X255700Y179300D02*X256500Y178500D01*
X252500D02*X256500D01*
X252500Y179300D02*Y177800D01*
X256000Y176600D02*X256500Y176100D01*
Y174600D01*
X256000Y174100D01*
X255000D02*X256000D01*
X252500Y176600D02*X255000Y174100D01*
X252500Y176600D02*Y174100D01*
X279000Y197500D02*Y195500D01*
X278500Y195000D01*
X277500D02*X278500D01*
X277000Y195500D02*X277500Y195000D01*
X277000Y197000D02*Y195500D01*
X275000Y197000D02*X279000D01*
X277000Y196200D02*X275000Y195000D01*
X278500Y193800D02*X279000Y193300D01*
Y191800D01*
X278500Y191300D01*
X277500D02*X278500D01*
X275000Y193800D02*X277500Y191300D01*
X275000Y193800D02*Y191300D01*
X251000Y197000D02*Y195000D01*
X250500Y194500D01*
X249500D02*X250500D01*
X249000Y195000D02*X249500Y194500D01*
X249000Y196500D02*Y195000D01*
X247000Y196500D02*X251000D01*
X249000Y195700D02*X247000Y194500D01*
X250200Y193300D02*X251000Y192500D01*
X247000D02*X251000D01*
X247000Y193300D02*Y191800D01*
X250500Y190600D02*X251000Y190100D01*
Y188600D01*
X250500Y188100D01*
X249500D02*X250500D01*
X247000Y190600D02*X249500Y188100D01*
X247000Y190600D02*Y188100D01*
X242500Y235500D02*Y233500D01*
Y235500D02*X243000Y236000D01*
X244000D01*
X244500Y235500D02*X244000Y236000D01*
X244500Y235500D02*Y234000D01*
X242500D02*X246500D01*
X244500Y234800D02*X246500Y236000D01*
X243300Y237200D02*X242500Y238000D01*
X246500D01*
Y238700D02*Y237200D01*
X242500Y241900D02*Y239900D01*
X244500D01*
X244000Y240400D01*
Y241400D02*Y240400D01*
Y241400D02*X244500Y241900D01*
X246000D01*
X246500Y241400D02*X246000Y241900D01*
X246500Y241400D02*Y240400D01*
X246000Y239900D02*X246500Y240400D01*
X290700Y152500D02*X292000D01*
X290000Y153200D02*X290700Y152500D01*
X290000Y155800D02*Y153200D01*
Y155800D02*X290700Y156500D01*
X292000D01*
X293200Y153000D02*X293700Y152500D01*
X293200Y153800D02*Y153000D01*
Y153800D02*X293900Y154500D01*
X294500D01*
X295200Y153800D01*
Y153000D01*
X294700Y152500D02*X295200Y153000D01*
X293700Y152500D02*X294700D01*
X293200Y155200D02*X293900Y154500D01*
X293200Y156000D02*Y155200D01*
Y156000D02*X293700Y156500D01*
X294700D01*
X295200Y156000D01*
Y155200D01*
X294500Y154500D02*X295200Y155200D01*
X265000Y267000D02*Y264000D01*
Y267000D02*X265500Y267500D01*
X266500D01*
X267000Y267000D01*
Y264500D01*
X266000Y263500D02*X267000Y264500D01*
X265500Y263500D02*X266000D01*
X265000Y264000D02*X265500Y263500D01*
X266000Y265000D02*X267000Y263500D01*
X268200Y266700D02*X269000Y267500D01*
Y263500D01*
X268200D02*X269700D01*
X270900Y267500D02*X272900D01*
X270900D02*Y265500D01*
X271400Y266000D01*
X272400D01*
X272900Y265500D01*
Y264000D01*
X272400Y263500D02*X272900Y264000D01*
X271400Y263500D02*X272400D01*
X270900Y264000D02*X271400Y263500D01*
X90000Y302500D02*X92000D01*
X92500Y302000D01*
Y301000D01*
X92000Y300500D02*X92500Y301000D01*
X90500Y300500D02*X92000D01*
X90500Y302500D02*Y298500D01*
X91300Y300500D02*X92500Y298500D01*
X94200D02*X95700Y300500D01*
Y302000D02*Y300500D01*
X95200Y302500D02*X95700Y302000D01*
X94200Y302500D02*X95200D01*
X93700Y302000D02*X94200Y302500D01*
X93700Y302000D02*Y301000D01*
X94200Y300500D01*
X95700D01*
X250000Y302500D02*X252000D01*
X252500Y302000D01*
Y301000D01*
X252000Y300500D02*X252500Y301000D01*
X250500Y300500D02*X252000D01*
X250500Y302500D02*Y298500D01*
X251300Y300500D02*X252500Y298500D01*
X253700Y302500D02*X255700D01*
X253700D02*Y300500D01*
X254200Y301000D01*
X255200D01*
X255700Y300500D01*
Y299000D01*
X255200Y298500D02*X255700Y299000D01*
X254200Y298500D02*X255200D01*
X253700Y299000D02*X254200Y298500D01*
X170000Y302500D02*X172000D01*
X172500Y302000D01*
Y301000D01*
X172000Y300500D02*X172500Y301000D01*
X170500Y300500D02*X172000D01*
X170500Y302500D02*Y298500D01*
X171300Y300500D02*X172500Y298500D01*
X174200D02*X176200Y302500D01*
X173700D02*X176200D01*
X330000D02*X332000D01*
X332500Y302000D01*
Y301000D01*
X332000Y300500D02*X332500Y301000D01*
X330500Y300500D02*X332000D01*
X330500Y302500D02*Y298500D01*
X331300Y300500D02*X332500Y298500D01*
X333700Y302000D02*X334200Y302500D01*
X335200D01*
X335700Y302000D01*
X335200Y298500D02*X335700Y299000D01*
X334200Y298500D02*X335200D01*
X333700Y299000D02*X334200Y298500D01*
Y300700D02*X335200D01*
X335700Y302000D02*Y301200D01*
Y300200D02*Y299000D01*
Y300200D02*X335200Y300700D01*
X335700Y301200D02*X335200Y300700D01*
X293000Y288500D02*X295000D01*
X295500Y288000D01*
Y287000D01*
X295000Y286500D02*X295500Y287000D01*
X293500Y286500D02*X295000D01*
X293500Y288500D02*Y284500D01*
X294300Y286500D02*X295500Y284500D01*
X296700Y286000D02*X298700Y288500D01*
X296700Y286000D02*X299200D01*
X298700Y288500D02*Y284500D01*
X212500Y289500D02*X214500D01*
X215000Y289000D01*
Y288000D01*
X214500Y287500D02*X215000Y288000D01*
X213000Y287500D02*X214500D01*
X213000Y289500D02*Y285500D01*
X213800Y287500D02*X215000Y285500D01*
X217700Y289500D02*X218200Y289000D01*
X216700Y289500D02*X217700D01*
X216200Y289000D02*X216700Y289500D01*
X216200Y289000D02*Y286000D01*
X216700Y285500D01*
X217700Y287700D02*X218200Y287200D01*
X216200Y287700D02*X217700D01*
X216700Y285500D02*X217700D01*
X218200Y286000D01*
Y287200D02*Y286000D01*
X133000Y291000D02*X135000D01*
X135500Y290500D01*
Y289500D01*
X135000Y289000D02*X135500Y289500D01*
X133500Y289000D02*X135000D01*
X133500Y291000D02*Y287000D01*
X134300Y289000D02*X135500Y287000D01*
X136700Y287500D02*X137200Y287000D01*
X136700Y288300D02*Y287500D01*
Y288300D02*X137400Y289000D01*
X138000D01*
X138700Y288300D01*
Y287500D01*
X138200Y287000D02*X138700Y287500D01*
X137200Y287000D02*X138200D01*
X136700Y289700D02*X137400Y289000D01*
X136700Y290500D02*Y289700D01*
Y290500D02*X137200Y291000D01*
X138200D01*
X138700Y290500D01*
Y289700D01*
X138000Y289000D02*X138700Y289700D01*
X52000Y290500D02*X54000D01*
X54500Y290000D01*
Y289000D01*
X54000Y288500D02*X54500Y289000D01*
X52500Y288500D02*X54000D01*
X52500Y290500D02*Y286500D01*
X53300Y288500D02*X54500Y286500D01*
X55700Y289700D02*X56500Y290500D01*
Y286500D01*
X55700D02*X57200D01*
X58400Y287000D02*X58900Y286500D01*
X58400Y290000D02*Y287000D01*
Y290000D02*X58900Y290500D01*
X59900D01*
X60400Y290000D01*
Y287000D01*
X59900Y286500D02*X60400Y287000D01*
X58900Y286500D02*X59900D01*
X58400Y287500D02*X60400Y289500D01*
X332500Y366000D02*Y363000D01*
Y366000D02*X333000Y366500D01*
X334000D01*
X334500Y366000D01*
Y363500D01*
X333500Y362500D02*X334500Y363500D01*
X333000Y362500D02*X333500D01*
X332500Y363000D02*X333000Y362500D01*
X333500Y364000D02*X334500Y362500D01*
X335700Y366000D02*X336200Y366500D01*
X337200D01*
X337700Y366000D01*
X337200Y362500D02*X337700Y363000D01*
X336200Y362500D02*X337200D01*
X335700Y363000D02*X336200Y362500D01*
Y364700D02*X337200D01*
X337700Y366000D02*Y365200D01*
Y364200D02*Y363000D01*
Y364200D02*X337200Y364700D01*
X337700Y365200D02*X337200Y364700D01*
X290000Y366000D02*Y363000D01*
Y366000D02*X290500Y366500D01*
X291500D01*
X292000Y366000D01*
Y363500D01*
X291000Y362500D02*X292000Y363500D01*
X290500Y362500D02*X291000D01*
X290000Y363000D02*X290500Y362500D01*
X291000Y364000D02*X292000Y362500D01*
X293200Y364000D02*X295200Y366500D01*
X293200Y364000D02*X295700D01*
X295200Y366500D02*Y362500D01*
X250000Y366000D02*Y363000D01*
Y366000D02*X250500Y366500D01*
X251500D01*
X252000Y366000D01*
Y363500D01*
X251000Y362500D02*X252000Y363500D01*
X250500Y362500D02*X251000D01*
X250000Y363000D02*X250500Y362500D01*
X251000Y364000D02*X252000Y362500D01*
X253200Y366500D02*X255200D01*
X253200D02*Y364500D01*
X253700Y365000D01*
X254700D01*
X255200Y364500D01*
Y363000D01*
X254700Y362500D02*X255200Y363000D01*
X253700Y362500D02*X254700D01*
X253200Y363000D02*X253700Y362500D01*
X210000Y366000D02*Y363000D01*
Y366000D02*X210500Y366500D01*
X211500D01*
X212000Y366000D01*
Y363500D01*
X211000Y362500D02*X212000Y363500D01*
X210500Y362500D02*X211000D01*
X210000Y363000D02*X210500Y362500D01*
X211000Y364000D02*X212000Y362500D01*
X214700Y366500D02*X215200Y366000D01*
X213700Y366500D02*X214700D01*
X213200Y366000D02*X213700Y366500D01*
X213200Y366000D02*Y363000D01*
X213700Y362500D01*
X214700Y364700D02*X215200Y364200D01*
X213200Y364700D02*X214700D01*
X213700Y362500D02*X214700D01*
X215200Y363000D01*
Y364200D02*Y363000D01*
X132500Y366000D02*Y363000D01*
Y366000D02*X133000Y366500D01*
X134000D01*
X134500Y366000D01*
Y363500D01*
X133500Y362500D02*X134500Y363500D01*
X133000Y362500D02*X133500D01*
X132500Y363000D02*X133000Y362500D01*
X133500Y364000D02*X134500Y362500D01*
X135700Y363000D02*X136200Y362500D01*
X135700Y363800D02*Y363000D01*
Y363800D02*X136400Y364500D01*
X137000D01*
X137700Y363800D01*
Y363000D01*
X137200Y362500D02*X137700Y363000D01*
X136200Y362500D02*X137200D01*
X135700Y365200D02*X136400Y364500D01*
X135700Y366000D02*Y365200D01*
Y366000D02*X136200Y366500D01*
X137200D01*
X137700Y366000D01*
Y365200D01*
X137000Y364500D02*X137700Y365200D01*
X172500Y366000D02*Y363000D01*
Y366000D02*X173000Y366500D01*
X174000D01*
X174500Y366000D01*
Y363500D01*
X173500Y362500D02*X174500Y363500D01*
X173000Y362500D02*X173500D01*
X172500Y363000D02*X173000Y362500D01*
X173500Y364000D02*X174500Y362500D01*
X176200D02*X178200Y366500D01*
X175700D02*X178200D01*
X45700Y383500D02*X47000D01*
X45000Y384200D02*X45700Y383500D01*
X45000Y386800D02*Y384200D01*
Y386800D02*X45700Y387500D01*
X47000D01*
X48200Y387000D02*Y384000D01*
Y387000D02*X48700Y387500D01*
X49700D01*
X50200Y387000D01*
Y384000D01*
X49700Y383500D02*X50200Y384000D01*
X48700Y383500D02*X49700D01*
X48200Y384000D02*X48700Y383500D01*
X51400Y387500D02*Y383500D01*
Y387500D02*X53900Y383500D01*
Y387500D02*Y383500D01*
X55100Y387500D02*Y383500D01*
Y387500D02*X57600Y383500D01*
Y387500D02*Y383500D01*
X58800Y386700D02*X59600Y387500D01*
Y383500D01*
X58800D02*X60300D01*
X61500Y384000D02*X62000Y383500D01*
X61500Y387000D02*Y384000D01*
Y387000D02*X62000Y387500D01*
X63000D01*
X63500Y387000D01*
Y384000D01*
X63000Y383500D02*X63500Y384000D01*
X62000Y383500D02*X63000D01*
X61500Y384500D02*X63500Y386500D01*
X85700Y383500D02*X87000D01*
X85000Y384200D02*X85700Y383500D01*
X85000Y386800D02*Y384200D01*
Y386800D02*X85700Y387500D01*
X87000D01*
X88200Y387000D02*Y384000D01*
Y387000D02*X88700Y387500D01*
X89700D01*
X90200Y387000D01*
Y384000D01*
X89700Y383500D02*X90200Y384000D01*
X88700Y383500D02*X89700D01*
X88200Y384000D02*X88700Y383500D01*
X91400Y387500D02*Y383500D01*
Y387500D02*X93900Y383500D01*
Y387500D02*Y383500D01*
X95100Y387500D02*Y383500D01*
Y387500D02*X97600Y383500D01*
Y387500D02*Y383500D01*
X99300D02*X100800Y385500D01*
Y387000D02*Y385500D01*
X100300Y387500D02*X100800Y387000D01*
X99300Y387500D02*X100300D01*
X98800Y387000D02*X99300Y387500D01*
X98800Y387000D02*Y386000D01*
X99300Y385500D01*
X100800D01*
X92500Y366000D02*Y363000D01*
Y366000D02*X93000Y366500D01*
X94000D01*
X94500Y366000D01*
Y363500D01*
X93500Y362500D02*X94500Y363500D01*
X93000Y362500D02*X93500D01*
X92500Y363000D02*X93000Y362500D01*
X93500Y364000D02*X94500Y362500D01*
X96200D02*X97700Y364500D01*
Y366000D02*Y364500D01*
X97200Y366500D02*X97700Y366000D01*
X96200Y366500D02*X97200D01*
X95700Y366000D02*X96200Y366500D01*
X95700Y366000D02*Y365000D01*
X96200Y364500D01*
X97700D01*
X50000Y366000D02*Y363000D01*
Y366000D02*X50500Y366500D01*
X51500D01*
X52000Y366000D01*
Y363500D01*
X51000Y362500D02*X52000Y363500D01*
X50500Y362500D02*X51000D01*
X50000Y363000D02*X50500Y362500D01*
X51000Y364000D02*X52000Y362500D01*
X53200Y365700D02*X54000Y366500D01*
Y362500D01*
X53200D02*X54700D01*
X55900Y363000D02*X56400Y362500D01*
X55900Y366000D02*Y363000D01*
Y366000D02*X56400Y366500D01*
X57400D01*
X57900Y366000D01*
Y363000D01*
X57400Y362500D02*X57900Y363000D01*
X56400Y362500D02*X57400D01*
X55900Y363500D02*X57900Y365500D01*
X125700Y383500D02*X127000D01*
X125000Y384200D02*X125700Y383500D01*
X125000Y386800D02*Y384200D01*
Y386800D02*X125700Y387500D01*
X127000D01*
X128200Y387000D02*Y384000D01*
Y387000D02*X128700Y387500D01*
X129700D01*
X130200Y387000D01*
Y384000D01*
X129700Y383500D02*X130200Y384000D01*
X128700Y383500D02*X129700D01*
X128200Y384000D02*X128700Y383500D01*
X131400Y387500D02*Y383500D01*
Y387500D02*X133900Y383500D01*
Y387500D02*Y383500D01*
X135100Y387500D02*Y383500D01*
Y387500D02*X137600Y383500D01*
Y387500D02*Y383500D01*
X138800Y384000D02*X139300Y383500D01*
X138800Y384800D02*Y384000D01*
Y384800D02*X139500Y385500D01*
X140100D01*
X140800Y384800D01*
Y384000D01*
X140300Y383500D02*X140800Y384000D01*
X139300Y383500D02*X140300D01*
X138800Y386200D02*X139500Y385500D01*
X138800Y387000D02*Y386200D01*
Y387000D02*X139300Y387500D01*
X140300D01*
X140800Y387000D01*
Y386200D01*
X140100Y385500D02*X140800Y386200D01*
X165700Y383500D02*X167000D01*
X165000Y384200D02*X165700Y383500D01*
X165000Y386800D02*Y384200D01*
Y386800D02*X165700Y387500D01*
X167000D01*
X168200Y387000D02*Y384000D01*
Y387000D02*X168700Y387500D01*
X169700D01*
X170200Y387000D01*
Y384000D01*
X169700Y383500D02*X170200Y384000D01*
X168700Y383500D02*X169700D01*
X168200Y384000D02*X168700Y383500D01*
X171400Y387500D02*Y383500D01*
Y387500D02*X173900Y383500D01*
Y387500D02*Y383500D01*
X175100Y387500D02*Y383500D01*
Y387500D02*X177600Y383500D01*
Y387500D02*Y383500D01*
X179300D02*X181300Y387500D01*
X178800D02*X181300D01*
X205700Y383500D02*X207000D01*
X205000Y384200D02*X205700Y383500D01*
X205000Y386800D02*Y384200D01*
Y386800D02*X205700Y387500D01*
X207000D01*
X208200Y387000D02*Y384000D01*
Y387000D02*X208700Y387500D01*
X209700D01*
X210200Y387000D01*
Y384000D01*
X209700Y383500D02*X210200Y384000D01*
X208700Y383500D02*X209700D01*
X208200Y384000D02*X208700Y383500D01*
X211400Y387500D02*Y383500D01*
Y387500D02*X213900Y383500D01*
Y387500D02*Y383500D01*
X215100Y387500D02*Y383500D01*
Y387500D02*X217600Y383500D01*
Y387500D02*Y383500D01*
X220300Y387500D02*X220800Y387000D01*
X219300Y387500D02*X220300D01*
X218800Y387000D02*X219300Y387500D01*
X218800Y387000D02*Y384000D01*
X219300Y383500D01*
X220300Y385700D02*X220800Y385200D01*
X218800Y385700D02*X220300D01*
X219300Y383500D02*X220300D01*
X220800Y384000D01*
Y385200D02*Y384000D01*
X245700Y383500D02*X247000D01*
X245000Y384200D02*X245700Y383500D01*
X245000Y386800D02*Y384200D01*
Y386800D02*X245700Y387500D01*
X247000D01*
X248200Y387000D02*Y384000D01*
Y387000D02*X248700Y387500D01*
X249700D01*
X250200Y387000D01*
Y384000D01*
X249700Y383500D02*X250200Y384000D01*
X248700Y383500D02*X249700D01*
X248200Y384000D02*X248700Y383500D01*
X251400Y387500D02*Y383500D01*
Y387500D02*X253900Y383500D01*
Y387500D02*Y383500D01*
X255100Y387500D02*Y383500D01*
Y387500D02*X257600Y383500D01*
Y387500D02*Y383500D01*
X258800Y387500D02*X260800D01*
X258800D02*Y385500D01*
X259300Y386000D01*
X260300D01*
X260800Y385500D01*
Y384000D01*
X260300Y383500D02*X260800Y384000D01*
X259300Y383500D02*X260300D01*
X258800Y384000D02*X259300Y383500D01*
X285700D02*X287000D01*
X285000Y384200D02*X285700Y383500D01*
X285000Y386800D02*Y384200D01*
Y386800D02*X285700Y387500D01*
X287000D01*
X288200Y387000D02*Y384000D01*
Y387000D02*X288700Y387500D01*
X289700D01*
X290200Y387000D01*
Y384000D01*
X289700Y383500D02*X290200Y384000D01*
X288700Y383500D02*X289700D01*
X288200Y384000D02*X288700Y383500D01*
X291400Y387500D02*Y383500D01*
Y387500D02*X293900Y383500D01*
Y387500D02*Y383500D01*
X295100Y387500D02*Y383500D01*
Y387500D02*X297600Y383500D01*
Y387500D02*Y383500D01*
X298800Y385000D02*X300800Y387500D01*
X298800Y385000D02*X301300D01*
X300800Y387500D02*Y383500D01*
X325700D02*X327000D01*
X325000Y384200D02*X325700Y383500D01*
X325000Y386800D02*Y384200D01*
Y386800D02*X325700Y387500D01*
X327000D01*
X328200Y387000D02*Y384000D01*
Y387000D02*X328700Y387500D01*
X329700D01*
X330200Y387000D01*
Y384000D01*
X329700Y383500D02*X330200Y384000D01*
X328700Y383500D02*X329700D01*
X328200Y384000D02*X328700Y383500D01*
X331400Y387500D02*Y383500D01*
Y387500D02*X333900Y383500D01*
Y387500D02*Y383500D01*
X335100Y387500D02*Y383500D01*
Y387500D02*X337600Y383500D01*
Y387500D02*Y383500D01*
X338800Y387000D02*X339300Y387500D01*
X340300D01*
X340800Y387000D01*
X340300Y383500D02*X340800Y384000D01*
X339300Y383500D02*X340300D01*
X338800Y384000D02*X339300Y383500D01*
Y385700D02*X340300D01*
X340800Y387000D02*Y386200D01*
Y385200D02*Y384000D01*
Y385200D02*X340300Y385700D01*
X340800Y386200D02*X340300Y385700D01*
M02*
