M48
INCH
T99C0.020
T98C0.028
T97C0.059
T96C0.039
T95C0.114
T94C0.028
T93C0.038
T92C0.042
T91C0.035
T90C0.060
T89C0.030
%
T99
X023900Y011750
X024200Y012400
X030450Y019300
X017700Y012100
T94
X027050Y009000
X028050Y009000
X029050Y009000
X030050Y009000
X031050Y009000
X032050Y009000
X033050Y009000
X033050Y012000
X032050Y012000
X031050Y012000
X030050Y012000
X029050Y012000
X028050Y012000
X027050Y012000
X016350Y005450
X018350Y005450
X015500Y008000
X016500Y008000
X016900Y001750
X015900Y001750
X017900Y001750
X019900Y001750
X018900Y001750
X010500Y008000
X011500Y008000
X012500Y008000
X013500Y008000
X014500Y008000
X014900Y001750
X002350Y004750
X002350Y005750
X001300Y004750
X001300Y005750
X017500Y008000
X018500Y008000
X019500Y008000
X020500Y008000
X021500Y008000
X022500Y008000
X023500Y008000
X023500Y011000
X022500Y011000
X021500Y011000
X020500Y011000
X019500Y011000
X018500Y011000
X017500Y011000
X016500Y011000
X015500Y011000
X014500Y011000
X013500Y011000
X012500Y011000
X011500Y011000
X010500Y011000
X002350Y014100
X002350Y015100
X001300Y014100
X001300Y015100
X037500Y010500
X037500Y011500
X037500Y012500
X037500Y013500
X034050Y009000
X034050Y012000
T98
X033500Y005400
X035400Y004190
X033500Y003000
T89
X029450Y002900
X029450Y001900
X027050Y007000
X028050Y007000
X032550Y014500
X031050Y007000
X031550Y014500
X030050Y007000
X027600Y014500
X028600Y014500
T91
X022650Y001750
X022650Y003750
X028050Y005050
X030050Y005050
X016800Y004000
X017900Y004000
X019900Y004000
X014800Y004000
X006800Y010000
X006800Y008000
T93
X029500Y025850
X031500Y029850
X031500Y028850
X027500Y029850
X027500Y028850
X033500Y021850
X029500Y021850
X025500Y021850
X025500Y025850
X023500Y028850
X023500Y029850
X024000Y021250
X028500Y021250
X022150Y015350
X022150Y014350
X021150Y015350
X021150Y014350
X020150Y015350
X020150Y014350
X019150Y015350
X019150Y014350
X018150Y015350
X018150Y014350
X017150Y015350
X017150Y014350
X024000Y017250
X028500Y017250
X008500Y003400
X010500Y003400
X010500Y001400
X008500Y001400
X011050Y005300
X008450Y011950
X007050Y005300
X008450Y007950
X010500Y017250
X010500Y021250
X007500Y028850
X003500Y029850
X007500Y029850
X011500Y028850
X011500Y029850
X015500Y029850
X019500Y029850
X015500Y028850
X019500Y028850
X021500Y021850
X021500Y025850
X017500Y025850
X013500Y025850
X009500Y025850
X005500Y025850
X017500Y021850
X013500Y021850
X009500Y021850
X005500Y021850
X014750Y021250
X022150Y018350
X022150Y017350
X021150Y018350
X021150Y017350
X020150Y018350
X020150Y017350
X019150Y018350
X018150Y018350
X017150Y018350
X019150Y017350
X018150Y017350
X017150Y017350
X014750Y017250
X033500Y025850
X035500Y028850
T96
X003362Y007500
X004150Y007500
X004937Y007500
X001000Y007500
X001000Y008287
X001787Y007500
X001787Y008287
X002575Y007500
X002575Y008287
X003362Y008287
X004150Y008287
X004937Y008287
T92
X032500Y027350
X030500Y027350
X029500Y027350
X028500Y027350
X026500Y027350
X025500Y027350
X024500Y027350
X026250Y018250
X026250Y019250
X026250Y020250
X012500Y020250
X012500Y019250
X012500Y018250
X006500Y027350
X005500Y027350
X004500Y027350
X010500Y027350
X009500Y027350
X008500Y027350
X014500Y027350
X017500Y027350
X016500Y027350
X013500Y027350
X012500Y027350
X018500Y027350
X022500Y027350
X021500Y027350
X020500Y027350
X034500Y027350
X033500Y027350
T97
X001000Y019000
X001000Y021000
X001000Y023000
X001000Y025000
X004500Y037850
X006500Y037850
X008500Y037850
X010500Y037850
X012500Y037850
X014500Y037850
X016500Y037850
X018500Y037850
X020500Y037850
X022500Y037850
X028500Y037850
X030500Y037850
X032500Y037850
X034500Y037850
X024500Y037850
X026500Y037850
X037800Y019000
X037800Y025000
X037800Y023000
X037800Y021000
T90
X027000Y002850
X026000Y003850
X025000Y002850
T95
X002000Y002000
X007000Y013950
X002000Y037000
X037000Y037000
X037000Y002000
X035000Y013950
M30
