G04 start of page 2 for group 0 idx 0 *
G04 Title: (unknown), top *
G04 Creator: pcb 20110918 *
G04 CreationDate: Tue 29 Apr 2014 11:30:52 GMT UTC *
G04 For: ksarkies *
G04 Format: Gerber/RS-274X *
G04 PCB-Dimensions: 390000 390000 *
G04 PCB-Coordinate-Origin: lower left *
%MOIN*%
%FSLAX25Y25*%
%LNTOP*%
%ADD39C,0.0394*%
%ADD38C,0.0280*%
%ADD37C,0.0420*%
%ADD36C,0.1140*%
%ADD35C,0.0590*%
%ADD34C,0.0380*%
%ADD33C,0.0280*%
%ADD32C,0.0360*%
%ADD31R,0.0630X0.0630*%
%ADD30R,0.2362X0.2362*%
%ADD29C,0.0800*%
%ADD28C,0.0900*%
%ADD27C,0.0680*%
%ADD26C,0.0720*%
%ADD25C,0.0700*%
%ADD24C,0.1650*%
%ADD23C,0.1000*%
%ADD22C,0.0001*%
%ADD21C,0.0800*%
%ADD20C,0.0200*%
%ADD19C,0.0650*%
%ADD18C,0.0400*%
%ADD17C,0.0600*%
%ADD16C,0.0350*%
%ADD15C,0.0550*%
%ADD14C,0.0500*%
%ADD13C,0.0450*%
%ADD12C,0.0300*%
%ADD11C,0.0100*%
G54D11*X131500Y87000D02*X125000Y80000D01*
X139500Y74000D02*X145000Y80000D01*
X139500Y74000D02*X110500D01*
Y83500D01*
X42000Y91000D02*X52500D01*
X60000Y83500D01*
X46000Y87000D02*X52000D01*
X110500Y83500D02*X24000Y151000D01*
X46500Y87000D02*X45500D01*
X42000Y83500D01*
X153500Y67500D02*X85500D01*
X148500Y72000D02*X72000Y72500D01*
X63000D02*X72500D01*
X64000Y67500D02*X71000D01*
X70500D01*
X50000Y74500D02*Y75000D01*
X60000Y83500D02*Y75500D01*
X63000Y72500D01*
X52000Y87000D02*X57500Y81500D01*
Y74000D01*
X64000Y67500D01*
X13000Y139500D02*Y88000D01*
X23500Y139500D02*Y85500D01*
X13000Y88000D02*X17500Y83500D01*
X23500Y85500D02*X25500Y83500D01*
X42000Y91000D02*X33622Y82874D01*
X7000Y64000D02*Y51000D01*
X29000Y64500D02*Y51500D01*
X24000Y47500D01*
X7000Y51000D02*X13000Y46500D01*
X33500Y74500D02*X75500Y26500D01*
X41500Y74500D02*X81000Y29500D01*
G54D12*X67500Y60000D02*X49370Y75000D01*
G54D11*X147500Y30500D02*X137500Y41000D01*
X102000D01*
X103000Y38500D02*X135500D01*
X147000Y26500D01*
X105000Y34000D02*X136000D01*
X102000Y41000D02*X90500Y29500D01*
X91000Y26500D02*X103000Y38500D01*
G54D13*X95500Y46000D02*X85000Y34000D01*
G54D11*X75500Y26500D02*X91000D01*
X90500Y29500D02*X81000D01*
G54D12*X111000Y53500D02*Y60000D01*
G54D13*X144500Y46000D02*X95500D01*
G54D12*X151500Y60000D02*X67000D01*
G54D11*X105000Y80000D02*X68000D01*
X80100Y67374D02*X85500Y67500D01*
X80100Y67374D02*X70500Y67500D01*
X33622Y75000D02*Y74500D01*
X34000D01*
X10000Y75000D02*Y67000D01*
X7000Y64000D01*
X26000Y74500D02*Y67500D01*
X29000Y64500D01*
X195000Y80000D02*X183500Y54500D01*
X199000Y40000D01*
X226500Y34000D02*Y37500D01*
X205000Y80000D02*Y32500D01*
X215000Y80000D02*Y32500D01*
X226500Y37500D02*Y34000D01*
G54D14*X249500Y28000D02*X226500Y37500D01*
X227000Y17500D02*X226500D01*
X227000D01*
G54D11*X250000Y28500D02*Y25000D01*
G54D14*X227000Y17500D02*X226500D01*
X259500Y15500D02*X227000Y17500D01*
G54D11*X205000Y32500D02*X203000Y30500D01*
X209000Y26500D02*X215000Y32500D01*
G54D14*X226500Y17500D02*X199000D01*
X259500Y15500D02*X260000Y38500D01*
X282000Y12500D02*X282500D01*
X282000D02*X259500Y15500D01*
X294000Y17500D02*X282000Y12500D01*
X294500Y18500D02*X294999Y18000D01*
G54D11*X294000Y17500D01*
Y18000D01*
X294999D01*
X294500Y18500D01*
G54D14*Y29000D02*X294000Y28500D01*
X294500Y29000D02*X294000D01*
X294500D02*X294000D01*
G54D11*X295500Y29500D02*Y31000D01*
G54D14*X270000Y28500D02*X294000D01*
G54D11*X239500Y104500D02*X234000Y99000D01*
X240500Y89500D02*X253000Y102000D01*
X242000Y87000D02*X256000Y100500D01*
G54D14*X260000Y37000D02*X260500Y121500D01*
G54D11*X256000Y126000D02*X265000Y134500D01*
X253000Y127500D02*X263000Y137000D01*
X253000Y102000D02*Y127500D01*
X256000Y100500D02*Y126000D01*
G54D12*X270500Y120000D02*Y119500D01*
G54D11*Y90000D02*Y70000D01*
G54D14*X272000Y129500D02*X281000Y120000D01*
X268000Y129500D02*X272000D01*
X260500Y122000D02*X268000Y129500D01*
G54D12*X285500Y105000D02*X270500Y119500D01*
G54D11*X145000Y110000D02*X154000Y101500D01*
X161000Y104000D02*X155500Y109500D01*
X146000Y99000D02*X135000Y110000D01*
X160000Y84500D02*Y74000D01*
X163500Y54500D02*X148000Y40000D01*
X154000Y24000D02*X159500Y17500D01*
X160000Y74000D02*X153500Y67500D01*
X155000Y80000D02*X148500Y72000D01*
X105000Y110000D02*X124000Y92000D01*
X115000Y110000D02*X132000Y94500D01*
X115000Y80000D02*X124500Y89500D01*
X185000Y80000D02*X163500Y54500D01*
G54D13*X174500Y80000D02*Y76500D01*
G54D11*X203000Y30500D02*X147500D01*
X147000Y26500D02*X209000D01*
X136000Y34000D02*X146500Y24000D01*
X154000D01*
G54D13*X174500Y76500D02*X144500Y46000D01*
G54D12*X164000Y72500D02*X151500Y60000D01*
X165000Y80000D02*X164000Y72500D01*
G54D11*X242000Y87000D02*X131500D01*
X238500Y92000D02*X124000D01*
X220000Y84500D02*X160000D01*
X124500Y89500D02*X240500D01*
X125000Y109500D02*Y109000D01*
X137500Y96500D01*
X225500Y101500D02*X154000D01*
X237000Y94500D02*X132000D01*
X217500Y104000D02*X161000D01*
X137500Y96500D02*X236000D01*
X234000Y99000D02*X146000D01*
X220000Y84500D02*X225000Y80000D01*
X220500Y120000D02*Y106000D01*
X217500Y104000D01*
X229500Y120500D02*Y106500D01*
X225500Y101500D01*
X239500Y117500D02*Y112500D01*
Y104500D01*
G54D12*X367000Y105000D02*X285500D01*
G54D11*X316500Y134500D02*X330500Y120000D01*
X354000Y42500D02*Y41900D01*
Y42500D01*
Y41900D02*Y42500D01*
G54D14*X341000Y19500D02*X294500Y18500D01*
X354000Y41900D02*X341000Y19500D01*
G54D11*X310500Y90000D02*Y70000D01*
X300500Y90000D02*Y70000D01*
G54D14*X295500Y31000D02*X300000Y50500D01*
X335000Y30000D02*X294500Y29000D01*
G54D11*X375000Y105000D02*Y104500D01*
Y103500D02*Y104500D01*
Y103500D01*
G54D12*Y104500D02*X367000Y105000D01*
G54D11*X375000Y125000D02*Y123500D01*
X375500D01*
X375000Y125000D02*Y123500D01*
X375500D01*
X375000Y115000D02*Y113500D01*
X375500D01*
X375000Y115000D02*Y113500D01*
X375500D01*
G54D12*Y134500D02*X383500Y127000D01*
Y81000D02*Y127000D01*
Y81000D02*X354000Y42500D01*
G54D11*X245500Y102500D02*X237000Y94500D01*
X250000Y103000D02*X238500Y92000D01*
X236000Y96500D02*X242000Y103000D01*
X249500Y28000D02*X250000Y25000D01*
X245500Y133000D02*Y102500D01*
X250000Y136000D02*Y103000D01*
X243000Y143000D02*X250000Y136000D01*
X239500Y138500D02*X245500Y133000D01*
X242000Y103000D02*Y124500D01*
X216500Y178500D02*Y159000D01*
X221500Y153500D02*X216500Y145500D01*
X226000Y179500D02*Y158500D01*
Y179500D02*X221500Y183500D01*
X226000Y158500D02*X221500Y153500D01*
X216500Y145500D02*Y141500D01*
X219500Y138500D01*
X239500D01*
X221500Y143000D02*X243000D01*
X255000Y218500D02*X254000D01*
X271000Y225500D02*X258500Y213000D01*
X271500Y223000D02*X259000Y210500D01*
X254000Y218500D02*X247500Y225000D01*
X287500Y225500D02*X271000D01*
X286000Y223000D02*X271500D01*
X284500Y211500D02*X272000D01*
X290000Y214000D02*Y219000D01*
X258500Y213000D02*X251000D01*
X259000Y210500D02*X250500D01*
X272000Y211500D02*X263000Y202500D01*
X262500Y192500D02*X260500D01*
G54D14*X295000Y208500D02*X291500Y205000D01*
G54D11*X293000Y214000D02*X290000D01*
G54D14*X291500Y205000D02*Y192000D01*
G54D11*X251000Y213000D02*X241500Y222500D01*
X250500Y210500D02*X240500Y220500D01*
X238000D01*
X240000Y212000D02*X233500D01*
X241500Y222500D02*X236500D01*
X247500Y225000D02*X235500D01*
X238000Y220500D02*X223500Y206000D01*
X233500Y212000D02*X224500Y203000D01*
X236500Y222500D02*X223500Y209000D01*
X235500Y225000D02*X221500Y211000D01*
X260500Y192500D02*X240000Y172000D01*
X335000Y218000D02*X305500D01*
X295000Y218500D02*X294000D01*
X295500D02*X294500D01*
X287500Y225500D01*
X290000Y219000D02*X286000Y223000D01*
X305500Y218000D02*X302000Y214000D01*
X293000D01*
X285000Y172000D02*X292000D01*
X303500Y183500D01*
G54D14*X291500Y192000D02*X300000Y183500D01*
G54D11*X304500Y200000D02*Y193500D01*
X330500Y148500D02*X330000D01*
G54D15*X315500Y145000D02*X286000D01*
G54D11*X263000Y137000D02*X324000D01*
X265000Y134500D02*X316500D01*
G54D14*X50000Y229000D02*X10000D01*
G54D16*X85592Y201500D02*X84063Y201555D01*
X85592D02*Y201500D01*
G54D11*Y183500D02*X85063Y183445D01*
X85592D02*Y183500D01*
G54D13*X105063Y212500D02*X84063Y201555D01*
G54D11*X105000Y172500D02*X85063Y183445D01*
G54D13*X46000Y190000D02*X10000D01*
G54D11*X13000Y151000D02*X23500D01*
X24000Y151500D01*
G54D16*X64055Y314500D02*X64000D01*
G54D17*X76000Y297500D01*
G54D11*X45945Y313971D02*X35000Y303026D01*
Y298500D01*
G54D18*X104055Y313971D02*X105055D01*
G54D11*X85945Y315500D02*X85000D01*
Y297500D02*Y315500D01*
G54D18*X105000Y291577D02*X104500Y292500D01*
G54D17*X105055Y313971D02*X105000Y291577D01*
G54D11*X85000Y297500D02*X76000Y288500D01*
G54D16*X75000Y297500D02*X76000D01*
X75000Y298500D02*Y297500D01*
G54D11*X95000Y273500D02*Y258500D01*
X75000Y288500D02*X85000Y273500D01*
X55000D02*Y258500D01*
G54D14*X76000Y259500D02*X50000Y229500D01*
G54D11*X45000Y286500D02*X35000Y298500D01*
G54D13*X76000Y275500D02*Y258500D01*
G54D14*Y298500D02*X66500Y292500D01*
Y283500D02*X76000Y275500D01*
X66500Y292500D02*Y283500D01*
G54D15*X355000Y288500D02*X344000Y291577D01*
G54D17*X344055Y313971D02*X344000Y291577D01*
G54D11*X342000Y292500D01*
G54D14*X355000Y288000D02*Y273500D01*
G54D11*X325000Y297500D02*X316000Y288500D01*
X315000Y287500D02*X325000Y273500D01*
X325945Y315500D02*X325000D01*
Y297500D02*Y315500D01*
G54D15*X304000Y314500D02*X315000Y298500D01*
G54D11*X335000Y273500D02*Y258500D01*
X315000Y288500D02*Y287500D01*
X295000Y273500D02*Y258500D01*
X245945Y312500D02*X245000D01*
G54D16*X304055Y314500D02*X304000D01*
G54D11*X285945Y313971D02*X275000Y303026D01*
Y298500D02*Y303026D01*
G54D15*X264500Y313500D02*X264445Y294529D01*
X315000Y298500D02*X275000Y288500D01*
X264445Y294529D01*
G54D11*X255000Y273500D02*Y258500D01*
X215000Y273500D02*Y258500D01*
X245000Y288500D02*X235000D01*
X245000Y312500D02*Y273500D01*
Y277100D01*
Y288500D02*Y286029D01*
G54D19*X224055Y314500D02*X235000Y298500D01*
G54D13*X285000Y378500D02*Y347437D01*
X245000Y378500D02*Y347437D01*
X205000Y378500D02*Y347437D01*
X165000Y378500D02*Y347437D01*
X125000Y378500D02*Y347437D01*
G54D14*X85000Y378500D02*Y347437D01*
G54D13*X45000Y378500D02*Y347437D01*
X325000Y378500D02*Y347437D01*
G54D11*X45000Y286500D02*Y273500D01*
X135500Y218000D02*Y215000D01*
X144000Y206500D01*
X159500D01*
G54D14*X355000Y273500D02*X378500Y250000D01*
G54D11*X378000Y249500D02*X377500D01*
X378500Y250000D02*X377500D01*
G54D14*X339000Y208500D01*
X295000D01*
G54D13*X378000Y210000D02*X340000Y192500D01*
G54D11*X125000Y182500D02*X108937Y183500D01*
X105000Y172500D01*
G54D12*X125000Y202500D02*X144000D01*
G54D11*X147500Y172000D02*X125000Y192500D01*
G54D13*X115000Y287500D02*Y229500D01*
G54D11*Y288500D02*X114000D01*
X165000Y297500D02*X156000Y288500D01*
G54D20*X114000D02*X110100D01*
G54D11*X155000Y297500D02*X156000D01*
X116000Y288500D02*X114000D01*
G54D15*X154000Y298500D02*X114000Y288500D01*
X116000D02*X105000Y291577D01*
G54D11*X125945Y313971D02*X115000Y303026D01*
Y298500D01*
G54D13*Y229500D02*X105000Y212500D01*
G54D11*X195000Y288500D02*X196000D01*
G54D17*X235000Y298500D02*X195000Y288500D01*
G54D11*Y290500D01*
X155000Y298500D02*Y297500D01*
X175000Y273500D02*Y258500D01*
X135000Y273500D02*Y258500D01*
X155000Y288500D02*X165000Y273500D01*
X155000Y298500D02*X154000D01*
G54D16*X144055Y314500D02*X144000D01*
G54D11*X165945Y315500D02*X165000D01*
Y297500D02*Y315500D01*
G54D15*X144000Y314500D02*X156000Y297500D01*
G54D18*X184055Y313971D02*X185055D01*
G54D11*X205945D02*X195000Y303026D01*
Y298500D02*Y303026D01*
G54D17*X185055Y313971D02*X185000Y291577D01*
G54D11*X195000Y290500D02*X190100D01*
G54D17*X196000Y288500D02*X185000Y291577D01*
G54D18*Y292000D01*
G54D11*X211500Y183500D02*X216500Y178500D01*
X206500Y192500D02*Y182350D01*
X201500Y183500D02*Y194500D01*
X206500D02*Y191500D01*
X191500Y183500D02*X192000Y182500D01*
X196500Y175500D02*X192000Y182500D01*
X191500Y173500D02*X186500Y182500D01*
X197000Y181500D02*X201500Y173500D01*
X206500Y176000D02*X201500Y183500D01*
X197000Y196000D02*Y181500D01*
X181500Y173500D02*X176500Y182000D01*
X186500Y175500D02*X181500Y183500D01*
X176500Y190000D02*Y182000D01*
X186500Y183000D02*Y213000D01*
X191500Y181300D02*Y206500D01*
G54D12*X172500Y172500D02*X144000Y202500D01*
G54D11*X159500Y206500D02*X176500Y189500D01*
X206500Y176000D02*Y159500D01*
Y182350D02*X211500Y173500D01*
X212000Y173000D01*
X186500Y175500D02*Y159000D01*
G54D12*X164500Y166000D02*Y148000D01*
G54D11*X186500Y159000D02*X181500Y153500D01*
G54D12*X170500Y172500D02*X164500Y166000D01*
G54D11*X196500Y175500D02*Y159500D01*
X191500Y153500D01*
X206500Y159500D02*X202000Y154000D01*
X201500Y153500D02*Y154000D01*
X202000D01*
X171000Y143000D02*X171500Y143500D01*
X177000Y121000D02*X182000Y143500D01*
X324000Y137000D02*X340500Y120500D01*
G54D12*X164500Y148000D02*X171500Y144000D01*
G54D11*Y143500D02*Y144000D01*
X171000D01*
G54D12*X172000Y143500D02*X165000Y110000D01*
G54D11*X211500Y153000D02*X207000Y146000D01*
Y138000D01*
X211500Y153500D02*X216500Y159000D01*
X207500Y138000D02*X220500Y120000D01*
X229500Y120500D02*X211500Y143500D01*
X181500Y183500D02*Y213500D01*
X175000Y218500D02*X181500Y213500D01*
X186500Y213000D02*X192000Y218500D01*
X196000Y211000D02*X191500Y206500D01*
X192000Y218500D02*X214500D01*
X215000Y218000D01*
X221500Y211000D02*X196000D01*
X213000Y206000D02*X201500Y194500D01*
X209500Y209000D02*X197000Y196000D01*
X215000Y203000D02*X206500Y194500D01*
X223500Y206000D02*X213000D01*
X223500Y209000D02*X209500D01*
X224500Y203000D02*X215000D01*
G54D17*X155000Y110000D03*
X145000D03*
X135000D03*
X125000D03*
X115000D03*
X105000D03*
G54D21*X68000Y100000D03*
G54D22*G36*
X81100Y122900D02*Y116100D01*
X87900D01*
Y122900D01*
X81100D01*
G37*
G36*
X5000Y195000D02*Y185000D01*
X15000D01*
Y195000D01*
X5000D01*
G37*
G54D23*X10000Y210000D03*
G54D22*G36*
X51600Y221900D02*Y215100D01*
X58400D01*
Y221900D01*
X51600D01*
G37*
G36*
X20000Y144500D02*Y137500D01*
X27000D01*
Y144500D01*
X20000D01*
G37*
G54D24*X70000Y139500D03*
G54D25*X23500Y151000D03*
G54D22*G36*
X9500Y144500D02*Y137500D01*
X16500D01*
Y144500D01*
X9500D01*
G37*
G54D25*X13000Y151000D03*
G54D22*G36*
X171600Y221900D02*Y215100D01*
X178400D01*
Y221900D01*
X171600D01*
G37*
G36*
X131600D02*Y215100D01*
X138400D01*
Y221900D01*
X131600D01*
G37*
G36*
X144100Y215900D02*Y209100D01*
X150900D01*
Y215900D01*
X144100D01*
G37*
G36*
X121400Y206100D02*Y198900D01*
X128600D01*
Y206100D01*
X121400D01*
G37*
G54D26*X125000Y192500D03*
Y182500D03*
G54D22*G36*
X101600Y175900D02*Y169100D01*
X108400D01*
Y175900D01*
X101600D01*
G37*
G54D27*X147500Y172500D03*
G54D22*G36*
X91600Y221900D02*Y215100D01*
X98400D01*
Y221900D01*
X91600D01*
G37*
G54D27*X105000Y212500D03*
G54D17*X181500Y183500D03*
Y173500D03*
X171500Y183500D03*
Y173500D03*
X181500Y153500D03*
X171500D03*
X181500Y143500D03*
X171500D03*
G54D23*X10000Y250000D03*
G54D22*G36*
X61400Y277100D02*Y269900D01*
X68600D01*
Y277100D01*
X61400D01*
G37*
G54D27*X95000Y258500D03*
G54D26*X55000Y273500D03*
G54D27*Y258500D03*
G54D26*X45000Y273500D03*
G54D22*G36*
X31600Y301900D02*Y295100D01*
X38400D01*
Y301900D01*
X31600D01*
G37*
G36*
X71600Y291900D02*Y285100D01*
X78400D01*
Y291900D01*
X71600D01*
G37*
G54D27*X75000Y298500D03*
X115000Y288500D03*
G54D22*G36*
X111600Y301900D02*Y295100D01*
X118400D01*
Y301900D01*
X111600D01*
G37*
G54D27*X155000Y298500D03*
G54D22*G36*
X151600Y291900D02*Y285100D01*
X158400D01*
Y291900D01*
X151600D01*
G37*
G36*
X101400Y277100D02*Y269900D01*
X108600D01*
Y277100D01*
X101400D01*
G37*
G54D26*X135000Y273500D03*
X125000D03*
X95000D03*
X85000D03*
G54D22*G36*
X141400Y277100D02*Y269900D01*
X148600D01*
Y277100D01*
X141400D01*
G37*
G36*
X181400D02*Y269900D01*
X188600D01*
Y277100D01*
X181400D01*
G37*
G54D26*X175000Y273500D03*
X165000D03*
G54D27*X175000Y258500D03*
X135000D03*
G54D26*X205000Y273500D03*
G54D22*G36*
X191600Y301900D02*Y295100D01*
X198400D01*
Y301900D01*
X191600D01*
G37*
G54D27*X195000Y288500D03*
G54D22*G36*
X221400Y277100D02*Y269900D01*
X228600D01*
Y277100D01*
X221400D01*
G37*
G36*
X231600Y291900D02*Y285100D01*
X238400D01*
Y291900D01*
X231600D01*
G37*
G54D27*X235000Y298500D03*
G54D26*X215000Y273500D03*
G54D27*Y258500D03*
G54D22*G36*
X271600Y301900D02*Y295100D01*
X278400D01*
Y301900D01*
X271600D01*
G37*
G54D27*X315000Y298500D03*
X275000Y288500D03*
G54D22*G36*
X311600Y291900D02*Y285100D01*
X318400D01*
Y291900D01*
X311600D01*
G37*
G36*
X373000Y215000D02*Y205000D01*
X383000D01*
Y215000D01*
X373000D01*
G37*
G54D23*X378000Y190000D03*
G54D22*G36*
X373000Y255000D02*Y245000D01*
X383000D01*
Y255000D01*
X373000D01*
G37*
G54D23*X378000Y230000D03*
G54D22*G36*
X341400Y277100D02*Y269900D01*
X348600D01*
Y277100D01*
X341400D01*
G37*
G54D26*X335000Y273500D03*
G54D22*G36*
X331600Y221900D02*Y215100D01*
X338400D01*
Y221900D01*
X331600D01*
G37*
G54D27*X335000Y258500D03*
G54D26*X325000Y273500D03*
G54D22*G36*
X291600Y221900D02*Y215100D01*
X298400D01*
Y221900D01*
X291600D01*
G37*
G54D27*X295000Y258500D03*
G54D22*G36*
X301400Y277100D02*Y269900D01*
X308600D01*
Y277100D01*
X301400D01*
G37*
G54D26*X295000Y273500D03*
X285000D03*
G54D22*G36*
X261400Y277100D02*Y269900D01*
X268600D01*
Y277100D01*
X261400D01*
G37*
G54D26*X255000Y273500D03*
X245000D03*
G54D22*G36*
X281600Y215900D02*Y209100D01*
X288400D01*
Y215900D01*
X281600D01*
G37*
G54D27*X255000Y258500D03*
G54D17*X221500Y173500D03*
G54D27*X240000Y172500D03*
G54D17*X211500Y183500D03*
X201500D03*
X191500D03*
X211500Y173500D03*
X201500D03*
X191500D03*
G54D22*G36*
X218500Y156500D02*Y150500D01*
X224500D01*
Y156500D01*
X218500D01*
G37*
G54D17*X221500Y143500D03*
X211500Y153500D03*
Y143500D03*
X201500Y153500D03*
Y143500D03*
X191500Y153500D03*
Y143500D03*
G54D22*G36*
X211600Y221900D02*Y215100D01*
X218400D01*
Y221900D01*
X211600D01*
G37*
G36*
X218500Y186500D02*Y180500D01*
X224500D01*
Y186500D01*
X218500D01*
G37*
G36*
X236600Y215900D02*Y209100D01*
X243400D01*
Y215900D01*
X236600D01*
G37*
G36*
X251600Y221900D02*Y215100D01*
X258400D01*
Y221900D01*
X251600D01*
G37*
G36*
X258900Y186100D02*Y178900D01*
X266100D01*
Y186100D01*
X258900D01*
G37*
G54D26*X262500Y192500D03*
Y202500D03*
G54D27*X285000Y172500D03*
G54D17*X340500Y120000D03*
G54D24*X350000Y139500D03*
G54D17*X330500Y120000D03*
X320500D03*
X310500D03*
X300500D03*
X290500D03*
X280500D03*
X270500D03*
G54D22*G36*
X312500Y148000D02*Y142000D01*
X318500D01*
Y148000D01*
X312500D01*
G37*
G54D17*X325500Y145000D03*
G54D22*G36*
X273000Y148000D02*Y142000D01*
X279000D01*
Y148000D01*
X273000D01*
G37*
G54D17*X286000Y145000D03*
G54D22*G36*
X5000Y235000D02*Y225000D01*
X15000D01*
Y235000D01*
X5000D01*
G37*
G36*
X40000Y383500D02*Y373500D01*
X50000D01*
Y383500D01*
X40000D01*
G37*
G54D23*X65000Y378500D03*
G54D22*G36*
X80000Y383500D02*Y373500D01*
X90000D01*
Y383500D01*
X80000D01*
G37*
G54D23*X105000Y378500D03*
G54D24*X20000Y370000D03*
G54D22*G36*
X120000Y383500D02*Y373500D01*
X130000D01*
Y383500D01*
X120000D01*
G37*
G54D23*X145000Y378500D03*
G54D22*G36*
X160000Y383500D02*Y373500D01*
X170000D01*
Y383500D01*
X160000D01*
G37*
G54D23*X185000Y378500D03*
G54D22*G36*
X200000Y383500D02*Y373500D01*
X210000D01*
Y383500D01*
X200000D01*
G37*
G54D23*X225000Y378500D03*
G54D22*G36*
X240000Y383500D02*Y373500D01*
X250000D01*
Y383500D01*
X240000D01*
G37*
G54D23*X265000Y378500D03*
G54D22*G36*
X280000Y383500D02*Y373500D01*
X290000D01*
Y383500D01*
X280000D01*
G37*
G54D23*X305000Y378500D03*
G54D22*G36*
X320000Y383500D02*Y373500D01*
X330000D01*
Y383500D01*
X320000D01*
G37*
G54D23*X345000Y378500D03*
G54D24*X370000Y370000D03*
G54D27*X355000Y288500D03*
G54D21*X199000Y40000D03*
G54D28*X260000Y38500D03*
G54D21*X226500Y37500D03*
G54D22*G36*
X265500Y33000D02*Y24000D01*
X274500D01*
Y33000D01*
X265500D01*
G37*
G54D28*X250000Y28500D03*
G54D21*X226500Y17500D03*
G54D22*G36*
X371500Y108500D02*Y101500D01*
X378500D01*
Y108500D01*
X371500D01*
G37*
G54D25*X375000Y115000D03*
Y125000D03*
Y135000D03*
G54D24*X370000Y20000D03*
G54D29*X335000Y54000D03*
X354000Y41900D03*
X335000Y30000D03*
G54D22*G36*
X291500Y32000D02*Y26000D01*
X297500D01*
Y32000D01*
X291500D01*
G37*
G54D17*X294500Y19000D03*
G54D21*X280500Y50500D03*
X300500D03*
G54D22*G36*
X267500Y73000D02*Y67000D01*
X273500D01*
Y73000D01*
X267500D01*
G37*
G54D17*X280500Y70000D03*
G54D22*G36*
X267500Y93000D02*Y87000D01*
X273500D01*
Y93000D01*
X267500D01*
G37*
G54D17*X280500Y90000D03*
X290500D03*
X300500D03*
X310500D03*
X320500D03*
X330500D03*
X340500D03*
G54D22*G36*
X297500Y73000D02*Y67000D01*
X303500D01*
Y73000D01*
X297500D01*
G37*
G54D17*X310500Y70000D03*
G54D22*G36*
X160500Y57500D02*Y51500D01*
X166500D01*
Y57500D01*
X160500D01*
G37*
G54D17*X183500Y54500D03*
X155000Y80000D03*
X165000D03*
G54D21*X168000Y40000D03*
X179000D03*
G54D22*G36*
X195500Y21000D02*Y14000D01*
X202500D01*
Y21000D01*
X195500D01*
G37*
G54D25*X189000Y17500D03*
X179000D03*
X169000D03*
X159000D03*
G54D22*G36*
X82000Y37000D02*Y31000D01*
X88000D01*
Y37000D01*
X82000D01*
G37*
G54D17*X105000Y34000D03*
Y14000D03*
X85000D03*
G54D22*G36*
X102000Y83000D02*Y77000D01*
X108000D01*
Y83000D01*
X102000D01*
G37*
G54D17*X115000Y80000D03*
X125000D03*
X135000D03*
X145000D03*
G54D21*X148000Y40000D03*
G54D27*X84500Y79500D03*
G54D25*X149000Y17500D03*
G54D22*G36*
X107100Y56400D02*Y49600D01*
X113900D01*
Y56400D01*
X107100D01*
G37*
G54D17*X175000Y80000D03*
X185000D03*
X195000D03*
X205000D03*
X215000D03*
X225000D03*
X235000D03*
Y110000D03*
X225000D03*
X215000D03*
X205000D03*
X195000D03*
X185000D03*
X175000D03*
X165000D03*
G54D21*X68000Y80000D03*
G54D27*X70500Y53000D03*
G54D22*G36*
X7000Y78000D02*Y72000D01*
X13000D01*
Y78000D01*
X7000D01*
G37*
G36*
X20000Y51000D02*Y44000D01*
X27000D01*
Y51000D01*
X20000D01*
G37*
G54D25*X23500Y57500D03*
G54D22*G36*
X9500Y51000D02*Y44000D01*
X16500D01*
Y51000D01*
X9500D01*
G37*
G54D25*X13000Y57500D03*
G54D17*X10000Y82874D03*
X17874D03*
X25748D03*
X33622D03*
X41496D03*
X49370D03*
X17874Y75000D03*
X25748D03*
X33622D03*
X41496D03*
X49370D03*
G54D24*X20000Y20000D03*
G54D30*X52126Y192500D02*X60000D01*
G54D31*X78111Y201555D02*X85592D01*
X78111Y183445D02*X85592D01*
G54D30*X255000Y347437D02*Y339563D01*
X215000Y347437D02*Y339563D01*
X175000Y347437D02*Y339563D01*
X135000Y347437D02*Y339563D01*
G54D31*X245945Y321452D02*Y313971D01*
X224055Y321452D02*Y313971D01*
X205945Y321452D02*Y313971D01*
X184055Y321452D02*Y313971D01*
X165945Y321452D02*Y313971D01*
X144055Y321452D02*Y313971D01*
X125945Y321452D02*Y313971D01*
G54D30*X95000Y347437D02*Y339563D01*
X55000Y347437D02*Y339563D01*
G54D31*X104055Y321452D02*Y313971D01*
X85945Y321452D02*Y313971D01*
X64055Y321452D02*Y313971D01*
X45945Y321452D02*Y313971D01*
G54D30*X335000Y347437D02*Y339563D01*
G54D31*X344055Y321452D02*Y313971D01*
X325945Y321452D02*Y313971D01*
G54D30*X295000Y347437D02*Y339563D01*
G54D31*X304055Y321452D02*Y313971D01*
X285945Y321452D02*Y313971D01*
X264055Y321452D02*Y313971D01*
G54D30*X327500Y192500D02*X335374D01*
G54D31*X301908Y183445D02*X309389D01*
X301908Y201555D02*X309389D01*
G54D32*X239000Y117500D03*
X242000Y124000D03*
X304500Y193000D03*
X177000Y121000D03*
G54D20*G54D33*G54D16*G54D34*G54D35*G54D34*G54D33*G54D36*G54D33*G54D34*G54D37*G54D34*G54D35*G54D37*G54D34*G54D37*G54D34*G54D37*G54D34*G54D37*G54D34*G54D37*G54D34*G54D37*G54D34*G54D37*G54D34*G54D35*G54D37*G54D34*G54D37*G54D34*G54D37*G54D34*G54D37*G54D34*G54D33*G54D36*G54D33*G54D12*G54D35*G54D36*G54D35*G54D36*G54D34*G54D16*G54D17*G54D16*G54D17*G54D16*G54D33*G54D36*G54D38*G54D12*G54D16*G54D12*G54D33*G54D12*G54D33*G54D16*G54D33*G54D34*G54D33*G54D16*G54D34*G54D33*G54D34*G54D33*G54D16*G54D34*G54D39*G54D33*G54D39*G54D36*M02*
